<?xml version="1.0" encoding="UTF-8"?>
<svg version="1.1" xmlns="http://www.w3.org/2000/svg" width="1024" height="1024">
<path d="M0 0 C0.72932739 0.09474609 1.45865479 0.18949219 2.21008301 0.28710938 C46.61663608 6.06971706 89.11401221 17.57232268 130 36 C130.92071289 36.41217773 131.84142578 36.82435547 132.79003906 37.24902344 C161.16537519 50.04938408 188.12162798 66.32135008 213 85 C213.60279785 85.44972168 214.2055957 85.89944336 214.82666016 86.36279297 C222.05737374 91.77098175 229.01308137 97.46638123 235.8671875 103.33984375 C238.77980802 105.82983818 241.75893661 108.22964979 244.75 110.625 C249.20498941 114.23856388 253.25156293 118.11374367 257.22265625 122.25 C258.89373212 124.07555954 258.89373212 124.07555954 261 125 C261 125.66 261 126.32 261 127 C261.53109375 127.20625 262.0621875 127.4125 262.609375 127.625 C266.00773436 129.57961192 268.51055928 132.22123717 271.25 135 C272.08144531 135.81984375 272.08144531 135.81984375 272.9296875 136.65625 C277 140.7466133 277 140.7466133 277 143 C277.66 143 278.32 143 279 143 C280.72456414 144.62943694 282.36112411 146.28771726 284 148 C285.09855678 149.09287344 286.20028109 150.18256951 287.3046875 151.26953125 C298.47051393 162.33447101 298.47051393 162.33447101 303.171875 167.890625 C305.16133276 170.18615319 307.22188544 172.4026396 309.29589844 174.62158203 C315.13828962 180.87767376 320.69206833 187.27886307 326 194 C326.51288574 194.64565918 327.02577148 195.29131836 327.55419922 195.95654297 C336.08350279 206.7110963 344.28126232 217.64813235 352 229 C352.45439453 229.66789551 352.90878906 230.33579102 353.37695312 231.02392578 C364.55555673 247.58675608 374.45062904 265.07772855 383.08496094 283.09619141 C384.0257662 285.05360855 384.98495748 287.00132884 385.9453125 288.94921875 C409.95075097 338.16450038 421.86876729 391.77553178 427 446 C427.10602539 447.11648926 427.21205078 448.23297852 427.32128906 449.38330078 C428.39003534 462.68133909 428.24386667 476.04333293 428.25 489.375 C428.25101212 491.3503624 428.25101212 491.3503624 428.25204468 493.3656311 C428.24457879 513.43427811 427.70192893 533.09720855 425 553 C424.83371094 554.28583984 424.66742187 555.57167969 424.49609375 556.89648438 C412.12840432 651.4883402 369.29042954 737.08823494 303 810 C302.5344873 810.51062988 302.06897461 811.02125977 301.58935547 811.54736328 C293.46570464 820.4540166 285.31693684 829.27094821 276.15234375 837.12890625 C273.61947838 839.33079829 271.15667478 841.60195826 268.6875 843.875 C263.28499945 848.79513443 257.71013746 853.44257746 252 858 C251.22946289 858.6199585 251.22946289 858.6199585 250.44335938 859.25244141 C176.6688242 918.55307292 88.98592372 952.97342178 -39.80322266 961.31567383 C-42.58691663 961.31106359 -45.37017135 961.31790759 -48.15380859 961.33618164 C-74.49042335 961.50706495 -100.42716445 959.68000648 -126.4375 955.3125 C-127.19318268 955.18816589 -127.94886536 955.06383179 -128.72744751 954.93572998 C-145.06733494 952.22618642 -161.0517249 948.44914452 -177 944 C-178.13969238 943.68305176 -179.27938477 943.36610352 -180.45361328 943.03955078 C-231.08414495 928.72527618 -279.01491476 904.65725961 -321 873 C-321.60908203 872.54254395 -322.21816406 872.08508789 -322.84570312 871.61376953 C-334.75063553 862.64551896 -346.15106256 853.09754506 -357.42431641 843.35546875 C-358.83146175 842.14498363 -360.24903306 840.94664269 -361.66796875 839.75 C-362.76044922 838.821875 -362.76044922 838.821875 -363.875 837.875 C-364.49117187 837.35679687 -365.10734375 836.83859375 -365.7421875 836.3046875 C-367 835 -367 835 -367 833 C-367.86862923 832.61885544 -367.86862923 832.61885544 -368.75480652 832.23001099 C-371.25141665 830.86226343 -372.91359714 829.33364297 -374.9230957 827.31982422 C-375.68100906 826.56498749 -376.43892242 825.81015076 -377.21980286 825.03244019 C-378.03027573 824.2147818 -378.8407486 823.39712341 -379.67578125 822.5546875 C-380.5191655 821.71084503 -381.36254974 820.86700256 -382.23149109 819.99758911 C-384.01664322 818.20941562 -385.79936398 816.41881206 -387.57983398 814.62597656 C-390.28648825 811.90118604 -393.00093764 809.18436254 -395.71679688 806.46875 C-397.45359525 804.72703129 -399.18993794 802.98485805 -400.92578125 801.2421875 C-402.13238152 800.033918 -402.13238152 800.033918 -403.36335754 798.80123901 C-407.57771771 794.55184099 -411.64634998 790.22979773 -415.54515076 785.68829346 C-417.55191455 783.35952558 -419.65369221 781.12310939 -421.75 778.875 C-427.03209453 773.08147725 -431.83738178 766.97800498 -436.62207031 760.77197266 C-437.94778028 759.06715286 -439.29311971 757.38055628 -440.6484375 755.69921875 C-500.9042465 680.7428119 -535.85435228 582.98814937 -536.203125 486.73046875 C-536.21018463 485.42284073 -536.21724426 484.11521271 -536.22451782 482.76795959 C-536.24401744 478.57446725 -536.24920973 474.38103345 -536.25 470.1875 C-536.25029457 469.47200485 -536.25058914 468.7565097 -536.25089264 468.01933289 C-536.25234212 446.21752052 -536.03811553 424.63531326 -533 403 C-532.85434601 401.94528503 -532.85434601 401.94528503 -532.70574951 400.8692627 C-522.67352108 328.64437963 -496.67023439 259.38614559 -454 200 C-453.42507813 199.19594727 -452.85015625 198.39189453 -452.2578125 197.56347656 C-444.91641214 187.33280237 -437.30718823 177.46285272 -429 168 C-428.36707031 167.2678125 -427.73414063 166.535625 -427.08203125 165.78125 C-422.46316551 160.45422864 -417.7392708 155.21985208 -413 150 C-412.32493408 149.25508301 -412.32493408 149.25508301 -411.63623047 148.49511719 C-402.27767431 138.18816732 -392.77424674 127.88175566 -382.14453125 118.86328125 C-379.83832038 116.85952426 -377.60798253 114.78774708 -375.3762207 112.7019043 C-369.12002185 106.85995137 -362.71441408 101.31557781 -356 96 C-355.3915625 95.50838379 -354.783125 95.01676758 -354.15625 94.51025391 C-303.4441944 53.54194532 -242.6448446 23.41496731 -179 9 C-177.90768066 8.75056641 -176.81536133 8.50113281 -175.68994141 8.24414062 C-157.59122576 4.17023214 -139.43750471 1.0591936 -121 -1 C-119.9579541 -1.11859375 -118.9159082 -1.2371875 -117.84228516 -1.359375 C-79.24908491 -5.48056212 -38.47555609 -5.13949047 0 0 Z " fill="#19969B" transform="translate(576,43)"/>
<path d="M0 0 C1.37468697 -0.00855011 1.37468697 -0.00855011 2.77714539 -0.01727295 C4.71087512 -0.02666691 6.64462047 -0.03323445 8.57836914 -0.03710938 C11.46596118 -0.04672267 14.35281153 -0.07776178 17.24023438 -0.109375 C35.9503418 -0.21636367 53.46315444 2.2236606 71.19921875 8.203125 C71.84246094 8.41275879 72.48570312 8.62239258 73.1484375 8.83837891 C95.78575272 16.29422893 115.13891724 28.89486943 133.19921875 44.203125 C134.29363281 45.11191406 134.29363281 45.11191406 135.41015625 46.0390625 C139.43085394 49.44356131 142.9634849 53.0357578 146.36328125 57.05859375 C148.34958824 59.37876936 150.42833859 61.59488767 152.51171875 63.828125 C174.67437791 88.51183368 187.81621709 119.75035374 193.19921875 152.203125 C193.3178125 152.89132324 193.43640625 153.57952148 193.55859375 154.28857422 C201.37522168 201.29302878 188.80184195 248.70871548 161.94921875 287.44921875 C156.97862685 294.27490656 151.50514799 300.56746707 145.67480469 306.66015625 C144.68332062 307.69691656 143.69704898 308.7386846 142.71582031 309.78515625 C111.04357089 343.48688961 66.18003404 363.02073206 20.0703125 364.49609375 C-7.73522002 364.99219139 -36.55665143 361.74269275 -61.80078125 349.203125 C-62.47705566 348.87505859 -63.15333008 348.54699219 -63.85009766 348.20898438 C-72.79431127 343.83923381 -81.38658695 339.09917901 -89.55078125 333.390625 C-90.16203857 332.96644287 -90.7732959 332.54226074 -91.40307617 332.10522461 C-105.50221968 321.92362753 -117.80010935 309.48506573 -130.015625 297.18359375 C-131.6080022 295.58747495 -133.20083001 293.99180561 -134.79408264 292.39656067 C-138.93627159 288.24682545 -143.07241306 284.09111558 -147.20721436 279.934021 C-151.44757345 275.67300665 -155.69377616 271.41782385 -159.93945312 267.16210938 C-168.2322091 258.84806294 -176.51857174 250.52767665 -184.80078125 242.203125 C-189.80650678 246.39377075 -194.4899862 250.76646994 -199.07446289 255.41088867 C-199.76500763 256.10610626 -200.45555237 256.80132385 -201.16702271 257.51760864 C-202.65651085 259.01754164 -204.14489642 260.51857019 -205.63228035 262.02058983 C-207.99848426 264.40899277 -210.3687839 266.79325905 -212.74034119 269.17634583 C-219.47989917 275.94931587 -226.21541211 282.72626394 -232.94018555 289.51391602 C-237.06544487 293.6771554 -241.19826346 297.83276647 -245.335783 301.98381996 C-246.89843863 303.55444908 -248.45833126 305.12783283 -250.01521492 306.70418358 C-263.14257802 319.99273528 -276.65724811 331.68655093 -292.80078125 341.203125 C-293.47641113 341.6038623 -294.15204102 342.00459961 -294.84814453 342.41748047 C-314.92849991 354.12911566 -336.80515896 361.12965542 -359.80078125 364.203125 C-360.49969482 364.30334961 -361.1986084 364.40357422 -361.91870117 364.50683594 C-406.27956506 370.25855021 -454.75050779 358.87385149 -490.55859375 331.73828125 C-491.64176079 330.89635624 -492.72253834 330.05134713 -493.80078125 329.203125 C-494.82945312 328.39746094 -495.858125 327.59179688 -496.91796875 326.76171875 C-512.13186125 314.49544357 -525.83171364 300.38512809 -536.80078125 284.203125 C-537.51234375 283.16414063 -538.22390625 282.12515625 -538.95703125 281.0546875 C-564.79886152 241.16392569 -572.65059557 191.64912419 -563.80078125 145.203125 C-557.24187128 115.23008822 -544.24576425 88.09641857 -523.80078125 65.203125 C-523.20910156 64.501875 -522.61742187 63.800625 -522.0078125 63.078125 C-512.47082988 51.77503449 -501.73594218 41.90523357 -489.80078125 33.203125 C-489.22666504 32.7793457 -488.65254883 32.35556641 -488.06103516 31.91894531 C-457.69266354 9.75386734 -422.66589364 1.03214847 -385.63891602 0.96289062 C-382.50575259 0.95317915 -379.37324488 0.92207057 -376.24023438 0.890625 C-365.00323393 0.83069493 -354.7222898 1.33264725 -343.80078125 4.203125 C-342.86355225 4.43290039 -341.92632324 4.66267578 -340.96069336 4.89941406 C-298.93542146 15.53198402 -269.44652995 39.35010135 -239.4375 69.46875 C-237.9093037 70.99881661 -236.3808826 72.52865871 -234.85224915 74.05828857 C-230.87338732 78.0409274 -226.89754035 82.02656218 -222.92236328 86.01287842 C-218.84788338 90.09767733 -214.77049085 94.17956673 -210.69335938 98.26171875 C-202.7263506 106.23937964 -194.76253114 114.22021594 -186.80078125 122.203125 C-181.79505572 118.01247925 -177.1115763 113.63978006 -172.52709961 108.99536133 C-171.83655487 108.30014374 -171.14601013 107.60492615 -170.43453979 106.88864136 C-168.94505165 105.38870836 -167.45666608 103.88767981 -165.96928215 102.38566017 C-163.60307824 99.99725723 -161.2327786 97.61299095 -158.86122131 95.22990417 C-152.12166333 88.45693413 -145.38615039 81.67998606 -138.66137695 74.89233398 C-134.53611763 70.7290946 -130.40329904 66.57348353 -126.2657795 62.42243004 C-124.70312387 60.85180092 -123.14323124 59.27841717 -121.58634758 57.70206642 C-89.07405094 24.79055696 -47.46673232 0.23642187 0 0 Z " fill="#FEFEFE" transform="translate(701.80078125,349.796875)"/>
<path d="M0 0 C4.9915957 4.14061119 9.49591889 8.47192638 13.875 13.25 C14.48432373 13.90967773 15.09364746 14.56935547 15.72143555 15.24902344 C17.48532262 17.16206016 19.24329144 19.08037298 21 21 C21.85464844 21.928125 22.70929687 22.85625 23.58984375 23.8125 C28.9533423 29.69443866 34.04679559 35.76993768 39 42 C39.51723633 42.65000977 40.03447266 43.30001953 40.56738281 43.96972656 C49.09175844 54.71999345 57.2848923 65.65347092 65 77 C65.45439453 77.66789551 65.90878906 78.33579102 66.37695312 79.02392578 C77.55555673 95.58675608 87.45062904 113.07772855 96.08496094 131.09619141 C97.0257662 133.05360855 97.98495748 135.00132884 98.9453125 136.94921875 C122.95075097 186.16450038 134.86876729 239.77553178 140 294 C140.10602539 295.11648926 140.21205078 296.23297852 140.32128906 297.38330078 C141.39003534 310.68133909 141.24386667 324.04333293 141.25 337.375 C141.25101212 339.3503624 141.25101212 339.3503624 141.25204468 341.3656311 C141.24457879 361.43427811 140.70192893 381.09720855 138 401 C137.75056641 402.92875977 137.75056641 402.92875977 137.49609375 404.89648438 C125.12840432 499.4883402 82.29042954 585.08823494 16 658 C15.5344873 658.51062988 15.06897461 659.02125977 14.58935547 659.54736328 C6.46570464 668.4540166 -1.68306316 677.27094821 -10.84765625 685.12890625 C-13.38052162 687.33079829 -15.84332522 689.60195826 -18.3125 691.875 C-23.71500055 696.79513443 -29.28986254 701.44257746 -35 706 C-35.77053711 706.6199585 -35.77053711 706.6199585 -36.55664062 707.25244141 C-110.3311758 766.55307292 -198.01407628 800.97342178 -326.80322266 809.31567383 C-329.58691663 809.31106359 -332.37017135 809.31790759 -335.15380859 809.33618164 C-361.49042335 809.50706495 -387.42716445 807.68000648 -413.4375 803.3125 C-414.19318268 803.18816589 -414.94886536 803.06383179 -415.72744751 802.93572998 C-432.06733494 800.22618642 -448.0517249 796.44914452 -464 792 C-465.13969238 791.68305176 -466.27938477 791.36610352 -467.45361328 791.03955078 C-518.08414495 776.72527618 -566.01491476 752.65725961 -608 721 C-608.60908203 720.54254395 -609.21816406 720.08508789 -609.84570312 719.61376953 C-621.75063553 710.64551896 -633.15106256 701.09754506 -644.42431641 691.35546875 C-645.83146175 690.14498363 -647.24903306 688.94664269 -648.66796875 687.75 C-649.76044922 686.821875 -649.76044922 686.821875 -650.875 685.875 C-651.49117187 685.35679687 -652.10734375 684.83859375 -652.7421875 684.3046875 C-654 683 -654 683 -654 681 C-654.87398437 680.61714844 -654.87398437 680.61714844 -655.765625 680.2265625 C-658.21388223 678.88258913 -659.81743248 677.38189704 -661.75 675.375 C-662.36359375 674.74335937 -662.9771875 674.11171875 -663.609375 673.4609375 C-664.06828125 672.97882812 -664.5271875 672.49671875 -665 672 C-660.7906534 672 -659.86040197 673.77278303 -656.875 676.6875 C-650.05549433 683.16433294 -642.67434131 688.7702683 -635.14501953 694.39013672 C-633.1033178 695.92245873 -631.07867245 697.47448664 -629.05859375 699.03515625 C-607.41071263 715.68127201 -583.7002789 730.31554269 -559.02441406 742.02392578 C-556.86144907 743.06680253 -554.72435935 744.15382955 -552.5859375 745.24609375 C-504.7415305 769.3197964 -451.3500934 781.23742452 -398.375 786.8125 C-396.72032715 786.99848755 -396.72032715 786.99848755 -395.03222656 787.18823242 C-385.84332667 788.07158019 -376.68448704 788.0577035 -367.46337891 788.0300293 C-366.0571954 788.02761463 -364.65101148 788.0254232 -363.24482727 788.02346039 C-359.82987445 788.01782999 -356.41494252 788.00994694 -353 788 C-391.43604882 749.54108453 -429.87471494 711.08478669 -468.31691497 672.6320197 C-472.85078132 668.09690257 -477.3846259 663.56176368 -481.91845703 659.02661133 C-482.82109807 658.12370798 -483.72373911 657.22080463 -484.65373291 656.29054057 C-499.28752442 641.65239247 -513.9195495 627.0124799 -528.55092762 612.37191958 C-543.55339606 597.36011429 -558.5577494 582.35019493 -573.56387055 567.34204096 C-582.83052872 558.07400762 -592.09569659 548.80448952 -601.35899021 539.53309333 C-607.70304875 533.18376695 -614.04892981 526.83626598 -620.39627419 520.49022443 C-624.06352858 516.82361336 -627.72994807 513.15617709 -631.39421463 509.4865799 C-634.74391794 506.13203891 -638.09588544 502.77977837 -641.4497266 499.42937451 C-642.66732011 498.21220632 -643.88405513 496.99417867 -645.09987651 495.77524031 C-646.74345603 494.12769 -648.39003844 492.48320253 -650.03745842 490.83949375 C-650.9541033 489.92246915 -651.87074817 489.00544456 -652.81517017 488.06063133 C-654.82341401 485.96814665 -654.82341401 485.96814665 -657 485 C-657 484.34 -657 483.68 -657 483 C-653.29542959 484.31284776 -650.66953407 485.9123564 -647.625 488.375 C-628.54640546 502.49110297 -605.25167668 511.68340166 -582 516 C-580.81325684 516.22429687 -580.81325684 516.22429687 -579.60253906 516.453125 C-548.85322353 522.02426222 -516.5808721 520.24819554 -487 510 C-486.03223633 509.67974854 -486.03223633 509.67974854 -485.04492188 509.35302734 C-470.31263849 504.45567693 -456.53157298 497.32813113 -443.6875 488.625 C-443.11515625 488.23997314 -442.5428125 487.85494629 -441.953125 487.45825195 C-428.05455329 477.69791032 -416.14720844 465.42260755 -404.2265625 453.421875 C-402.56549452 451.75706699 -400.9039771 450.09270729 -399.24203491 448.42877197 C-394.91406699 444.09324546 -390.59214434 439.75174302 -386.27154541 435.40887451 C-381.84359102 430.96029221 -377.40981782 426.51751729 -372.9765625 422.07421875 C-364.31207342 413.38841731 -355.65397341 404.69627776 -347 396 C-342.08344713 400.1213118 -337.463998 404.40457486 -332.95410156 408.96411133 C-332.28799866 409.63328079 -331.62189575 410.30245026 -330.93560791 410.99189758 C-329.5001063 412.43451055 -328.0657347 413.87824869 -326.63239288 415.32300758 C-324.35485392 417.61807768 -322.07366902 419.90946621 -319.79144287 422.19987488 C-313.30651478 428.70912675 -306.82720777 435.22395168 -300.35253906 441.7434082 C-296.3806374 445.74227194 -292.40373132 449.73610365 -288.4238205 453.72699547 C-286.91820444 455.23877082 -285.41448153 456.75243429 -283.91278839 458.26810646 C-275.93771396 466.31674319 -268.01468452 474.10390705 -259 481 C-258.36666245 481.48838348 -257.73332489 481.97676697 -257.08079529 482.47994995 C-239.11662967 496.06980764 -219.50165728 505.4704526 -198 512 C-197.01 512.30808594 -196.02 512.61617187 -195 512.93359375 C-149.14056236 525.79823251 -98.67765899 517.2860305 -57.4765625 494.6015625 C-50.94760436 490.88302786 -44.89741221 486.64617554 -39 482 C-38.47277344 481.5870166 -37.94554687 481.1740332 -37.40234375 480.74853516 C2.17663062 449.37466143 26.05653946 405.90725775 32.55615234 355.93359375 C36.01394387 325.28896386 31.26047696 293.25053437 19.13671875 264.94140625 C18 262 18 262 18 259 C21.12324544 260.38629244 23.24190707 261.99511571 25.64453125 264.4140625 C26.32193359 265.09339844 26.99933594 265.77273438 27.69726562 266.47265625 C28.39529297 267.18292969 29.09332031 267.89320313 29.8125 268.625 C30.49892578 269.31207031 31.18535156 269.99914062 31.89257812 270.70703125 C35.09986997 273.94163211 38.19746166 277.21834572 41.16900635 280.67098999 C44.79000887 284.81539632 48.59485846 288.72971691 52.49584961 292.609375 C53.56539886 293.6791433 53.56539886 293.6791433 54.65655518 294.77052307 C56.98611918 297.09939702 59.31919226 299.42472062 61.65234375 301.75 C63.2792361 303.37502495 64.90590608 305.00027255 66.53236389 306.62573242 C70.79292207 310.88249083 75.05647589 315.13623629 79.32067871 319.38934326 C83.67980574 323.73820132 88.03606788 328.08992708 92.39257812 332.44140625 C100.92559742 340.96373307 109.46178688 349.48287692 118 358 C119.1770426 352.58116536 120.24790345 347.37295161 120.2746582 341.8046875 C120.28404419 340.69269485 120.29343018 339.58070221 120.30310059 338.43501282 C120.30233521 337.26020859 120.30156982 336.08540436 120.30078125 334.875 C120.3091803 333.00276009 120.3091803 333.00276009 120.31774902 331.09269714 C120.32759645 327.75064791 120.32715188 324.40903737 120.31805801 321.06701279 C120.31247037 318.98897982 120.30961537 316.91095485 120.30697632 314.83291626 C120.26864026 294.08395037 119.76809386 273.58937124 117 253 C116.8691803 252.00688812 116.8691803 252.00688812 116.73571777 250.99371338 C110.27449907 202.08777123 96.43527004 155.42632581 75 111 C74.57332031 110.10958008 74.14664063 109.21916016 73.70703125 108.30175781 C60.95603668 81.80911447 45.04307773 57.202776 27 34 C26.07925309 32.80221707 25.15867935 31.60430099 24.23828125 30.40625 C13.5681989 16.51800403 13.5681989 16.51800403 1.65234375 3.7265625 C0 2 0 2 0 0 Z " fill="#14787C" transform="translate(863,195)"/>
<path d="M0 0 C3.17410525 2.56143427 6.13280946 5.29647571 9.07421875 8.12109375 C10.2034375 9.15169922 10.2034375 9.15169922 11.35546875 10.203125 C28.88521003 26.7552461 39.44221207 50.29104803 40.32421875 74.3125 C40.87435265 102.38961058 33.20081199 127.15218418 14.07421875 148.12109375 C13.38972656 148.88679687 12.70523438 149.6525 12 150.44140625 C-4.67705963 168.13573569 -29.10338753 179.59246169 -53.46875 180.421875 C-86.55334334 180.76659671 -110.13976438 170.25675157 -133.7339592 147.36689377 C-138.4409964 142.74193309 -143.09652705 138.0654838 -147.75390625 133.390625 C-149.23869147 131.90396983 -150.72370123 130.41753889 -152.20892334 128.93132019 C-156.07765104 125.05881271 -159.94336375 121.18330964 -163.80841064 117.30712891 C-167.76885956 113.33636711 -171.73221566 109.3685093 -175.6953125 105.40039062 C-183.44161579 97.64343029 -191.18473028 89.8832954 -198.92578125 82.12109375 C-197.28475701 77.91495027 -194.17859594 75.11435405 -191.02661133 72.01074219 C-190.42308838 71.40853348 -189.81956543 70.80632477 -189.19775391 70.18586731 C-187.20149573 68.19609897 -185.19835718 66.2134031 -183.1953125 64.23046875 C-181.80195569 62.84338639 -180.40911548 61.45578492 -179.01676941 60.06768799 C-175.34608551 56.41031214 -171.66988709 52.75853401 -167.99206543 49.1083374 C-162.12236114 43.28171088 -156.25923321 37.44848794 -150.39951134 31.61182404 C-148.35971787 29.58217809 -146.3165012 27.55602689 -144.27290344 25.5302124 C-135.99527428 17.32686614 -135.99527428 17.32686614 -128.23974609 8.63339233 C-96.85433512 -27.48942541 -36.3707357 -27.70157257 0 0 Z " fill="#16797D" transform="translate(773.92578125,450.87890625)"/>
<path d="M0 0 C8.80653578 6.72929631 16.50668476 14.61056138 24.32763672 22.43579102 C25.92542281 24.02646248 27.52350139 25.61684019 29.12185669 27.2069397 C32.4431753 30.51490969 35.75861206 33.82864251 39.0703125 37.14624023 C43.32173807 41.40361443 47.59130852 45.64228346 51.86573601 49.87654686 C55.15817693 53.14322583 58.43916985 56.42121467 61.71692276 59.70262527 C63.28792004 61.27192678 64.86291553 62.83723615 66.44192123 64.39847946 C68.63446594 66.56901847 70.81070843 68.75468052 72.98339844 70.94506836 C73.6398233 71.58822998 74.29624817 72.2313916 74.9725647 72.89404297 C75.55822205 73.49090912 76.14387939 74.08777527 76.74728394 74.70272827 C77.26227385 75.21700567 77.77726376 75.73128307 78.30785942 76.26114464 C79.27294922 77.84985352 79.27294922 77.84985352 79.12867832 79.82444382 C78.11867941 82.21499194 76.93815817 83.56479288 75.10694885 85.40353394 C74.43006516 86.09032227 73.75318146 86.7771106 73.05578613 87.48471069 C72.3083313 88.22766388 71.56087646 88.97061707 70.79077148 89.73608398 C70.0068956 90.52682312 69.22301971 91.31756226 68.41539001 92.13226318 C65.81437974 94.75161479 63.20238619 97.35968445 60.58935547 99.96704102 C58.77591306 101.7850439 56.96284343 103.60341869 55.15013123 105.42214966 C51.34266225 109.23856584 47.52966632 113.04934045 43.71264648 116.85620117 C39.31746754 121.23993943 34.93514466 125.63622681 30.55914265 130.03910148 C26.33564057 134.28755514 22.1009212 138.52463536 17.86170769 142.75741959 C16.06659425 144.55238014 14.27456272 146.35042859 12.4857502 148.15166855 C9.97325309 150.67914448 7.44819659 153.1933996 4.91967773 155.70483398 C4.19044098 156.44373871 3.46120422 157.18264343 2.70986938 157.94393921 C-3.98769152 164.54771073 -11.42896757 169.31223702 -20.28955078 172.53735352 C-21.94083984 173.14063477 -21.94083984 173.14063477 -23.62548828 173.75610352 C-24.64900391 174.11704102 -25.67251953 174.47797852 -26.72705078 174.84985352 C-27.54431641 175.14891602 -28.36158203 175.44797852 -29.20361328 175.75610352 C-52.27733301 183.90936137 -78.85506785 181.22288494 -101.10595703 171.66625977 C-120.06921576 162.5220641 -136.2263131 146.95371967 -146.72705078 128.84985352 C-147.51595703 127.51374023 -147.51595703 127.51374023 -148.32080078 126.15063477 C-159.5898565 105.53861194 -161.05423011 80.56065459 -156.72705078 57.84985352 C-156.55560547 56.87016602 -156.38416016 55.89047852 -156.20751953 54.88110352 C-152.55668884 37.35711619 -141.76746248 22.62654939 -129.72705078 9.84985352 C-129.17533203 9.23368164 -128.62361328 8.61750977 -128.05517578 7.98266602 C-95.06313822 -27.45927532 -37.3375199 -27.81904566 0 0 Z " fill="#15797C" transform="translate(376.72705078125,452.150146484375)"/>
<path d="M0 0 C4.9915957 4.14061119 9.49591889 8.47192638 13.875 13.25 C14.48432373 13.90967773 15.09364746 14.56935547 15.72143555 15.24902344 C17.48532262 17.16206016 19.24329144 19.08037298 21 21 C21.85464844 21.928125 22.70929687 22.85625 23.58984375 23.8125 C28.9533423 29.69443866 34.04679559 35.76993768 39 42 C39.51723633 42.65000977 40.03447266 43.30001953 40.56738281 43.96972656 C49.09175844 54.71999345 57.2848923 65.65347092 65 77 C65.45439453 77.66789551 65.90878906 78.33579102 66.37695312 79.02392578 C77.55555673 95.58675608 87.45062904 113.07772855 96.08496094 131.09619141 C97.0257662 133.05360855 97.98495748 135.00132884 98.9453125 136.94921875 C122.95075097 186.16450038 134.86876729 239.77553178 140 294 C140.10602539 295.11648926 140.21205078 296.23297852 140.32128906 297.38330078 C141.39003534 310.68133909 141.24386667 324.04333293 141.25 337.375 C141.25101212 339.3503624 141.25101212 339.3503624 141.25204468 341.3656311 C141.24457879 361.43427811 140.70192893 381.09720855 138 401 C137.75056641 402.92875977 137.75056641 402.92875977 137.49609375 404.89648438 C125.12840432 499.4883402 82.29042954 585.08823494 16 658 C15.5344873 658.51062988 15.06897461 659.02125977 14.58935547 659.54736328 C6.46570464 668.4540166 -1.68306316 677.27094821 -10.84765625 685.12890625 C-13.38052162 687.33079829 -15.84332522 689.60195826 -18.3125 691.875 C-23.71500055 696.79513443 -29.28986254 701.44257746 -35 706 C-35.77053711 706.6199585 -35.77053711 706.6199585 -36.55664062 707.25244141 C-110.3311758 766.55307292 -198.01407628 800.97342178 -326.80322266 809.31567383 C-329.58691663 809.31106359 -332.37017135 809.31790759 -335.15380859 809.33618164 C-361.49042335 809.50706495 -387.42716445 807.68000648 -413.4375 803.3125 C-414.19318268 803.18816589 -414.94886536 803.06383179 -415.72744751 802.93572998 C-432.06733494 800.22618642 -448.0517249 796.44914452 -464 792 C-465.13969238 791.68305176 -466.27938477 791.36610352 -467.45361328 791.03955078 C-518.08414495 776.72527618 -566.01491476 752.65725961 -608 721 C-608.60908203 720.54254395 -609.21816406 720.08508789 -609.84570312 719.61376953 C-621.75063553 710.64551896 -633.15106256 701.09754506 -644.42431641 691.35546875 C-645.83146175 690.14498363 -647.24903306 688.94664269 -648.66796875 687.75 C-649.76044922 686.821875 -649.76044922 686.821875 -650.875 685.875 C-651.49117187 685.35679687 -652.10734375 684.83859375 -652.7421875 684.3046875 C-654 683 -654 683 -654 681 C-654.87398437 680.61714844 -654.87398437 680.61714844 -655.765625 680.2265625 C-658.21388223 678.88258913 -659.81743248 677.38189704 -661.75 675.375 C-662.36359375 674.74335937 -662.9771875 674.11171875 -663.609375 673.4609375 C-664.06828125 672.97882812 -664.5271875 672.49671875 -665 672 C-660.7906534 672 -659.86040197 673.77278303 -656.875 676.6875 C-650.05549433 683.16433294 -642.67434131 688.7702683 -635.14501953 694.39013672 C-633.1033178 695.92245873 -631.07867245 697.47448664 -629.05859375 699.03515625 C-607.41071263 715.68127201 -583.7002789 730.31554269 -559.02441406 742.02392578 C-556.86144907 743.06680253 -554.72435935 744.15382955 -552.5859375 745.24609375 C-514.41453674 764.45266373 -472.27972264 775.92911955 -430.25 782.6875 C-428.50734863 782.97306763 -428.50734863 782.97306763 -426.72949219 783.2644043 C-402.05599615 787.04725576 -377.47264649 788.56149924 -352.54525375 788.44662857 C-350.39455483 788.43731401 -348.24388559 788.43295164 -346.09317017 788.42929077 C-323.53278415 788.3758808 -301.32217392 787.42926792 -279 784 C-277.70078613 783.80744629 -276.40157227 783.61489258 -275.06298828 783.41650391 C-250.17613591 779.6594649 -225.80785321 774.17842026 -202 766 C-200.91992676 765.63390625 -199.83985352 765.2678125 -198.72705078 764.890625 C-176.11754459 757.19267992 -154.13196791 748.15784375 -133 737 C-132.27135742 736.61972656 -131.54271484 736.23945312 -130.79199219 735.84765625 C-109.46310264 724.66048837 -89.20910384 711.51684017 -70 697 C-69.38125 696.53287598 -68.7625 696.06575195 -68.125 695.58447266 C-55.00991029 685.61742845 -42.67342227 674.71048878 -30.61572266 663.49804688 C-28.80594118 661.82007481 -26.98696487 660.15235161 -25.16796875 658.484375 C-16.47608153 650.50350367 -16.47608153 650.50350367 -8.53515625 641.7890625 C-6.78544174 639.74995501 -4.91603896 637.88331723 -3 636 C0.88030325 632.16421266 4.46046038 628.14956048 8 624 C8.77730469 623.11183594 9.55460938 622.22367188 10.35546875 621.30859375 C18.77611568 611.61609485 26.41731667 601.35418586 34 591 C34.53802246 590.2673291 35.07604492 589.5346582 35.63037109 588.77978516 C70.6102257 540.91436963 96.60346663 485.06382629 109 427 C109.2170459 425.98921387 109.4340918 424.97842773 109.65771484 423.93701172 C112.28423786 411.48556086 114.40556047 398.97417224 116.1875 386.375 C116.34234863 385.29387939 116.49719727 384.21275879 116.65673828 383.09887695 C119.57545432 361.46893618 120.37420926 339.93507996 120.3125 318.125 C120.31057549 316.77129121 120.30873508 315.4175823 120.30697632 314.06387329 C120.26829344 293.56413502 119.73423039 273.33749123 117 253 C116.8691803 252.00688812 116.8691803 252.00688812 116.73571777 250.99371338 C110.27449907 202.08777123 96.43527004 155.42632581 75 111 C74.57332031 110.10958008 74.14664063 109.21916016 73.70703125 108.30175781 C60.95603668 81.80911447 45.04307773 57.202776 27 34 C26.07925309 32.80221707 25.15867935 31.60430099 24.23828125 30.40625 C13.5681989 16.51800403 13.5681989 16.51800403 1.65234375 3.7265625 C0 2 0 2 0 0 Z " fill="#000000" transform="translate(863,195)"/>
<path d="M0 0 C3.91453957 3.01745758 6.4282195 5.5971585 8 10.3125 C8.1529647 12.82304905 8.25695178 15.31138525 8.31640625 17.82421875 C8.33718735 18.55244339 8.35796844 19.28066803 8.37937927 20.03096008 C8.44468746 22.35387875 8.50367237 24.67690906 8.5625 27 C8.60570305 28.57618335 8.64931792 30.15235548 8.69335938 31.72851562 C8.8003496 35.58972975 8.90166961 39.45105603 9 43.3125 C9.8470752 43.32708252 10.69415039 43.34166504 11.56689453 43.35668945 C14.73181934 43.41801177 17.89611504 43.49221352 21.06054688 43.57495117 C22.4259925 43.60805386 23.79157013 43.63613086 25.15722656 43.65893555 C27.12853224 43.69274991 29.09946191 43.74658286 31.0703125 43.80078125 C32.84559326 43.84005737 32.84559326 43.84005737 34.65673828 43.88012695 C39.93325581 44.56252162 43.09655084 46.36798497 46.75 50.1875 C50.50392383 55.40128309 51.93211108 59.84747316 51 66.3125 C49.36291665 71.83506599 46.29414383 75.70199372 41.66601562 79.05517578 C36.02996912 81.71320138 29.61759524 81.2018673 23.5 81.1875 C22.09110876 81.20565414 20.68224913 81.22646533 19.2734375 81.25 C15.84835808 81.2969189 12.42533381 81.31695675 9 81.3125 C8.9906543 82.31104004 8.98130859 83.30958008 8.97167969 84.33837891 C8.93164255 88.06245642 8.86584734 91.78571967 8.79248047 95.50927734 C8.76434995 97.11724341 8.74309611 98.72534572 8.72900391 100.33349609 C8.70746309 102.65272367 8.66076128 104.97032695 8.609375 107.2890625 C8.60814636 108.00180328 8.60691772 108.71454407 8.60565186 109.44888306 C8.43583141 115.30734164 6.41353128 118.90456856 2.31640625 122.9921875 C-3.71735637 127.10428407 -9.87960528 127.56433997 -17 126.3125 C-22.76806751 123.68003305 -25.54132697 120.09367017 -28 114.3125 C-28.31166518 111.63791648 -28.48699924 109.18044103 -28.51171875 106.5078125 C-28.52966995 105.7838327 -28.54762115 105.05985291 -28.56611633 104.31393433 C-28.61991138 102.02184723 -28.65401402 99.72996459 -28.6875 97.4375 C-28.72070049 95.87497173 -28.75519266 94.31247034 -28.79101562 92.75 C-28.87561923 88.93764831 -28.94257559 85.125354 -29 81.3125 C-30.09465576 81.29791748 -31.18931152 81.28333496 -32.31713867 81.26831055 C-36.38956905 81.21021261 -40.46145315 81.13298073 -44.53344727 81.05004883 C-46.29377355 81.01685346 -48.05420488 80.98880476 -49.81469727 80.96606445 C-52.34957525 80.9324188 -54.88349523 80.8800994 -57.41796875 80.82421875 C-58.20149216 80.81782883 -58.98501556 80.8114389 -59.7922821 80.80485535 C-66.0714122 80.63698426 -69.13163236 79.007066 -73.6875 74.875 C-78.1655542 69.91283183 -78.50317836 65.92851572 -78.375 59.359375 C-77.81668358 54.82305409 -76.2911033 51.49510539 -73 48.3125 C-67.57098685 44.6441075 -63.70988251 43.71343338 -57.22265625 43.703125 C-56.41130722 43.68658875 -55.59995819 43.67005249 -54.76402283 43.65301514 C-52.19676954 43.60479916 -49.63010737 43.583224 -47.0625 43.5625 C-45.31181964 43.53431808 -43.5611665 43.50438756 -41.81054688 43.47265625 C-37.54041332 43.39904794 -33.27060284 43.34931281 -29 43.3125 C-29.00169189 41.83040039 -29.00169189 41.83040039 -29.00341797 40.31835938 C-28.9997214 36.62019746 -28.95670001 32.92332136 -28.90234375 29.22558594 C-28.88427784 27.63126967 -28.87659807 26.03679805 -28.87988281 24.44238281 C-28.89990131 8.44760136 -28.89990131 8.44760136 -23.53808594 2.64257812 C-17.25041254 -2.7947623 -7.51182955 -3.99116645 0 0 Z " fill="#FEFEFE" transform="translate(726,471.6875)"/>
<path d="M0 0 C1.00400345 -0.00686325 2.0080069 -0.0137265 3.04243469 -0.02079773 C6.35273483 -0.03906032 9.6625608 -0.03522889 12.97290039 -0.02954102 C15.27926284 -0.03410304 17.58562392 -0.03940867 19.89198303 -0.04542542 C24.72296678 -0.05435546 29.55378521 -0.05193445 34.38476562 -0.04199219 C40.56981286 -0.03050243 46.75428919 -0.05071522 52.93926144 -0.07990932 C57.70141717 -0.0982718 62.46343611 -0.09797872 67.22561836 -0.0922718 C69.505741 -0.0921186 71.78587292 -0.09816227 74.06596184 -0.11056328 C77.25657654 -0.12547191 80.44613662 -0.11479626 83.63671875 -0.09765625 C84.57460236 -0.10732422 85.51248596 -0.11699219 86.47879028 -0.12695312 C92.46939886 -0.05970327 95.96808762 0.92571518 100.88305664 4.40405273 C106.0994136 10.03222735 106.24334589 14.80217855 106.15258789 22.23608398 C105.7950562 26.43837671 104.86925572 28.41785365 101.88305664 31.40405273 C95.92399111 36.21646227 90.99278939 37.13534704 83.46313477 37.06689453 C81.9444706 37.08244637 81.9444706 37.08244637 80.39512634 37.09831238 C77.06776724 37.12528837 73.74173481 37.11574072 70.41430664 37.10327148 C68.0907759 37.10918374 65.76724822 37.11643186 63.44372559 37.12495422 C58.58170663 37.13681811 53.72014595 37.13015295 48.8581543 37.11083984 C42.63710629 37.08794852 36.41742372 37.11474551 30.19651031 37.15590191 C25.40080536 37.18151285 20.60542572 37.178891 15.80967712 37.1680088 C13.5164211 37.16652502 11.22313979 37.17417842 8.9299469 37.19125938 C5.7201219 37.21128951 2.51269421 37.19279034 -0.69702148 37.16455078 C-1.63751846 37.17826721 -2.57801544 37.19198364 -3.54701233 37.20611572 C-10.31271068 37.08754246 -14.27105297 35.11804041 -19.11694336 30.40405273 C-22.798498 25.68706086 -22.73630889 20.40115781 -22.59741211 14.60717773 C-21.86916632 9.75220581 -19.86611409 6.53607602 -16.11694336 3.40405273 C-10.73380611 -0.00350007 -6.16521621 -0.02952804 0 0 Z " fill="#FEFEFE" transform="translate(284.116943359375,513.595947265625)"/>
<path d="M0 0 C2.93879484 1.35236577 5.29232911 2.89942659 7.75 5 C8.67039063 5.7734375 8.67039063 5.7734375 9.609375 6.5625 C11 8 11 8 11 10 C7.81326038 8.59698853 5.67778594 6.92234929 3.25 4.4375 C2.63640625 3.81746094 2.0228125 3.19742188 1.390625 2.55859375 C0 1 0 1 0 0 Z " fill="#010B0B" transform="translate(198,866)"/>
</svg>
