<?xml version="1.0" encoding="UTF-8"?>
<svg version="1.1" xmlns="http://www.w3.org/2000/svg" width="800" height="800">
<path d="M0 0 C25.08 0 50.16 0 76 0 C76 41.25 76 82.5 76 125 C96.79 125 117.58 125 139 125 C139.33 146.12 139.66 167.24 140 189 C150.76625 188.87625 150.76625 188.87625 161.75 188.75 C163.96944336 188.73420898 166.18888672 188.71841797 168.47558594 188.70214844 C191.40548142 188.39690062 212.69187622 184.00496093 233 173 C232.62246582 172.26233398 232.62246582 172.26233398 232.23730469 171.50976562 C226.6810435 160.53984208 222.26458322 150.10999687 220 138 C219.77570313 136.81470703 219.77570313 136.81470703 219.546875 135.60546875 C219.22504001 133.39073589 219.08752449 131.237126 219 129 C218.93683594 127.79472656 218.87367188 126.58945312 218.80859375 125.34765625 C218.51639138 117.16502244 219.19524704 109.52118124 220.875 101.5 C221.04862061 100.66871582 221.22224121 99.83743164 221.40112305 98.98095703 C221.85865646 96.96865533 222.42022525 94.98054442 223 93 C223.66 92.67 224.32 92.34 225 92 C225.6575685 90.25185719 225.6575685 90.25185719 226.1875 88.125 C229.15244702 78.75338353 235.33741262 71.06760789 242 64 C243.88979042 65.40575691 245.77518355 66.81695169 247.65625 68.234375 C249.1721581 69.3763591 250.69271039 70.51221543 252.21875 71.640625 C272.42607145 86.86726863 284.58033964 107.50456142 290 132 C293.23288791 132 295.37431093 131.75332862 298.43359375 131.0234375 C324.3031299 125.672426 348.60251292 132.16994342 371 145 C369.24672814 156.78113164 360.08679175 165.90197659 352 174 C351.195625 174.81597656 350.39125 175.63195312 349.5625 176.47265625 C344.29036269 181.5280116 333.84685617 191 326 191 C325.67 191.99 325.34 192.98 325 194 C324.01 194 323.02 194 322 194 C320.31201173 195.43750191 320.31201173 195.43750191 319 197 C318.01 196.67 317.02 196.34 316 196 C314.65022151 196.63270867 313.31647119 197.30062468 312 198 C311.01 198 310.02 198 309 198 C308.67 198.66 308.34 199.32 308 200 C306.68 199.67 305.36 199.34 304 199 C303.67 199.66 303.34 200.32 303 201 C300.36 200.67 297.72 200.34 295 200 C294.67 200.66 294.34 201.32 294 202 C290.37 202 286.74 202 283 202 C282.67 201.34 282.34 200.68 282 200 C279.67843403 199.59270772 277.3431213 199.25561323 275 199 C274.649375 200.155 274.29875 201.31 273.9375 202.5 C269.71517841 215.06831241 263.81597989 226.66953992 257 238 C277.17688812 240.20219723 298.46715229 238.05436415 316 227 C319.51669183 224.17276486 322.80318333 221.18267146 326 218 C327.14189372 220.28378744 327.13066503 221.77663188 327.25 224.3125 C327.61990231 227.86356218 327.90597941 228.87911639 330.1875 231.8125 C335.24137128 235.74328877 339.8161974 238.53267582 345.9375 240.5 C346.57631104 240.7064917 347.21512207 240.9129834 347.87329102 241.12573242 C354.84480285 243.34073283 361.91150906 245.20022712 369 247 C368.67 247.66 368.34 248.32 368 249 C367.34 248.67 366.68 248.34 366 248 C366 248.66 366 249.32 366 250 C365.4095414 249.99409222 364.81908279 249.98818443 364.21073151 249.98209763 C349.82075942 249.84226532 335.43157822 249.76908312 321.0409317 249.76940536 C314.08136998 249.7679663 307.12323456 249.74425681 300.1640625 249.66748047 C293.44605515 249.59342807 286.73061665 249.58228674 280.01213074 249.60929108 C277.45085622 249.60934682 274.8894915 249.58841562 272.3285675 249.5460434 C259.81142903 248.70850507 259.81142903 248.70850507 248.1727047 252.16686058 C245.02383486 255.28010546 243.55054705 258.93402916 242 263 C240.91928269 264.63319099 239.79753257 266.24103399 238.61328125 267.80078125 C238.07509766 268.54175049 237.53691406 269.28271973 236.98242188 270.04614258 C226.84515346 283.80407572 215.91446484 296.24887826 203.875 308.375 C202.96878906 309.29063721 202.06257812 310.20627441 201.12890625 311.1496582 C195.06039225 317.1890811 188.72674899 322.70682047 182 328 C181.32050293 328.53882813 180.64100586 329.07765625 179.94091797 329.6328125 C170.04385034 337.39768079 159.65586811 344.26163964 148.92822266 350.82080078 C147.30266929 351.81490343 145.68723142 352.82551936 144.07421875 353.83984375 C142 355 142 355 140 355 C139.67 355.99 139.34 356.98 139 358 C138.01 358 137.02 358 136 358 C134.22228892 358.74171422 132.47391753 359.55476796 130.74609375 360.40625 C129.21758789 361.15068359 129.21758789 361.15068359 127.65820312 361.91015625 C126.59537109 362.43480469 125.53253906 362.95945312 124.4375 363.5 C122.33373525 364.53472175 120.22834531 365.56614791 118.12109375 366.59375 C117.1870874 367.05458984 116.25308105 367.51542969 115.29077148 367.99023438 C113 369 113 369 111 369 C110.67 369.99 110.34 370.98 110 372 C108.68 372 107.36 372 106 372 C103.85505639 372.6080676 103.85505639 372.6080676 101.6640625 373.49609375 C100.84679687 373.80740234 100.02953125 374.11871094 99.1875 374.43945312 C98.341875 374.76880859 97.49625 375.09816406 96.625 375.4375 C86.52443518 379.36118095 86.52443518 379.36118095 81 380 C81 380.99 81 381.98 81 383 C79.02 382.67 77.04 382.34 75 382 C74.67 382.66 74.34 383.32 74 384 C72.3125 384.4921875 72.3125 384.4921875 70 384.875 C64.94955274 385.8012829 59.94324662 386.85975554 54.9375 388 C54.17501953 388.16612793 53.41253906 388.33225586 52.62695312 388.50341797 C50.73534585 388.93787248 48.86474653 389.46180934 47 390 C46.67 390.66 46.34 391.32 46 392 C44.68 391.67 43.36 391.34 42 391 C41.67 391.66 41.34 392.32 41 393 C39.35 392.67 37.7 392.34 36 392 C36 392.66 36 393.32 36 394 C35.01 394 34.02 394 33 394 C33 393.34 33 392.68 33 392 C32.608125 392.515625 32.21625 393.03125 31.8125 393.5625 C31.214375 394.036875 30.61625 394.51125 30 395 C27.3125 394.6875 27.3125 394.6875 25 394 C24.67 394.66 24.34 395.32 24 396 C22.68 396 21.36 396 20 396 C20 395.34 20 394.68 20 394 C19.608125 394.495 19.21625 394.99 18.8125 395.5 C17 397 17 397 14.5 397.25 C12 397 12 397 9 396 C6.77424514 396.01991035 6.77424514 396.01991035 4.4375 396.3125 C3.65246094 396.39113281 2.86742187 396.46976563 2.05859375 396.55078125 C-0.21224962 396.85218638 -0.21224962 396.85218638 -2 399 C-5.693507 399.20146402 -8.47940432 399.17353189 -12 398 C-12.99 398 -13.98 398 -15 398 C-15.33 398.66 -15.66 399.32 -16 400 C-20.04165139 400.02915731 -24.0832755 400.04685173 -28.125 400.0625 C-29.26710938 400.07087891 -30.40921875 400.07925781 -31.5859375 400.08789062 C-32.69453125 400.09111328 -33.803125 400.09433594 -34.9453125 400.09765625 C-36.46922607 400.10551147 -36.46922607 400.10551147 -38.02392578 400.11352539 C-41.08937847 399.99659057 -43.97945267 399.51236161 -47 399 C-49.05396726 399.40929986 -49.05396726 399.40929986 -51 400 C-53.6875 400.125 -53.6875 400.125 -56 400 C-56.33 399.67 -56.66 399.34 -57 399 C-59.5 398.83333333 -59.5 398.83333333 -62 399 C-62.33 399.33 -62.66 399.66 -63 400 C-64.51928038 400.07179964 -66.04167482 400.08392007 -67.5625 400.0625 C-68.38878906 400.05347656 -69.21507812 400.04445313 -70.06640625 400.03515625 C-70.70449219 400.02355469 -71.34257812 400.01195312 -72 400 C-72.33 399.34 -72.66 398.68 -73 398 C-74.670625 398.309375 -74.670625 398.309375 -76.375 398.625 C-77.57125 398.74875 -78.7675 398.8725 -80 399 C-80.66 398.34 -81.32 397.68 -82 397 C-82.763125 397.185625 -83.52625 397.37125 -84.3125 397.5625 C-87.86298351 398.14048569 -88.99059666 396.80564201 -92 395 C-94.74239143 395.21329449 -94.74239143 395.21329449 -97 396 C-97 395.01 -97 394.02 -97 393 C-98.14726562 392.88914062 -99.29453125 392.77828125 -100.4765625 392.6640625 C-104.98643583 392.10157059 -109.08680511 390.83926167 -113.375 389.375 C-115.90968718 388.51017025 -118.41872731 387.72653671 -121 387 C-121.66 387.33 -122.32 387.66 -123 388 C-123 387.01 -123 386.02 -123 385 C-123.96486328 384.86851562 -123.96486328 384.86851562 -124.94921875 384.734375 C-129.13733108 383.72622504 -132.89157976 382.01133824 -136.8125 380.25 C-137.96588867 379.74726562 -137.96588867 379.74726562 -139.14257812 379.234375 C-143.85289993 377.1355987 -148.12512322 374.76893672 -152.37768555 371.84667969 C-152.91304932 371.56727539 -153.44841309 371.28787109 -154 371 C-154.66 371.33 -155.32 371.66 -156 372 C-156 371.01 -156 370.02 -156 369 C-157.32 369 -158.64 369 -160 369 C-160.99 367.515 -160.99 367.515 -162 366 C-162.66 366.33 -163.32 366.66 -164 367 C-165.43622684 365.56377316 -166.86213385 364.11719856 -168.28125 362.6640625 C-170.92151335 360.0769079 -173.63883214 357.71376361 -176.5 355.375 C-177.4178125 354.61960937 -178.335625 353.86421875 -179.28125 353.0859375 C-181.77254988 351.17450914 -184.30323018 349.59774377 -187 348 C-189.23948697 345.76051303 -191.2362273 343.37501033 -193.26953125 340.94921875 C-194.57613591 339.4774451 -195.94788666 338.06315362 -197.34765625 336.6796875 C-200.27540832 333.72175242 -202.95422852 330.62555003 -205.625 327.4375 C-206.10195312 326.87353516 -206.57890625 326.30957031 -207.0703125 325.72851562 C-214 317.49951172 -214 317.49951172 -214 315 C-214.66 315 -215.32 315 -216 315 C-217 313.33333333 -218 311.66666667 -219 310 C-219.66 310 -220.32 310 -221 310 C-221.09152344 309.31550781 -221.18304688 308.63101562 -221.27734375 307.92578125 C-221.99304796 305.02814637 -223.10485141 302.70345252 -224.52636719 300.09179688 C-228.57400043 292.65269714 -231.58329094 285.0319267 -234.25 277 C-234.72481812 275.57917114 -234.72481812 275.57917114 -235.20922852 274.12963867 C-237.89966804 265.81149078 -239.86640288 257.53438848 -242 249 C-270.71 248.67 -299.42 248.34 -329 248 C-326.77138938 245.77138938 -325.8494499 245.55402366 -322.8515625 244.88671875 C-322.01633057 244.69327881 -321.18109863 244.49983887 -320.32055664 244.30053711 C-319.43102295 244.09823486 -318.54148926 243.89593262 -317.625 243.6875 C-302.75461693 240.13514685 -302.75461693 240.13514685 -290 232 C-287.85007783 228.39120208 -286.61057543 225.15191293 -286 221 C-286.66 220.67 -287.32 220.34 -288 220 C-287.34 219.34 -286.68 218.68 -286 218 C-285.41605469 218.65355469 -285.41605469 218.65355469 -284.8203125 219.3203125 C-273.42764527 231.44799052 -259.04685366 235.32552439 -243 238 C-243.66 228.76 -244.32 219.52 -245 210 C-244.34 210 -243.68 210 -243 210 C-243.33 208.68 -243.66 207.36 -244 206 C-243.34 200.39 -242.68 194.78 -242 189 C-224.51 188.67 -207.02 188.34 -189 188 C-189.01160156 183.70355469 -189.02320313 179.40710938 -189.03515625 174.98046875 C-189.04158652 171.55620605 -189.04700958 168.13194505 -189.05175018 164.70767975 C-189.05703234 161.09213552 -189.06409204 157.4766147 -189.07543945 153.86108398 C-189.086299 150.37923767 -189.09228336 146.89741408 -189.09487724 143.41555214 C-189.0976261 141.43964005 -189.10543327 139.4637371 -189.11329651 137.48783875 C-189.11337204 136.28682022 -189.11344757 135.0858017 -189.11352539 133.84838867 C-189.115746 132.78915695 -189.11796661 131.72992523 -189.12025452 130.63859558 C-189 128 -189 128 -188 125 C-167.54 124.67 -147.08 124.34 -126 124 C-126.33 122.35 -126.66 120.7 -127 119 C-127.088296 117.13472849 -127.12785171 115.26677359 -127.12939453 113.39941406 C-127.13254669 112.30187805 -127.13569885 111.20434204 -127.13894653 110.07354736 C-127.13591019 108.31237579 -127.13591019 108.31237579 -127.1328125 106.515625 C-127.13376923 105.30428894 -127.13472595 104.09295288 -127.13571167 102.84490967 C-127.13639131 100.28967232 -127.13455209 97.73443323 -127.13037109 95.17919922 C-127.12500128 91.25093761 -127.13033294 87.32278939 -127.13671875 83.39453125 C-127.13605829 80.91406225 -127.13477781 78.43359331 -127.1328125 75.953125 C-127.13483673 74.7709137 -127.13686096 73.58870239 -127.13894653 72.3706665 C-127.13421829 70.74327545 -127.13421829 70.74327545 -127.12939453 69.08300781 C-127.12859894 68.12324036 -127.12780334 67.1634729 -127.12698364 66.17462158 C-127 64 -127 64 -126 63 C-124.36776544 62.90394136 -122.7313561 62.87812179 -121.09629822 62.87974548 C-120.03474014 62.87837082 -118.97318207 62.87699615 -117.87945557 62.87557983 C-116.1175589 62.88097275 -116.1175589 62.88097275 -114.32006836 62.88647461 C-113.09097244 62.88632858 -111.86187653 62.88618256 -110.59553528 62.8860321 C-107.21551328 62.88661108 -103.83555171 62.89164036 -100.45554042 62.89860606 C-96.92678806 62.90484012 -93.39803497 62.90544344 -89.86927795 62.90663147 C-83.18276881 62.90974463 -76.49627594 62.91795782 -69.80977398 62.92798096 C-60.7773445 62.94122794 -51.7449106 62.94664213 -42.71247387 62.95248318 C-28.47497038 62.96189772 -14.23750124 62.98181673 0 63 C0 42.21 0 21.42 0 0 Z M286 200 C290 201 290 201 290 201 Z M251 248 C251 248.33 251 248.66 251 249 C288.62 249 326.24 249 365 249 C365 248.67 365 248.34 365 248 C327.38 248 289.76 248 251 248 Z M-41 398 C-41 398.33 -41 398.66 -41 399 C-39.02 399 -37.04 399 -35 399 C-35 398.67 -35 398.34 -35 398 C-36.98 398 -38.96 398 -41 398 Z M-28 398 C-28 398.33 -28 398.66 -28 399 C-24.7 399 -21.4 399 -18 399 C-18 398.67 -18 398.34 -18 398 C-21.3 398 -24.6 398 -28 398 Z " fill="#394D54" transform="translate(379,201)"/>
<path d="M0 0 C154.44 0 308.88 0 468 0 C463.49764347 9.00471306 463.49764347 9.00471306 461.30078125 11.89453125 C460.81859131 12.53422852 460.33640137 13.17392578 459.83959961 13.83300781 C459.33565674 14.48624023 458.83171387 15.13947266 458.3125 15.8125 C457.78213135 16.50827148 457.2517627 17.20404297 456.70532227 17.92089844 C441.87463763 37.28374012 425.37388822 56.05204314 406 71 C404.53046875 72.17755859 404.53046875 72.17755859 403.03125 73.37890625 C348.28814372 116.93996715 275.01872424 138.80160412 205.546875 139.23828125 C204.28901184 139.246353 203.03114868 139.25442474 201.73516846 139.26274109 C199.08284926 139.27649436 196.43065038 139.28753301 193.77832031 139.29516602 C191.11382941 139.30395413 188.45060319 139.32698576 185.78613281 139.35668945 C131.91067739 139.95508276 84.61367279 123.10108423 44.32421875 87.2734375 C41.65447346 84.66202278 39.37456354 81.88197416 37 79 C37.63130829 78.99413376 38.26261658 78.98826752 38.91305542 78.98222351 C45.63240127 78.91705038 52.35132112 78.83235934 59.0703125 78.73754883 C61.56016331 78.70479604 64.05007957 78.67661963 66.54003906 78.65356445 C88.51040623 78.44487261 110.58224271 77.53770496 131.9375 71.9375 C132.98744141 71.68162109 134.03738281 71.42574219 135.11914062 71.16210938 C140.83994404 69.75422763 140.83994404 69.75422763 146 67 C146.33343551 64.45792029 146.33343551 64.45792029 146 62 C145.67 61.67 145.34 61.34 145 61 C139.33886056 61.29795471 134.09272265 62.43414487 128.625 63.875 C122.6010791 65.44546082 116.58462717 66.70080021 110.4375 67.6875 C109.36072998 67.86611572 109.36072998 67.86611572 108.26220703 68.04833984 C95.60359368 69.99215085 82.82641666 70.16475078 70.04907227 70.13037109 C67.69996623 70.12502835 65.35105331 70.13034665 63.00195312 70.13671875 C55.04565716 70.14231659 47.09413962 70.01282401 39.14453125 69.6796875 C38.40015305 69.65770294 37.65577484 69.63571838 36.88883972 69.61306763 C32.46949691 69.39263963 29.51835014 68.72235977 26 66 C24.39558649 63.77916909 23.0287715 61.68019909 21.6875 59.3125 C21.11056396 58.31500732 21.11056396 58.31500732 20.52197266 57.29736328 C19.32843544 55.20855071 18.16071154 53.10720606 17 51 C16.64470215 50.36336426 16.2894043 49.72672852 15.92333984 49.07080078 C7.97007865 34.65153449 0 16.71346854 0 0 Z " fill="#039CC7" transform="translate(149,449)"/>
<path d="M0 0 C15.56653 6.79917402 25.86386388 24.71394046 31.875 39.8125 C35.57124332 50.15451413 36.25972313 59.04834147 36 70 C37.01578125 69.59007812 38.0315625 69.18015625 39.078125 68.7578125 C60.38059336 60.33257828 82.11530219 59.45905405 104 66.4375 C104.6482373 66.64270264 105.29647461 66.84790527 105.96435547 67.05932617 C109.30917184 68.18914063 111.77639224 69.19596522 114 72 C104.16286788 89.1356495 88.64044738 101.02897846 69.61328125 106.2890625 C55.00217644 109.84191473 39.95578545 109.81935953 25 110 C24.32517578 111.78277344 24.32517578 111.78277344 23.63671875 113.6015625 C19.91970953 123.24415308 15.87797617 132.6315283 11.25 141.875 C10.79069092 142.79490723 10.33138184 143.71481445 9.8581543 144.66259766 C7.49019009 149.32273744 5.01624902 153.72932965 2 158 C-9.58095242 157.71816266 -19.19601993 152.81801848 -29 147 C-29.33 147.99 -29.66 148.98 -30 150 C-49.22018768 166.28377012 -83.04590912 164.46509766 -106.25195312 162.76123047 C-124.08935089 161.00696922 -146.50104281 158.19669433 -160.4140625 146.13671875 C-162.08118654 144.70871849 -162.08118654 144.70871849 -165 145 C-166.66755955 146.17077787 -168.28603861 147.41208737 -169.875 148.6875 C-188.1578377 162.27382893 -215.51778868 165.41884884 -237.67822266 162.66748047 C-243.19890551 161.75877375 -248.60505694 160.47334898 -254 159 C-255.73056641 158.53207031 -255.73056641 158.53207031 -257.49609375 158.0546875 C-267.58074743 154.99717466 -275.78613356 149.4701406 -284 143 C-284.24363281 143.59941406 -284.48726562 144.19882812 -284.73828125 144.81640625 C-289.11603083 152.39275924 -300.95245501 155.25228205 -308.89794922 157.47265625 C-314.67437859 158.92179533 -320.56609948 159.81553246 -326.46020508 160.63549805 C-328.35130897 160.90690227 -330.23873492 161.20418069 -332.1237793 161.51489258 C-341.00650958 162.92304609 -349.70279257 163.3615527 -358.6875 163.3125 C-359.38455048 163.31067719 -360.08160095 163.30885437 -360.79977417 163.30697632 C-379.055328 163.22688636 -400.90055127 162.30295344 -415.77734375 150.33203125 C-417 149 -417 149 -417 147 C-418.50626953 147.79664063 -418.50626953 147.79664063 -420.04296875 148.609375 C-437.89326716 157.89908492 -454.85609638 161.62087374 -475 161 C-476.05261471 154.12458804 -476.14956553 147.38544991 -476.125 140.4375 C-476.12886719 139.33986328 -476.13273438 138.24222656 -476.13671875 137.11132812 C-476.13478516 135.50741211 -476.13478516 135.50741211 -476.1328125 133.87109375 C-476.13168457 132.91130615 -476.13055664 131.95151855 -476.12939453 130.96264648 C-475.9822964 127.5946544 -475.49460195 124.33295561 -475 121 C-474.12197993 120.99902319 -473.24395986 120.99804638 -472.33933312 120.99703997 C-420.26483163 120.93872864 -368.19037174 120.86490213 -316.11592162 120.77101372 C-309.85893818 120.75974597 -303.60195452 120.74860745 -297.3449707 120.73754883 C-296.09935301 120.73534514 -294.85373531 120.73314146 -293.57037162 120.730871 C-273.41923322 120.69552857 -253.26809486 120.6706472 -233.11693699 120.64965298 C-212.42969313 120.6278666 -191.74248939 120.59478923 -171.05527967 120.55129844 C-158.29707371 120.52483064 -145.5389177 120.5070994 -132.78068566 120.50065396 C-124.02394185 120.49538517 -115.26726082 120.47911823 -106.51055069 120.45433434 C-101.46347497 120.44037041 -96.4165115 120.43112937 -91.36941528 120.43499184 C-86.73805486 120.43842847 -82.10693323 120.42788686 -77.47562163 120.40676448 C-75.81046625 120.40154166 -74.14528576 120.40121356 -72.48013092 120.40660437 C-47.89493559 120.47801725 -24.95963597 114.35211692 -3.4375 102.375 C-2.74591797 101.99053711 -2.05433594 101.60607422 -1.34179688 101.20996094 C1.82878786 99.40156499 4.50207054 97.65354749 7 95 C5.7625 93.700625 5.7625 93.700625 4.5 92.375 C-8.49915245 77.09637532 -13.62988668 57.50024777 -13.3203125 37.6875 C-12.12230356 23.89578731 -6.84356233 11.86404453 0 0 Z " fill="#26B8EA" transform="translate(622,280)"/>
<path d="M0 0 C2.69128921 0.05033856 5.38270669 0.08687039 8.07421875 0.12304688 C14.63441586 0.22169587 21.1918659 0.37184316 27.75 0.5625 C23.65323853 9.0336812 23.65323853 9.0336812 21.05078125 12.45703125 C20.56859131 13.09672852 20.08640137 13.73642578 19.58959961 14.39550781 C19.08565674 15.04874023 18.58171387 15.70197266 18.0625 16.375 C17.53213135 17.07077148 17.0017627 17.76654297 16.45532227 18.48339844 C1.62463763 37.84624012 -14.87611178 56.61454314 -34.25 71.5625 C-35.2296875 72.34753906 -36.209375 73.13257813 -37.21875 73.94140625 C-89.34344062 115.41889952 -155.62311901 134.73446476 -221.25 139.5625 C-223.1371875 139.71525391 -223.1371875 139.71525391 -225.0625 139.87109375 C-234.00647079 140.23279845 -239.71956468 138.27138123 -247.25 133.5625 C-247.82331055 133.21396973 -248.39662109 132.86543945 -248.98730469 132.50634766 C-264.02962603 123.30393882 -277.82682783 111.88623556 -288.25 97.5625 C-288.25 96.9025 -288.25 96.2425 -288.25 95.5625 C-287.21520508 95.58344727 -286.18041016 95.60439453 -285.11425781 95.62597656 C-263.44872851 96.02432407 -242.59037314 95.7985348 -221.25 91.5625 C-220.08871582 91.3370752 -218.92743164 91.11165039 -217.73095703 90.87939453 C-184.82761152 84.30943006 -153.56139856 72.77863904 -123.25 58.5625 C-122.21713867 58.0792627 -121.18427734 57.59602539 -120.12011719 57.09814453 C-105.33900708 50.10949277 -91.24790947 41.99451311 -77.25 33.5625 C-76.11739746 32.88405029 -76.11739746 32.88405029 -74.96191406 32.19189453 C-65.0992673 26.25994564 -55.63583425 19.78729849 -46.234375 13.15234375 C-45.41227539 12.59200439 -44.59017578 12.03166504 -43.74316406 11.4543457 C-41.16693538 9.61146136 -41.16693538 9.61146136 -38.99902344 7.14526367 C-28.47867454 -3.17105298 -13.69118368 -0.39943086 0 0 Z " fill="#078CB8" transform="translate(589.25,448.4375)"/>
<path d="M0 0 C0.60585938 1.14855469 1.21171875 2.29710937 1.8359375 3.48046875 C7.153275 13.40130647 12.74996633 22.37455801 20 31 C20.73992187 31.89203125 21.47984375 32.7840625 22.2421875 33.703125 C34.31238247 47.70626934 50.26531716 58.33383244 67 66 C67 66.33 67 66.66 67 67 C16.39251974 67.83616833 16.39251974 67.83616833 -3 63 C-3.91990723 62.78569336 -4.83981445 62.57138672 -5.78759766 62.35058594 C-41.0631402 54.06677198 -77.65885178 35.32882126 -101 7 C-100.36869171 6.99413376 -99.73738342 6.98826752 -99.08694458 6.98222351 C-92.36759873 6.91705038 -85.64867888 6.83235934 -78.9296875 6.73754883 C-76.43983669 6.70479604 -73.94992043 6.67661963 -71.45996094 6.65356445 C-50.44823496 6.45397854 -29.20683071 5.72193263 -8.734375 0.55078125 C-5.7614854 -0.04804365 -3.02472569 -0.09396337 0 0 Z " fill="#BFDAE0" transform="translate(287,521)"/>
<path d="M0 0 C0.6482373 0.20520264 1.29647461 0.41040527 1.96435547 0.62182617 C5.30917184 1.75164063 7.77639224 2.75846522 10 5.5625 C0.16286788 22.6981495 -15.35955262 34.59147846 -34.38671875 39.8515625 C-48.99782356 43.40441473 -64.04421455 43.38185953 -79 43.5625 C-79.44988281 44.75101562 -79.89976562 45.93953125 -80.36328125 47.1640625 C-84.08029047 56.80665308 -88.12202383 66.1940283 -92.75 75.4375 C-93.20930908 76.35740723 -93.66861816 77.27731445 -94.1418457 78.22509766 C-96.50980991 82.88523744 -98.98375098 87.29182965 -102 91.5625 C-113.58095242 91.28066266 -123.19601993 86.38051848 -133 80.5625 C-133.33 81.5525 -133.66 82.5425 -134 83.5625 C-138.80672284 87.20148791 -143.87107477 90.23992499 -150 90.5625 C-146.31919082 86.83388811 -142.54239436 83.23528625 -138.6875 79.6875 C-137.89182617 78.95080078 -137.89182617 78.95080078 -137.08007812 78.19921875 C-134.17349442 75.51889606 -131.23139975 72.89137188 -128.23730469 70.30908203 C-124.26517886 66.83738442 -120.48672836 63.21037124 -116.75390625 59.484375 C-116.0984935 58.83229065 -115.44308075 58.1802063 -114.76780701 57.50836182 C-113.39264954 56.13822761 -112.01880745 54.76677202 -110.64624023 53.39404297 C-108.57620785 51.32619339 -106.49830327 49.26648475 -104.41992188 47.20703125 C-97.87472033 40.68894082 -91.55887733 34.18070667 -85.86108398 26.8972168 C-83.84391054 24.36668687 -81.70130404 21.99623014 -79.5 19.625 C-76.16916665 16.03618472 -73.51099916 12.33017064 -70.8125 8.25 C-65.75448474 1.38555072 -60.11252129 -0.53556445 -52 -2.4375 C-51.06671875 -2.67855469 -50.1334375 -2.91960937 -49.171875 -3.16796875 C-32.89354222 -6.63292816 -15.69164981 -5.00364826 0 0 Z " fill="#00A9D9" transform="translate(726,346.4375)"/>
<path d="M0 0 C18.15 0 36.3 0 55 0 C55 18.15 55 36.3 55 55 C36.85 55 18.7 55 0 55 C0 36.85 0 18.7 0 0 Z " fill="#25C1EE" transform="translate(390,337)"/>
<path d="M0 0 C18.15 0 36.3 0 55 0 C55 18.15 55 36.3 55 55 C36.85 55 18.7 55 0 55 C0 36.85 0 18.7 0 0 Z " fill="#01AAD1" transform="translate(327,337)"/>
<path d="M0 0 C18.15 0 36.3 0 55 0 C55 18.15 55 36.3 55 55 C36.85 55 18.7 55 0 55 C0 36.85 0 18.7 0 0 Z " fill="#26BFEB" transform="translate(264,337)"/>
<path d="M0 0 C18.15 0 36.3 0 55 0 C55 18.15 55 36.3 55 55 C36.85 55 18.7 55 0 55 C0 36.85 0 18.7 0 0 Z " fill="#26BFEB" transform="translate(327,274)"/>
<path d="M0 0 C17.82 0 35.64 0 54 0 C54 18.15 54 36.3 54 55 C36.18 55 18.36 55 0 55 C0 36.85 0 18.7 0 0 Z " fill="#00ABD2" transform="translate(453,337)"/>
<path d="M0 0 C17.82 0 35.64 0 54 0 C54 18.15 54 36.3 54 55 C36.18 55 18.36 55 0 55 C0 36.85 0 18.7 0 0 Z " fill="#00ABD2" transform="translate(202,337)"/>
<path d="M0 0 C18.15 0 36.3 0 55 0 C55 17.82 55 35.64 55 54 C36.85 54 18.7 54 0 54 C0 36.18 0 18.36 0 0 Z " fill="#00ABD2" transform="translate(264,275)"/>
<path d="M0 0 C17.82 0 35.64 0 54 0 C54 17.82 54 35.64 54 54 C36.18 54 18.36 54 0 54 C0 36.18 0 18.36 0 0 Z " fill="#00ACD3" transform="translate(390,275)"/>
<path d="M0 0 C17.82 0 35.64 0 54 0 C54 17.82 54 35.64 54 54 C36.18 54 18.36 54 0 54 C0 36.18 0 18.36 0 0 Z " fill="#25C2EE" transform="translate(390,212)"/>
<path d="M0 0 C8.91 0 17.82 0 27 0 C27.804375 2.619375 28.60875 5.23875 29.4375 7.9375 C35.45657182 26.49332672 45.63764051 41.86580747 59 56 C59.63164062 56.67289062 60.26328125 57.34578125 60.9140625 58.0390625 C64.3618656 61.60837408 67.8145251 64.3457964 72 67 C72 67.33 72 67.66 72 68 C66.25304405 68.21744827 60.50588744 68.41422814 54.75756836 68.59204102 C52.80294979 68.65539639 50.8485044 68.72435652 48.89428711 68.79907227 C46.08213831 68.9056093 43.26997899 68.99184901 40.45703125 69.07421875 C39.58601273 69.11157639 38.7149942 69.14893402 37.81758118 69.18742371 C33.02242036 69.30575698 29.86669123 69.18346499 26 66 C24.39558649 63.77916909 23.0287715 61.68019909 21.6875 59.3125 C21.11056396 58.31500732 21.11056396 58.31500732 20.52197266 57.29736328 C19.32843544 55.20855071 18.16071154 53.10720606 17 51 C16.64470215 50.36336426 16.2894043 49.72672852 15.92333984 49.07080078 C7.97007865 34.65153449 0 16.71346854 0 0 Z " fill="#078BB8" transform="translate(149,449)"/>
<path d="M0 0 C7.92 0 15.84 0 24 0 C23.95875 2.041875 23.9175 4.08375 23.875 6.1875 C23.78108967 16.17864241 24.922119 26.07976808 26 36 C27.485 36.495 27.485 36.495 29 37 C19.27088552 38.39879438 9.85816251 39.30384747 0 39 C-1.05697301 32.10450942 -1.14953634 25.34332067 -1.125 18.375 C-1.12886719 17.26898438 -1.13273438 16.16296875 -1.13671875 15.0234375 C-1.13542969 13.9509375 -1.13414062 12.8784375 -1.1328125 11.7734375 C-1.13112061 10.32590088 -1.13112061 10.32590088 -1.12939453 8.84912109 C-1 6 -1 6 0 0 Z " fill="#00AAD9" transform="translate(147,402)"/>
<path d="M0 0 C0.28721924 0.52432617 0.57443848 1.04865234 0.87036133 1.58886719 C2.18124163 3.97766458 3.49681992 6.36384308 4.8125 8.75 C5.26431641 9.575 5.71613281 10.4 6.18164062 11.25 C6.84389648 12.44882812 6.84389648 12.44882812 7.51953125 13.671875 C7.92276611 14.4050293 8.32600098 15.13818359 8.74145508 15.89355469 C10.03013814 18.05044265 11.45854195 20.01784556 13 22 C12.67 22.66 12.34 23.32 12 24 C-6.521261 21.88651804 -23.55736787 18.41172326 -40.82470703 11.32104492 C-46.27551174 9.13251067 -51.08134156 8.09546223 -57 8 C-57 7.67 -57 7.34 -57 7 C-55.95247559 6.89453857 -54.90495117 6.78907715 -53.82568359 6.68041992 C-49.86994023 6.28005762 -45.9153228 5.86935331 -41.9609375 5.45581055 C-40.26232645 5.27956682 -38.56343714 5.1059807 -36.86425781 4.93530273 C-27.40520387 3.9832551 -18.21509092 2.84715572 -8.96728516 0.5793457 C-5.90525939 -0.01849757 -3.11167871 -0.10139831 0 0 Z " fill="#D3ECF0" transform="translate(287,521)"/>
<path d="M0 0 C4.80047807 1.69428638 8.75629622 4.32325034 11 9 C11.96850196 13.76240815 11.97613305 17.99925048 9.8203125 22.41796875 C7.15746713 26.20527991 4.69825206 29.08326789 0 30 C-5.56253761 30.73467478 -8.79682085 29.52402034 -13.265625 26.40625 C-16.4689918 23.80892557 -17.79529377 21.7692467 -18.2734375 17.63671875 C-18.46582996 12.64191449 -18.36544429 8.9456933 -15 5 C-10.012545 0.62077122 -6.65828796 -0.67205149 0 0 Z " fill="#D2EAEE" transform="translate(319,480)"/>
<path d="M0 0 C18.15 0 36.3 0 55 0 C55 18.15 55 36.3 55 55 C36.85 55 18.7 55 0 55 C0 54.34 0 53.68 0 53 C17.49 53 34.98 53 53 53 C53 36.17 53 19.34 53 2 C35.51 2 18.02 2 0 2 C0 1.34 0 0.68 0 0 Z " fill="#25B0D8" transform="translate(390,337)"/>
<path d="M0 0 C0 0.66 0 1.32 0 2 C-0.66 2 -1.32 2 -2 2 C-1.34 3.98 -0.68 5.96 0 8 C2.31 8 4.62 8 7 8 C7.32470459 12.13998349 7.4304413 14.33999001 5.125 17.875 C2.14352873 20.85647127 0.31201742 21.23343842 -3.8125 21.4375 C-7.88804985 21.37851954 -8.76281166 21.18500691 -12.125 18.5625 C-14.29483579 15.26091533 -14.84511199 12.10603394 -14.61328125 8.19140625 C-13.65738658 4.77575716 -11.82546807 3.09532125 -9.0234375 1.01953125 C-5.96422187 -0.52188821 -3.34099511 -0.40910144 0 0 Z " fill="#384D54" transform="translate(319,484)"/>
<path d="M0 0 C0.33 0.99 0.66 1.98 1 3 C-0.52069039 4.52069039 -2.21702744 4.44553508 -4.3125 4.8125 C-8.3401875 5.69475536 -10.60671092 6.45793216 -13 10 C-13.74259349 12.31029085 -14.411438 14.645752 -15 17 C-15.62469505 18.35350594 -16.2716331 19.69934483 -17 21 C-18.63930993 19.36069007 -18.21001367 17.50256326 -18.25 15.25 C-18.19512233 10.96954175 -17.86013771 8.3532649 -15 5 C-9.60679343 0.26450155 -6.96937095 -0.11240921 0 0 Z " fill="#DAEFF2" transform="translate(319,480)"/>
<path d="M0 0 C27.72 0 55.44 0 84 0 C83.67 0.99 83.34 1.98 83 3 C82.505 2.505 82.505 2.505 82 2 C79.44500691 1.87497358 76.91569358 1.81395823 74.35913086 1.79467773 C73.55919205 1.78477814 72.75925323 1.77487854 71.93507385 1.76467896 C69.27836108 1.73297082 66.6216304 1.70826992 63.96484375 1.68359375 C62.12780785 1.66303225 60.29077676 1.642036 58.45375061 1.62062073 C53.60895682 1.56531696 48.76411975 1.51594445 43.91925049 1.46777344 C38.97933075 1.41761889 34.03947417 1.36190134 29.09960938 1.30664062 C19.39979349 1.19895754 9.69992286 1.09753527 0 1 C0 0.67 0 0.34 0 0 Z " fill="#3A4F56" transform="translate(53,450)"/>
<path d="M0 0 C24.75 0 49.5 0 75 0 C75 0.33 75 0.66 75 1 C50.25 1 25.5 1 0 1 C0 0.67 0 0.34 0 0 Z " fill="#3A4F56" transform="translate(380,199)"/>
<path d="M0 0 C0.33 0 0.66 0 1 0 C1 20.46 1 40.92 1 62 C0.67 62 0.34 62 0 62 C0 41.54 0 21.08 0 0 Z " fill="#3A4F56" transform="translate(519,327)"/>
<path d="M0 0 C20.13 0 40.26 0 61 0 C61 0.33 61 0.66 61 1 C40.87 1 20.74 1 0 1 C0 0.67 0 0.34 0 0 Z " fill="#3A4F56" transform="translate(456,324)"/>
<path d="M0 0 C20.13 0 40.26 0 61 0 C61 0.33 61 0.66 61 1 C40.87 1 20.74 1 0 1 C0 0.67 0 0.34 0 0 Z " fill="#3A4F56" transform="translate(191,324)"/>
<path d="M0 0 C0.33 0 0.66 0 1 0 C1 20.13 1 40.26 1 61 C0.67 61 0.34 61 0 61 C0 40.87 0 20.74 0 0 Z " fill="#3A4F56" transform="translate(377,201)"/>
<path d="M0 0 C17.16 0 34.32 0 52 0 C52 0.33 52 0.66 52 1 C34.84 1 17.68 1 0 1 C0 0.67 0 0.34 0 0 Z " fill="#3A4F56" transform="translate(138,388)"/>
<path d="M0 0 C0.33 1.32 0.66 2.64 1 4 C1.66 3.34 2.32 2.68 3 2 C2.43628586 5.26954202 1.50037734 6.82575883 -1 9 C-1 8.34 -1 7.68 -1 7 C-1.99 6.67 -2.98 6.34 -4 6 C-2.68 4.02 -1.36 2.04 0 0 Z " fill="#DFF3F5" transform="translate(326,497)"/>
<path d="M0 0 C0.99 0.33 1.98 0.66 3 1 C3.33 4.3 3.66 7.6 4 11 C3.34 11 2.68 11 2 11 C-0.32590854 7.36576791 -0.16265833 4.22911669 0 0 Z " fill="#CAE3E7" transform="translate(302,492)"/>
<path d="M0 0 C2.31 0 4.62 0 7 0 C7 0.66 7 1.32 7 2 C6.34 2 5.68 2 5 2 C5.33 3.98 5.66 5.96 6 8 C5.34 7.67 4.68 7.34 4 7 C4 5.35 4 3.7 4 2 C2.68 2 1.36 2 0 2 C0 1.34 0 0.68 0 0 Z " fill="#3F555C" transform="translate(312,484)"/>
<path d="M0 0 C0.33 0 0.66 0 1 0 C1 4.62 1 9.24 1 14 C0.67 14 0.34 14 0 14 C0 9.38 0 4.76 0 0 Z " fill="#3A4F56" transform="translate(133,412)"/>
<path d="M0 0 C3.96 0 7.92 0 12 0 C12 0.33 12 0.66 12 1 C8.04 1 4.08 1 0 1 C0 0.67 0 0.34 0 0 Z " fill="#3A4F56" transform="translate(550,388)"/>
<path d="M0 0 C0.33 0 0.66 0 1 0 C1 3.96 1 7.92 1 12 C0.67 12 0.34 12 0 12 C0 8.04 0 4.08 0 0 Z " fill="#3A4F56" transform="translate(596,317)"/>
<path d="M0 0 C0.33 0 0.66 0 1 0 C1 1.98 1 3.96 1 6 C-0.65 6 -2.3 6 -4 6 C-2.68 5.67 -1.36 5.34 0 5 C0 3.35 0 1.7 0 0 Z " fill="#3A4F56" transform="translate(134,432)"/>
<path d="M0 0 C2.64 0 5.28 0 8 0 C8 0.33 8 0.66 8 1 C5.36 1 2.72 1 0 1 C0 0.67 0 0.34 0 0 Z " fill="#3A4F56" transform="translate(653,438)"/>
<path d="M0 0 C0.33 0 0.66 0 1 0 C1 2.31 1 4.62 1 7 C0.67 7 0.34 7 0 7 C0 4.69 0 2.38 0 0 Z " fill="#3A4F56" transform="translate(134,399)"/>
<path d="M0 0 C2.31 0 4.62 0 7 0 C7 0.33 7 0.66 7 1 C4.69 1 2.38 1 0 1 C0 0.67 0 0.34 0 0 Z " fill="#3A4F56" transform="translate(703,329)"/>
<path d="M0 0 C1.98 0 3.96 0 6 0 C6 0.33 6 0.66 6 1 C4.02 1 2.04 1 0 1 C0 0.67 0 0.34 0 0 Z " fill="#3A4F56" transform="translate(381,598)"/>
<path d="M0 0 C1.32 0.66 2.64 1.32 4 2 C2.35 2 0.7 2 -1 2 C-0.67 1.34 -0.34 0.68 0 0 Z " fill="#3A4F56" transform="translate(638,437)"/>
<path d="M0 0 C0.33 0 0.66 0 1 0 C1 1.98 1 3.96 1 6 C0.67 6 0.34 6 0 6 C0 4.02 0 2.04 0 0 Z " fill="#3A4F56" transform="translate(597,333)"/>
<path d="M0 0 C1.98 0 3.96 0 6 0 C6 0.33 6 0.66 6 1 C4.02 1 2.04 1 0 1 C0 0.67 0 0.34 0 0 Z " fill="#3A4F56" transform="translate(684,329)"/>
<path d="M0 0 C4 1 4 1 4 1 Z " fill="#3A4F56" transform="translate(664,437)"/>
<path d="M0 0 C4 1 4 1 4 1 Z " fill="#3A4F56" transform="translate(566,387)"/>
<path d="M0 0 C1 4 1 4 1 4 Z " fill="#3A4F56" transform="translate(598,341)"/>
<path d="M0 0 C1 4 1 4 1 4 Z " fill="#3A4F56" transform="translate(597,309)"/>
<path d="M0 0 C3 1 3 1 3 1 Z " fill="#3A4F56" transform="translate(287,597)"/>
<path d="M0 0 C3 1 3 1 3 1 Z " fill="#3A4F56" transform="translate(278,595)"/>
<path d="M0 0 C3 1 3 1 3 1 Z " fill="#3A4F56" transform="translate(274,594)"/>
<path d="M0 0 C3 1 3 1 3 1 Z " fill="#3A4F56" transform="translate(427,591)"/>
<path d="M0 0 C3 1 3 1 3 1 Z " fill="#3A4F56" transform="translate(440,588)"/>
<path d="M0 0 C0.99 0.495 0.99 0.495 2 1 C1.01 1.495 1.01 1.495 0 2 C0 1.34 0 0.68 0 0 Z " fill="#3A4F56" transform="translate(584,508)"/>
<path d="M0 0 C0.99 0.495 0.99 0.495 2 1 C1.01 1.495 1.01 1.495 0 2 C0 1.34 0 0.68 0 0 Z " fill="#3A4F56" transform="translate(586,506)"/>
<path d="" fill="#3A4F56" transform="translate(0,0)"/>
<path d="" fill="#3A4F56" transform="translate(0,0)"/>
<path d="" fill="#3A4F56" transform="translate(0,0)"/>
<path d="M0 0 C3 1 3 1 3 1 Z " fill="#3A4F56" transform="translate(669,436)"/>
<path d="M0 0 C3 1 3 1 3 1 Z " fill="#3A4F56" transform="translate(126,436)"/>
<path d="" fill="#3A4F56" transform="translate(0,0)"/>
<path d="" fill="#3A4F56" transform="translate(0,0)"/>
<path d="M0 0 C3 1 3 1 3 1 Z " fill="#3A4F56" transform="translate(572,386)"/>
<path d="M0 0 C3 1 3 1 3 1 Z " fill="#3A4F56" transform="translate(577,385)"/>
<path d="M0 0 C3 1 3 1 3 1 Z " fill="#3A4F56" transform="translate(585,383)"/>
<path d="M0 0 C0.66 0.66 1.32 1.32 2 2 C1.34 2 0.68 2 0 2 C0 1.34 0 0.68 0 0 Z " fill="#3A4F56" transform="translate(610,372)"/>
<path d="" fill="#3A4F56" transform="translate(0,0)"/>
<path d="M0 0 C3 1 3 1 3 1 Z " fill="#3A4F56" transform="translate(717,331)"/>
<path d="M0 0 C3 1 3 1 3 1 Z " fill="#3A4F56" transform="translate(673,331)"/>
<path d="M0 0 C3 1 3 1 3 1 Z " fill="#3A4F56" transform="translate(713,330)"/>
<path d="M0 0 C3 1 3 1 3 1 Z " fill="#3A4F56" transform="translate(678,330)"/>
<path d="" fill="#3A4F56" transform="translate(0,0)"/>
<path d="M0 0 C2 1 2 1 2 1 Z " fill="#3A4F56" transform="translate(271,593)"/>
<path d="M0 0 C2 1 2 1 2 1 Z " fill="#3A4F56" transform="translate(267,592)"/>
<path d="M0 0 C2 1 2 1 2 1 Z " fill="#3A4F56" transform="translate(264,591)"/>
<path d="M0 0 C2 1 2 1 2 1 Z " fill="#3A4F56" transform="translate(432,590)"/>
<path d="M0 0 C2 1 2 1 2 1 Z " fill="#3A4F56" transform="translate(261,590)"/>
<path d="M0 0 C2 1 2 1 2 1 Z " fill="#3A4F56" transform="translate(436,589)"/>
<path d="M0 0 C2 1 2 1 2 1 Z " fill="#3A4F56" transform="translate(258,589)"/>
<path d="M0 0 C2 1 2 1 2 1 Z " fill="#3A4F56" transform="translate(444,587)"/>
<path d="M0 0 C2 1 2 1 2 1 Z " fill="#3A4F56" transform="translate(253,587)"/>
<path d="M0 0 C2 1 2 1 2 1 Z " fill="#3A4F56" transform="translate(448,586)"/>
<path d="M0 0 C2 1 2 1 2 1 Z " fill="#3A4F56" transform="translate(451,585)"/>
<path d="M0 0 C2 1 2 1 2 1 Z " fill="#3A4F56" transform="translate(248,585)"/>
<path d="M0 0 C2 1 2 1 2 1 Z " fill="#3A4F56" transform="translate(455,584)"/>
<path d="M0 0 C2 1 2 1 2 1 Z " fill="#3A4F56" transform="translate(461,582)"/>
<path d="M0 0 C2 1 2 1 2 1 Z " fill="#3A4F56" transform="translate(464,581)"/>
<path d="M0 0 C2 1 2 1 2 1 Z " fill="#3A4F56" transform="translate(467,580)"/>
<path d="M0 0 C2 1 2 1 2 1 Z " fill="#3A4F56" transform="translate(470,579)"/>
<path d="M0 0 C2 1 2 1 2 1 Z " fill="#3A4F56" transform="translate(235,579)"/>
<path d="M0 0 C2 1 2 1 2 1 Z " fill="#3A4F56" transform="translate(473,578)"/>
<path d="M0 0 C2 1 2 1 2 1 Z " fill="#3A4F56" transform="translate(481,575)"/>
<path d="M0 0 C2 1 2 1 2 1 Z " fill="#3A4F56" transform="translate(486,573)"/>
<path d="M0 0 C2 1 2 1 2 1 Z " fill="#3A4F56" transform="translate(493,570)"/>
<path d="M0 0 C2 1 2 1 2 1 Z " fill="#3A4F56" transform="translate(501,566)"/>
<path d="" fill="#3A4F56" transform="translate(0,0)"/>
<path d="" fill="#3A4F56" transform="translate(0,0)"/>
<path d="" fill="#3A4F56" transform="translate(0,0)"/>
<path d="" fill="#3A4F56" transform="translate(0,0)"/>
<path d="" fill="#3A4F56" transform="translate(0,0)"/>
<path d="" fill="#3A4F56" transform="translate(0,0)"/>
<path d="" fill="#3A4F56" transform="translate(0,0)"/>
<path d="" fill="#3A4F56" transform="translate(0,0)"/>
<path d="" fill="#3A4F56" transform="translate(0,0)"/>
<path d="" fill="#3A4F56" transform="translate(0,0)"/>
<path d="M0 0 C2 1 2 1 2 1 Z " fill="#3A4F56" transform="translate(742,445)"/>
<path d="M0 0 C2 1 2 1 2 1 Z " fill="#3A4F56" transform="translate(54,445)"/>
<path d="M0 0 C2 1 2 1 2 1 Z " fill="#3A4F56" transform="translate(738,444)"/>
<path d="M0 0 C2 1 2 1 2 1 Z " fill="#3A4F56" transform="translate(58,444)"/>
<path d="M0 0 C2 1 2 1 2 1 Z " fill="#3A4F56" transform="translate(734,443)"/>
<path d="M0 0 C2 1 2 1 2 1 Z " fill="#3A4F56" transform="translate(62,443)"/>
<path d="M0 0 C2 1 2 1 2 1 Z " fill="#3A4F56" transform="translate(730,442)"/>
<path d="M0 0 C2 1 2 1 2 1 Z " fill="#3A4F56" transform="translate(66,442)"/>
<path d="M0 0 C2 1 2 1 2 1 Z " fill="#3A4F56" transform="translate(727,441)"/>
<path d="M0 0 C2 1 2 1 2 1 Z " fill="#3A4F56" transform="translate(69,441)"/>
<path d="M0 0 C2 1 2 1 2 1 Z " fill="#3A4F56" transform="translate(724,440)"/>
<path d="M0 0 C2 1 2 1 2 1 Z " fill="#3A4F56" transform="translate(72,440)"/>
<path d="M0 0 C2 1 2 1 2 1 Z " fill="#3A4F56" transform="translate(721,439)"/>
<path d="M0 0 C2 1 2 1 2 1 Z " fill="#3A4F56" transform="translate(75,439)"/>
<path d="M0 0 C2 1 2 1 2 1 Z " fill="#3A4F56" transform="translate(674,435)"/>
<path d="M0 0 C2 1 2 1 2 1 Z " fill="#3A4F56" transform="translate(122,435)"/>
<path d="M0 0 C2 1 2 1 2 1 Z " fill="#3A4F56" transform="translate(677,434)"/>
<path d="M0 0 C2 1 2 1 2 1 Z " fill="#3A4F56" transform="translate(119,434)"/>
<path d="M0 0 C2 1 2 1 2 1 Z " fill="#3A4F56" transform="translate(680,433)"/>
<path d="M0 0 C2 1 2 1 2 1 Z " fill="#3A4F56" transform="translate(116,433)"/>
<path d="" fill="#3A4F56" transform="translate(0,0)"/>
<path d="" fill="#3A4F56" transform="translate(0,0)"/>
<path d="" fill="#3A4F56" transform="translate(0,0)"/>
<path d="" fill="#3A4F56" transform="translate(0,0)"/>
<path d="M0 0 C2 1 2 1 2 1 Z " fill="#394E55" transform="translate(655,401)"/>
<path d="M0 0 C2 1 2 1 2 1 Z " fill="#3A4F56" transform="translate(693,398)"/>
<path d="M0 0 C2 1 2 1 2 1 Z " fill="#3A4F56" transform="translate(701,395)"/>
<path d="M0 0 C2 1 2 1 2 1 Z " fill="#3A4F56" transform="translate(582,384)"/>
<path d="M0 0 C2 1 2 1 2 1 Z " fill="#3A4F56" transform="translate(589,382)"/>
<path d="M0 0 C2 1 2 1 2 1 Z " fill="#3A4F56" transform="translate(592,381)"/>
<path d="M0 0 C2 1 2 1 2 1 Z " fill="#3A4F56" transform="translate(595,380)"/>
<path d="M0 0 C2 1 2 1 2 1 Z " fill="#3A4F56" transform="translate(600,378)"/>
<path d="" fill="#3A4F56" transform="translate(0,0)"/>
<path d="" fill="#3A4F56" transform="translate(0,0)"/>
<path d="" fill="#3A4F56" transform="translate(0,0)"/>
<path d="" fill="#3A4F56" transform="translate(0,0)"/>
<path d="M0 0 C2 1 2 1 2 1 Z " fill="#3A4F56" transform="translate(728,334)"/>
<path d="M0 0 C2 1 2 1 2 1 Z " fill="#3A4F56" transform="translate(725,333)"/>
<path d="M0 0 C2 1 2 1 2 1 Z " fill="#3A4F56" transform="translate(722,332)"/>
<path d="M0 0 C2 1 2 1 2 1 Z " fill="#3A4F56" transform="translate(670,332)"/>
<path d="" fill="#3A4F56" transform="translate(0,0)"/>
<path d="" fill="#3A4F56" transform="translate(0,0)"/>
<path d="" fill="#3A4F56" transform="translate(0,0)"/>
<path d="" fill="#3A4F56" transform="translate(0,0)"/>
<path d="" fill="#3A4F56" transform="translate(0,0)"/>
<path d="" fill="#3A4F56" transform="translate(0,0)"/>
<path d="" fill="#3A4F56" transform="translate(0,0)"/>
<path d="" fill="#3A4F56" transform="translate(0,0)"/>
<path d="" fill="#3A4F56" transform="translate(0,0)"/>
<path d="" fill="#3A4F56" transform="translate(0,0)"/>
<path d="" fill="#3A4F56" transform="translate(0,0)"/>
<path d="" fill="#3A4F56" transform="translate(0,0)"/>
<path d="" fill="#3A4F56" transform="translate(0,0)"/>
<path d="" fill="#3A4F56" transform="translate(0,0)"/>
<path d="" fill="#3A4F56" transform="translate(0,0)"/>
<path d="" fill="#3A4F56" transform="translate(0,0)"/>
<path d="" fill="#3A4F56" transform="translate(0,0)"/>
<path d="" fill="#3A4F56" transform="translate(0,0)"/>
<path d="" fill="#3A4F56" transform="translate(0,0)"/>
<path d="" fill="#3A4F56" transform="translate(0,0)"/>
<path d="" fill="#3A4F56" transform="translate(0,0)"/>
<path d="" fill="#3A4F56" transform="translate(0,0)"/>
<path d="" fill="#3A4F56" transform="translate(0,0)"/>
<path d="" fill="#3A4F56" transform="translate(0,0)"/>
<path d="" fill="#3A4F56" transform="translate(0,0)"/>
<path d="" fill="#3A4F56" transform="translate(0,0)"/>
<path d="" fill="#3A4F56" transform="translate(0,0)"/>
<path d="" fill="#3A4F56" transform="translate(0,0)"/>
<path d="" fill="#3A4F56" transform="translate(0,0)"/>
<path d="" fill="#3A4F56" transform="translate(0,0)"/>
<path d="" fill="#3A4F56" transform="translate(0,0)"/>
<path d="" fill="#3A4F56" transform="translate(0,0)"/>
<path d="" fill="#3A4F56" transform="translate(0,0)"/>
<path d="" fill="#3A4F56" transform="translate(0,0)"/>
<path d="" fill="#3A4F56" transform="translate(0,0)"/>
<path d="" fill="#3A4F56" transform="translate(0,0)"/>
<path d="" fill="#3A4F56" transform="translate(0,0)"/>
<path d="" fill="#3A4F56" transform="translate(0,0)"/>
<path d="" fill="#3A4F56" transform="translate(0,0)"/>
<path d="" fill="#3A4F56" transform="translate(0,0)"/>
<path d="" fill="#3A4F56" transform="translate(0,0)"/>
<path d="" fill="#3A4F56" transform="translate(0,0)"/>
<path d="" fill="#3A4F56" transform="translate(0,0)"/>
<path d="" fill="#3A4F56" transform="translate(0,0)"/>
<path d="" fill="#3A4F56" transform="translate(0,0)"/>
<path d="" fill="#3A4F56" transform="translate(0,0)"/>
<path d="" fill="#3A4F56" transform="translate(0,0)"/>
<path d="" fill="#3A4F56" transform="translate(0,0)"/>
<path d="" fill="#3A4F56" transform="translate(0,0)"/>
<path d="" fill="#3A4F56" transform="translate(0,0)"/>
<path d="" fill="#3A4F56" transform="translate(0,0)"/>
<path d="" fill="#3A4F56" transform="translate(0,0)"/>
<path d="" fill="#3A4F56" transform="translate(0,0)"/>
<path d="" fill="#3A4F56" transform="translate(0,0)"/>
<path d="" fill="#3A4F56" transform="translate(0,0)"/>
<path d="" fill="#3A4F56" transform="translate(0,0)"/>
<path d="" fill="#3A4F56" transform="translate(0,0)"/>
<path d="" fill="#3A4F56" transform="translate(0,0)"/>
<path d="" fill="#3A4F56" transform="translate(0,0)"/>
<path d="" fill="#3A4F56" transform="translate(0,0)"/>
<path d="" fill="#3A4F56" transform="translate(0,0)"/>
<path d="" fill="#3A4F56" transform="translate(0,0)"/>
<path d="" fill="#3A4F56" transform="translate(0,0)"/>
<path d="" fill="#3A4F56" transform="translate(0,0)"/>
<path d="" fill="#3A4F56" transform="translate(0,0)"/>
<path d="" fill="#3A4F56" transform="translate(0,0)"/>
<path d="" fill="#3A4F56" transform="translate(0,0)"/>
<path d="" fill="#3A4F56" transform="translate(0,0)"/>
<path d="" fill="#3A4F56" transform="translate(0,0)"/>
<path d="" fill="#3A4F56" transform="translate(0,0)"/>
<path d="" fill="#3A4F56" transform="translate(0,0)"/>
<path d="" fill="#3A4F56" transform="translate(0,0)"/>
<path d="" fill="#3A4F56" transform="translate(0,0)"/>
<path d="" fill="#3A4F56" transform="translate(0,0)"/>
<path d="" fill="#3A4F56" transform="translate(0,0)"/>
<path d="" fill="#3A4F56" transform="translate(0,0)"/>
<path d="" fill="#3A4F56" transform="translate(0,0)"/>
<path d="" fill="#3A4F56" transform="translate(0,0)"/>
<path d="" fill="#3A4F56" transform="translate(0,0)"/>
<path d="" fill="#3A4F56" transform="translate(0,0)"/>
<path d="" fill="#3A4F56" transform="translate(0,0)"/>
<path d="" fill="#3A4F56" transform="translate(0,0)"/>
<path d="" fill="#3A4F56" transform="translate(0,0)"/>
<path d="" fill="#3A4F56" transform="translate(0,0)"/>
<path d="" fill="#3A4F56" transform="translate(0,0)"/>
<path d="" fill="#3A4F56" transform="translate(0,0)"/>
<path d="" fill="#3A4F56" transform="translate(0,0)"/>
<path d="" fill="#3A4F56" transform="translate(0,0)"/>
<path d="" fill="#3A4F56" transform="translate(0,0)"/>
<path d="" fill="#3A4F56" transform="translate(0,0)"/>
<path d="" fill="#3A4F56" transform="translate(0,0)"/>
<path d="" fill="#3A4F56" transform="translate(0,0)"/>
<path d="" fill="#3A4F56" transform="translate(0,0)"/>
<path d="" fill="#3A4F56" transform="translate(0,0)"/>
<path d="" fill="#3A4F56" transform="translate(0,0)"/>
<path d="" fill="#3A4F56" transform="translate(0,0)"/>
<path d="" fill="#3A4F56" transform="translate(0,0)"/>
<path d="" fill="#3A4F56" transform="translate(0,0)"/>
<path d="" fill="#3A4F56" transform="translate(0,0)"/>
<path d="" fill="#3A4F56" transform="translate(0,0)"/>
<path d="" fill="#3A4F56" transform="translate(0,0)"/>
<path d="" fill="#3A4F56" transform="translate(0,0)"/>
<path d="" fill="#3A4F56" transform="translate(0,0)"/>
<path d="" fill="#3A4F56" transform="translate(0,0)"/>
<path d="" fill="#3A4F56" transform="translate(0,0)"/>
<path d="" fill="#3A4F56" transform="translate(0,0)"/>
<path d="" fill="#3A4F56" transform="translate(0,0)"/>
<path d="" fill="#3A4F56" transform="translate(0,0)"/>
<path d="" fill="#3A4F56" transform="translate(0,0)"/>
<path d="" fill="#3A4F56" transform="translate(0,0)"/>
<path d="" fill="#3A4F56" transform="translate(0,0)"/>
<path d="" fill="#3A4F56" transform="translate(0,0)"/>
<path d="" fill="#3A4F56" transform="translate(0,0)"/>
<path d="" fill="#3A4F56" transform="translate(0,0)"/>
<path d="" fill="#3A4F56" transform="translate(0,0)"/>
<path d="" fill="#3A4F56" transform="translate(0,0)"/>
<path d="" fill="#3A4F56" transform="translate(0,0)"/>
<path d="" fill="#3A4F56" transform="translate(0,0)"/>
<path d="" fill="#3A4F56" transform="translate(0,0)"/>
<path d="" fill="#3A4F56" transform="translate(0,0)"/>
<path d="" fill="#3A4F56" transform="translate(0,0)"/>
<path d="" fill="#3A4F56" transform="translate(0,0)"/>
<path d="" fill="#3A4F56" transform="translate(0,0)"/>
<path d="" fill="#3A4F56" transform="translate(0,0)"/>
<path d="" fill="#3A4F56" transform="translate(0,0)"/>
<path d="" fill="#3A4F56" transform="translate(0,0)"/>
<path d="" fill="#3A4F56" transform="translate(0,0)"/>
<path d="" fill="#3A4F56" transform="translate(0,0)"/>
<path d="" fill="#3A4F56" transform="translate(0,0)"/>
<path d="" fill="#3A4F56" transform="translate(0,0)"/>
<path d="" fill="#3A4F56" transform="translate(0,0)"/>
<path d="" fill="#3A4F56" transform="translate(0,0)"/>
<path d="" fill="#3A4F56" transform="translate(0,0)"/>
<path d="" fill="#3A4F56" transform="translate(0,0)"/>
<path d="" fill="#3A4F56" transform="translate(0,0)"/>
<path d="" fill="#3A4F56" transform="translate(0,0)"/>
<path d="" fill="#3A4F56" transform="translate(0,0)"/>
<path d="" fill="#3A4F56" transform="translate(0,0)"/>
<path d="" fill="#3A4F56" transform="translate(0,0)"/>
<path d="" fill="#3A4F56" transform="translate(0,0)"/>
<path d="" fill="#3A4F56" transform="translate(0,0)"/>
<path d="" fill="#3A4F56" transform="translate(0,0)"/>
<path d="" fill="#3A4F56" transform="translate(0,0)"/>
<path d="" fill="#3A4F56" transform="translate(0,0)"/>
<path d="" fill="#3A4F56" transform="translate(0,0)"/>
<path d="" fill="#3A4F56" transform="translate(0,0)"/>
<path d="" fill="#3A4F56" transform="translate(0,0)"/>
<path d="" fill="#3A4F56" transform="translate(0,0)"/>
<path d="" fill="#3A4F56" transform="translate(0,0)"/>
<path d="" fill="#3A4F56" transform="translate(0,0)"/>
<path d="" fill="#3A4F56" transform="translate(0,0)"/>
<path d="" fill="#3A4F56" transform="translate(0,0)"/>
<path d="" fill="#3A4F56" transform="translate(0,0)"/>
<path d="" fill="#3A4F56" transform="translate(0,0)"/>
<path d="" fill="#3A4F56" transform="translate(0,0)"/>
<path d="" fill="#3A4F56" transform="translate(0,0)"/>
<path d="" fill="#3A4F56" transform="translate(0,0)"/>
<path d="" fill="#3A4F56" transform="translate(0,0)"/>
<path d="" fill="#3A4F56" transform="translate(0,0)"/>
<path d="" fill="#3A4F56" transform="translate(0,0)"/>
<path d="" fill="#3A4F56" transform="translate(0,0)"/>
<path d="" fill="#3A4F56" transform="translate(0,0)"/>
<path d="" fill="#3A4F56" transform="translate(0,0)"/>
<path d="" fill="#3A4F56" transform="translate(0,0)"/>
<path d="" fill="#3A4F56" transform="translate(0,0)"/>
<path d="" fill="#3A4F56" transform="translate(0,0)"/>
<path d="" fill="#3A4F56" transform="translate(0,0)"/>
<path d="" fill="#3A4F56" transform="translate(0,0)"/>
<path d="" fill="#3A4F56" transform="translate(0,0)"/>
<path d="" fill="#3A4F56" transform="translate(0,0)"/>
<path d="" fill="#3A4F56" transform="translate(0,0)"/>
<path d="" fill="#3A4F56" transform="translate(0,0)"/>
<path d="" fill="#3A4F56" transform="translate(0,0)"/>
<path d="" fill="#3A4F56" transform="translate(0,0)"/>
<path d="" fill="#3A4F56" transform="translate(0,0)"/>
<path d="" fill="#3A4F56" transform="translate(0,0)"/>
<path d="" fill="#3A4F56" transform="translate(0,0)"/>
<path d="" fill="#3A4F56" transform="translate(0,0)"/>
<path d="" fill="#3A4F56" transform="translate(0,0)"/>
<path d="" fill="#3A4F56" transform="translate(0,0)"/>
<path d="" fill="#3A4F56" transform="translate(0,0)"/>
<path d="" fill="#3A4F56" transform="translate(0,0)"/>
<path d="" fill="#3A4F56" transform="translate(0,0)"/>
<path d="" fill="#3A4F56" transform="translate(0,0)"/>
<path d="" fill="#3A4F56" transform="translate(0,0)"/>
<path d="" fill="#3A4F56" transform="translate(0,0)"/>
<path d="" fill="#3A4F56" transform="translate(0,0)"/>
<path d="" fill="#3A4F56" transform="translate(0,0)"/>
<path d="" fill="#3A4F56" transform="translate(0,0)"/>
<path d="" fill="#3A4F56" transform="translate(0,0)"/>
<path d="" fill="#3A4F56" transform="translate(0,0)"/>
<path d="" fill="#3A4F56" transform="translate(0,0)"/>
<path d="" fill="#3A4F56" transform="translate(0,0)"/>
<path d="" fill="#3A4F56" transform="translate(0,0)"/>
<path d="" fill="#3A4F56" transform="translate(0,0)"/>
<path d="" fill="#3A4F56" transform="translate(0,0)"/>
<path d="" fill="#3A4F56" transform="translate(0,0)"/>
<path d="" fill="#3A4F56" transform="translate(0,0)"/>
<path d="" fill="#3A4F56" transform="translate(0,0)"/>
<path d="" fill="#3A4F56" transform="translate(0,0)"/>
<path d="" fill="#3A4F56" transform="translate(0,0)"/>
<path d="" fill="#3A4F56" transform="translate(0,0)"/>
<path d="" fill="#3A4F56" transform="translate(0,0)"/>
<path d="" fill="#3A4F56" transform="translate(0,0)"/>
<path d="" fill="#3A4F56" transform="translate(0,0)"/>
<path d="" fill="#3A4F56" transform="translate(0,0)"/>
<path d="" fill="#3A4F56" transform="translate(0,0)"/>
<path d="" fill="#3A4F56" transform="translate(0,0)"/>
<path d="" fill="#3A4F56" transform="translate(0,0)"/>
<path d="" fill="#3A4F56" transform="translate(0,0)"/>
<path d="" fill="#3A4F56" transform="translate(0,0)"/>
<path d="" fill="#3A4F56" transform="translate(0,0)"/>
<path d="" fill="#3A4F56" transform="translate(0,0)"/>
<path d="" fill="#3A4F56" transform="translate(0,0)"/>
<path d="" fill="#3A4F56" transform="translate(0,0)"/>
<path d="" fill="#3A4F56" transform="translate(0,0)"/>
<path d="" fill="#3A4F56" transform="translate(0,0)"/>
<path d="" fill="#3A4F56" transform="translate(0,0)"/>
<path d="" fill="#3A4F56" transform="translate(0,0)"/>
<path d="" fill="#3A4F56" transform="translate(0,0)"/>
<path d="" fill="#3A4F56" transform="translate(0,0)"/>
<path d="" fill="#3A4F56" transform="translate(0,0)"/>
<path d="" fill="#3A4F56" transform="translate(0,0)"/>
<path d="" fill="#3A4F56" transform="translate(0,0)"/>
<path d="" fill="#3A4F56" transform="translate(0,0)"/>
<path d="" fill="#3A4F56" transform="translate(0,0)"/>
<path d="" fill="#3A4F56" transform="translate(0,0)"/>
<path d="" fill="#3A4F56" transform="translate(0,0)"/>
<path d="" fill="#3A4F56" transform="translate(0,0)"/>
<path d="" fill="#3A4F56" transform="translate(0,0)"/>
<path d="" fill="#3A4F56" transform="translate(0,0)"/>
<path d="" fill="#3A4F56" transform="translate(0,0)"/>
<path d="" fill="#3A4F56" transform="translate(0,0)"/>
<path d="" fill="#3A4F56" transform="translate(0,0)"/>
<path d="" fill="#3A4F56" transform="translate(0,0)"/>
<path d="" fill="#3A4F56" transform="translate(0,0)"/>
<path d="" fill="#3A4F56" transform="translate(0,0)"/>
<path d="" fill="#3A4F56" transform="translate(0,0)"/>
<path d="" fill="#3A4F56" transform="translate(0,0)"/>
<path d="" fill="#3A4F56" transform="translate(0,0)"/>
<path d="" fill="#3A4F56" transform="translate(0,0)"/>
<path d="" fill="#3A4F56" transform="translate(0,0)"/>
<path d="" fill="#3A4F56" transform="translate(0,0)"/>
<path d="" fill="#3A4F56" transform="translate(0,0)"/>
<path d="" fill="#3A4F56" transform="translate(0,0)"/>
<path d="" fill="#3A4F56" transform="translate(0,0)"/>
<path d="" fill="#3A4F56" transform="translate(0,0)"/>
<path d="" fill="#3A4F56" transform="translate(0,0)"/>
<path d="" fill="#3A4F56" transform="translate(0,0)"/>
<path d="" fill="#3A4F56" transform="translate(0,0)"/>
<path d="" fill="#3A4F56" transform="translate(0,0)"/>
<path d="" fill="#3A4F56" transform="translate(0,0)"/>
<path d="" fill="#3A4F56" transform="translate(0,0)"/>
<path d="" fill="#3A4F56" transform="translate(0,0)"/>
<path d="" fill="#3A4F56" transform="translate(0,0)"/>
<path d="" fill="#3A4F56" transform="translate(0,0)"/>
<path d="" fill="#3A4F56" transform="translate(0,0)"/>
<path d="" fill="#3A4F56" transform="translate(0,0)"/>
<path d="" fill="#3A4F56" transform="translate(0,0)"/>
<path d="" fill="#3A4F56" transform="translate(0,0)"/>
<path d="" fill="#3A4F56" transform="translate(0,0)"/>
<path d="" fill="#3A4F56" transform="translate(0,0)"/>
<path d="" fill="#3A4F56" transform="translate(0,0)"/>
<path d="" fill="#3A4F56" transform="translate(0,0)"/>
<path d="" fill="#3A4F56" transform="translate(0,0)"/>
<path d="" fill="#3A4F56" transform="translate(0,0)"/>
<path d="" fill="#3A4F56" transform="translate(0,0)"/>
<path d="" fill="#3A4F56" transform="translate(0,0)"/>
<path d="" fill="#3A4F56" transform="translate(0,0)"/>
<path d="" fill="#3A4F56" transform="translate(0,0)"/>
<path d="" fill="#3A4F56" transform="translate(0,0)"/>
<path d="" fill="#3A4F56" transform="translate(0,0)"/>
<path d="" fill="#3A4F56" transform="translate(0,0)"/>
<path d="" fill="#3A4F56" transform="translate(0,0)"/>
<path d="" fill="#3A4F56" transform="translate(0,0)"/>
<path d="" fill="#3A4F56" transform="translate(0,0)"/>
<path d="" fill="#3A4F56" transform="translate(0,0)"/>
<path d="" fill="#3A4F56" transform="translate(0,0)"/>
<path d="" fill="#3A4F56" transform="translate(0,0)"/>
<path d="" fill="#3A4F56" transform="translate(0,0)"/>
<path d="" fill="#3A4F56" transform="translate(0,0)"/>
<path d="" fill="#3A4F56" transform="translate(0,0)"/>
<path d="" fill="#3A4F56" transform="translate(0,0)"/>
<path d="" fill="#3A4F56" transform="translate(0,0)"/>
<path d="" fill="#3A4F56" transform="translate(0,0)"/>
<path d="" fill="#3A4F56" transform="translate(0,0)"/>
<path d="" fill="#3A4F56" transform="translate(0,0)"/>
</svg>
