<?xml version="1.0" encoding="UTF-8"?>
<svg version="1.1" xmlns="http://www.w3.org/2000/svg" width="1024" height="1024">
<path d="M0 0 C2.32456023 0.00564259 4.64911317 0.00846168 6.97367859 0.0110817 C29.40781256 0.04783794 51.6366183 0.42850009 73.91471863 3.31805801 C75.3424245 3.49699649 76.77015978 3.67570054 78.19792175 3.85419083 C97.64621012 6.32033817 116.84586847 9.73191467 135.91471863 14.31805801 C136.97497253 14.57280899 138.03522644 14.82755997 139.12760925 15.09003067 C192.32693928 28.12828073 244.4730525 50.68377237 287.91471863 84.31805801 C288.78266052 84.98200577 288.78266052 84.98200577 289.6681366 85.65936661 C308.35376541 99.96289915 326.52257522 115.47298338 341.91471863 133.31805801 C343.37191994 134.90243325 344.83029203 136.48573233 346.28971863 138.06805801 C351.82658558 144.22974502 356.89964376 150.72989929 361.91471863 157.31805801 C362.59969421 158.21766251 362.59969421 158.21766251 363.29850769 159.13544083 C375.10696421 174.7373745 385.41522723 191.22225485 394.91471863 208.31805801 C395.39022156 209.17045059 395.86572449 210.02284317 396.3556366 210.90106583 C424.10473131 261.09605372 439.56327035 317.26978201 447.10221863 373.88055801 C447.33485413 375.61559586 447.33485413 375.61559586 447.57218933 377.38568497 C450.42739972 400.0826626 451.29193539 422.75536183 451.23257446 445.6094017 C451.22713253 447.79005989 451.22476646 449.97070723 451.22270203 452.151371 C451.19098034 473.66030208 450.70895762 494.96510957 447.91471863 516.31805801 C447.82796875 516.98710159 447.74121887 517.65614517 447.65184021 518.3454628 C446.52276161 527.02083318 445.28523015 535.67723936 443.91471863 544.31805801 C444.59816345 544.6521669 445.28160828 544.98627579 445.98576355 545.33050919 C447.33311584 545.99530289 447.33311584 545.99530289 448.70768738 546.67352676 C449.5973822 547.11076065 450.48707703 547.54799454 451.4037323 547.99847794 C458.68296403 551.82387876 462.9876518 557.54081892 466.03190613 565.08758926 C468.3948996 573.73447247 468.05650455 584.08486961 464.17643738 592.21258926 C460.49501029 598.35589948 455.44388923 602.85218945 449.91471863 607.31805801 C450.7371405 607.39282364 451.55956238 607.46758926 452.40690613 607.54462051 C462.73175574 608.76071135 470.12054461 611.55602408 476.85221863 619.69305801 C483.25019732 628.82224931 483.88472059 637.38646284 482.91471863 648.31805801 C480.43119645 659.13611226 473.33749977 665.19174144 464.97331238 671.86493301 C461.736958 674.46062975 458.57172235 677.12714828 455.41471863 679.81805801 C450.56860154 683.93750664 445.66939044 687.98408298 440.73503113 691.99774551 C437.55701516 694.61234591 434.42236678 697.27447225 431.28971863 699.94305801 C426.27304808 704.21349604 421.16850321 708.34038648 415.91471863 712.31805801 C416.96530457 712.22266739 418.0158905 712.12727676 419.09831238 712.02899551 C431.92687519 710.96797506 441.67330463 711.65067984 452.08268738 720.07196426 C459.3190591 726.79242206 463.4186788 734.65811346 464.15299988 744.51727676 C464.37418414 754.91293719 462.53316737 763.08971633 455.91471863 771.31805801 C450.17016132 776.85532583 443.99518594 781.58015973 437.41471863 786.06805801 C435.6475537 787.28906802 433.88063057 788.51042805 432.11393738 789.73212051 C431.23914734 790.33443497 430.3643573 790.93674942 429.46305847 791.55731583 C425.69832781 794.15850739 421.96178006 796.79881883 418.22721863 799.44305801 C416.83403352 800.42749537 415.44080455 801.41187066 414.04753113 802.39618301 C412.66988989 803.3700889 411.29228561 804.34404709 409.91471863 805.31805801 C398.48105269 813.40224964 387.02864313 821.45886265 375.54801941 829.47626114 C372.92636512 831.30991216 370.30899894 833.14955716 367.69206238 834.98993301 C356.91882918 842.54864318 346.06075691 849.97815235 335.13160706 857.30926895 C333.72324395 858.25473455 332.31614426 859.20208557 330.91047668 860.15155411 C296.79449979 883.17367811 259.96002247 899.09122136 217.91471863 891.31805801 C203.76295067 888.49160746 187.08896754 883.30113964 175.99284363 873.82196426 C170.97466849 871.37019088 166.9904965 873.59460549 161.91471863 875.31805801 C159.79486085 875.93046875 157.67093293 876.52892587 155.54362488 877.11493301 C154.4113446 877.43043106 153.27906433 877.74592911 152.11247253 878.0709877 C128.20187361 884.62913988 103.95514891 889.52384292 79.35221863 892.63055801 C78.19157898 892.7778334 77.03093933 892.9251088 75.83512878 893.07684708 C71.86596666 893.54316493 67.8937067 893.94740822 63.91471863 894.31805801 C63.00078339 894.40419357 62.08684814 894.49032913 61.1452179 894.57907486 C42.65089723 896.26736006 24.24104283 896.68271685 5.68708801 896.63591385 C3.44151135 896.63047147 1.19594524 896.62810573 -1.04963684 896.62604141 C-23.18197095 896.59434563 -45.10108937 896.10064373 -67.08528137 893.31805801 C-68.31794739 893.1682045 -69.5506134 893.01835098 -70.82063293 892.86395645 C-101.53930679 889.05545543 -132.89555161 883.51061684 -162.08137512 872.97040176 C-165.75394109 872.17284843 -166.80038572 872.55188073 -170.08528137 874.31805801 C-170.72103088 874.65780655 -171.3567804 874.99755508 -172.01179504 875.34759903 C-173.51761895 876.15698147 -175.01954641 876.973642 -176.5181427 877.7963295 C-206.24526915 894.0373318 -238.67400256 897.38657052 -271.15461731 887.90668106 C-293.81755241 880.9260189 -313.2095811 868.53555879 -332.5271759 855.09589005 C-335.39259822 853.10447896 -338.27042578 851.13186441 -341.15071106 849.16205215 C-358.06258532 837.58531402 -374.83705105 825.80641782 -391.62043762 814.04462051 C-394.13910224 812.28035782 -396.65890065 810.51772575 -399.17903137 808.75555801 C-404.14997133 805.27951251 -409.11852878 801.80008379 -414.08528137 798.31805801 C-414.8397052 797.78938126 -415.59412903 797.2607045 -416.37141418 796.71600723 C-420.61054521 793.74302545 -424.84075585 790.75802993 -429.05940247 787.7560463 C-430.42432222 786.78721316 -431.79189869 785.82211334 -433.16194153 784.86053848 C-444.70239574 776.75360784 -455.21036493 769.01810244 -458.08528137 754.31805801 C-458.85598838 743.37994697 -457.92800448 733.87307141 -450.81184387 725.19696426 C-443.98016966 717.76249527 -436.43877982 712.19920682 -426.08528137 711.31805801 C-420.60537448 711.14128682 -415.51626974 711.60375265 -410.08528137 712.31805801 C-416.21434193 707.10494609 -422.34442602 701.89739524 -428.58528137 696.81805801 C-432.62511432 693.5298219 -436.61615808 690.19079359 -440.58528137 686.81805801 C-444.5769171 683.42689753 -448.58914275 680.06670636 -452.64778137 676.75555801 C-453.52821106 676.03368301 -454.40864075 675.31180801 -455.31575012 674.56805801 C-457.28609809 672.96732398 -459.2657373 671.38680486 -461.26106262 669.81805801 C-469.12559629 663.56388692 -474.35329312 658.11553311 -477.08528137 648.31805801 C-478.08379649 637.2182853 -477.43475339 627.58357142 -470.33528137 618.50555801 C-463.07432748 610.73120334 -454.39945848 608.18903297 -444.08528137 607.31805801 C-444.74914856 606.76118301 -445.41301575 606.20430801 -446.09700012 605.63055801 C-454.31257104 598.53038577 -460.41224766 591.7996886 -461.42121887 580.58368301 C-461.66273228 569.84960635 -460.40516814 561.02108204 -452.79231262 552.84930801 C-448.39515031 548.90494273 -443.54023413 546.46670672 -438.08528137 544.31805801 C-438.1907428 543.67819962 -438.29620422 543.03834122 -438.40486145 542.37909317 C-440.6083835 528.80405824 -442.46902662 515.22857214 -443.69856262 501.52899551 C-443.7633997 500.80778519 -443.82823677 500.08657486 -443.8950386 499.34350967 C-445.25899485 483.79820912 -445.54968991 468.31113554 -445.47639465 452.71356583 C-445.45930412 449.05069898 -445.46950668 445.3884869 -445.48671722 441.7256422 C-445.54858614 426.14101416 -445.09949113 410.69231658 -443.70246887 395.16571426 C-443.64102062 394.48208313 -443.57957237 393.798452 -443.51626205 393.09410477 C-435.9229083 310.52853424 -409.63498885 227.81286614 -359.08528137 161.31805801 C-358.60993958 160.69109024 -358.13459778 160.06412247 -357.64485168 159.41815567 C-342.52146417 139.5799542 -325.81313472 120.82059505 -307.08528137 104.31805801 C-306.53694641 103.83030899 -305.98861145 103.34255997 -305.42366028 102.84003067 C-284.58613319 84.35716216 -261.46430638 68.74140459 -237.08528137 55.31805801 C-235.81539368 54.6113295 -235.81539368 54.6113295 -234.51985168 53.89032364 C-185.16362091 26.59773091 -129.75108251 11.25139649 -74.02278137 4.13055801 C-72.21680481 3.89804337 -72.21680481 3.89804337 -70.37434387 3.66083145 C-66.28173066 3.16492082 -62.18768826 2.72385919 -58.08528137 2.31805801 C-57.20017883 2.22978745 -56.31507629 2.14151688 -55.40315247 2.05057144 C-36.9340698 0.27225617 -18.53506877 -0.04570258 0 0 Z " fill="#FEAF2D" transform="translate(509.0852813720703,63.681941986083984)"/>
<path d="M0 0 C6.02440341 3.6237013 11.0110646 8.6883416 16.15234375 13.43359375 C18.82808836 15.84506729 21.56563425 18.12178235 24.375 20.375 C29.1714071 24.24218863 33.6704146 28.34980716 38.16357422 32.55810547 C41.51081785 35.67539336 44.92995906 38.63566482 48.5 41.5 C53.26108478 45.31994011 57.71273025 49.38938819 62.1640625 53.55859375 C65.51116869 56.67568554 68.93014141 59.63581113 72.5 62.5 C77.26108478 66.31994011 81.71273025 70.38938819 86.1640625 74.55859375 C90.35214408 78.45886878 94.71868767 82.07132009 99.18359375 85.65234375 C102.4182418 88.34863152 105.49028959 91.18440416 108.5625 94.0625 C116.89411019 103.18075798 116.89411019 103.18075798 127 108 C127.20365705 98.42151864 126.67788259 89.12705056 125.71661377 79.61087036 C121.24366623 34.73204464 121.24366623 34.73204464 131.14453125 21.06640625 C137.33113039 14.17648847 146.30912238 9.01408614 155.5 7.62109375 C164.34807512 7.19251511 171.32640627 10.28414632 178.0625 15.875 C205.27629925 41.97977295 211.80039622 88.28539265 218.46533203 123.6328125 C220.56168316 134.62221031 223.02062159 145.47016517 227.875 155.625 C228.15400146 156.21361816 228.43300293 156.80223633 228.72045898 157.40869141 C230.8279834 161.78101015 233.0834372 166.0706246 235.35546875 170.359375 C248.89259577 195.92449541 248.89259577 195.92449541 252 208 C252.20302734 208.78487793 252.40605469 209.56975586 252.61523438 210.37841797 C257.68972292 231.06456254 258.66171941 254.33929005 253 275 C252.83371094 275.6305127 252.66742188 276.26102539 252.49609375 276.91064453 C246.90143307 297.79219751 237.13218642 317.59758284 223 334 C222.39929688 334.74507812 221.79859375 335.49015625 221.1796875 336.2578125 C215.61356763 342.94181419 208.97132746 347.90360169 202 353 C201.23429687 353.60585938 200.46859375 354.21171875 199.6796875 354.8359375 C175.60168143 373.21807117 143.0807917 379.91100662 113.44873047 376.12060547 C83.01055417 371.55524078 57.36452415 356.03619433 32.55810547 338.77783203 C29.69268315 336.78642095 26.81485559 334.81380639 23.93457031 332.84399414 C7.02269605 321.26725601 -9.75176968 309.48835981 -26.53515625 297.7265625 C-29.05382087 295.9622998 -31.57361928 294.19966774 -34.09375 292.4375 C-39.06468995 288.9614545 -44.03324741 285.48202577 -49 282 C-49.75442383 281.47132324 -50.50884766 280.94264648 -51.28613281 280.39794922 C-55.52526384 277.42496744 -59.75547448 274.43997192 -63.97412109 271.43798828 C-65.33904085 270.46915515 -66.70661732 269.50405533 -68.07666016 268.54248047 C-79.61711436 260.43554983 -90.12508356 252.70004443 -93 238 C-93.77070701 227.06188896 -92.84272311 217.55501339 -85.7265625 208.87890625 C-78.89488829 201.44443726 -71.35349844 195.8811488 -61 195 C-55.5200931 194.82322881 -50.43098837 195.28569464 -45 196 C-51.12906056 190.78688808 -57.25914465 185.57933722 -63.5 180.5 C-67.53983295 177.21176388 -71.53087671 173.87273558 -75.5 170.5 C-79.49163573 167.10883951 -83.50386138 163.74864834 -87.5625 160.4375 C-88.44292969 159.715625 -89.32335937 158.99375 -90.23046875 158.25 C-92.20081672 156.64926597 -94.18045593 155.06874685 -96.17578125 153.5 C-104.04031492 147.24582891 -109.26801175 141.7974751 -112 132 C-112.99851512 120.90022728 -112.34947202 111.2655134 -105.25 102.1875 C-97.9890461 94.41314532 -89.31417711 91.87097496 -79 91 C-79.66386719 90.443125 -80.32773438 89.88625 -81.01171875 89.3125 C-89.22728967 82.21232776 -95.32696629 75.48163059 -96.3359375 64.265625 C-96.57724429 53.54073125 -95.33111233 44.68218924 -87.69921875 36.53125 C-79.8412275 29.4500257 -71.66973045 27.59791383 -61.24609375 27.73046875 C-56.75394562 28.103463 -53.16397824 29.30617834 -49 31 C-48.92523438 30.18917969 -48.85046875 29.37835937 -48.7734375 28.54296875 C-47.62059622 18.83423676 -45.02833206 10.33900532 -37.625 3.5625 C-26.07205574 -5.32043048 -13.10530681 -6.5119537 0 0 Z " fill="#FF822C" transform="translate(144,580)"/>
<path d="M0 0 C7.43017344 4.23661536 11.72942296 10.25242983 15.375 17.875 C16.31526114 22.57630572 16.15300079 27.22297526 16 32 C16.48726562 31.71125 16.97453125 31.4225 17.4765625 31.125 C25.36062693 26.99661717 33.47193855 26.75914888 42.09765625 28.6953125 C50.80825911 31.54692664 56.22184825 36.11770362 60.95703125 43.875 C65.03900875 52.19183805 65.35792938 62.03591245 63.3125 71.01953125 C60.12062395 79.67749503 54.03337704 85.31919547 47 91 C48.23363281 91.11214844 48.23363281 91.11214844 49.4921875 91.2265625 C59.81703712 92.44265333 67.20582598 95.23796606 73.9375 103.375 C80.33547869 112.50419129 80.97000196 121.06840483 80 132 C77.51647782 142.81805424 70.42278114 148.87368343 62.05859375 155.546875 C58.82223938 158.14257174 55.65700372 160.80909027 52.5 163.5 C47.65388291 167.61944863 42.75467181 171.66602497 37.8203125 175.6796875 C34.64229654 178.29428789 31.50764815 180.95641424 28.375 183.625 C23.35832945 187.89543802 18.25378458 192.02232847 13 196 C14.57587891 195.85691406 14.57587891 195.85691406 16.18359375 195.7109375 C29.01215656 194.64991705 38.758586 195.33262183 49.16796875 203.75390625 C56.40434048 210.47436404 60.50396017 218.34005544 61.23828125 228.19921875 C61.45946551 238.59487918 59.61844875 246.77165832 53 255 C47.25544269 260.53726781 41.08046732 265.26210171 34.5 269.75 C32.73283507 270.97101001 30.96591194 272.19237003 29.19921875 273.4140625 C28.32442871 274.01637695 27.44963867 274.61869141 26.54833984 275.23925781 C22.78360918 277.84044938 19.04706143 280.48076081 15.3125 283.125 C13.91931489 284.10943736 12.52608592 285.09381264 11.1328125 286.078125 C9.75517126 287.05203089 8.37756699 288.02598908 7 289 C-4.43366593 297.08419163 -15.8860755 305.14080464 -27.36669922 313.15820312 C-29.98835351 314.99185415 -32.60571968 316.83149914 -35.22265625 318.671875 C-45.99588944 326.23058516 -56.85396171 333.66009433 -67.78311157 340.99121094 C-69.19147468 341.93667654 -70.59857437 342.88402756 -72.00424194 343.83349609 C-106.12021883 366.8556201 -142.95469615 382.77316334 -185 375 C-203.08936616 371.38711579 -220.70313001 363.72637111 -235 352 C-236.58222431 350.79021485 -238.16552785 349.58183962 -239.75 348.375 C-241.16897005 347.25290667 -242.58581081 346.12811275 -244 345 C-244.59296875 344.54367187 -245.1859375 344.08734375 -245.796875 343.6171875 C-268.81931214 325.13587328 -283.85244309 290.71114054 -287.56640625 261.99609375 C-289.22150303 245.61097413 -288.85557473 229.02919493 -285 213 C-284.7834375 212.02804687 -284.566875 211.05609375 -284.34375 210.0546875 C-281.17793023 197.12759009 -275.42342002 185.72183026 -269.0625 174.125 C-258.8538155 155.49874509 -253.09097725 138.32231814 -249.25 117.4375 C-233.25937685 32.56547117 -233.25937685 32.56547117 -205 12 C-198.92586953 8.22505624 -193.08989863 6.83854937 -186 8 C-175.20078505 11.05760905 -166.21851481 15.65484636 -160.25390625 25.40625 C-152.68937908 41.05374545 -156.10601496 60.58000177 -157.5 77.3125 C-158.8299162 92.63287296 -158.8299162 92.63287296 -159 108 C-154.36293728 106.31108458 -151.37368999 103.83935501 -147.875 100.4375 C-143.86202789 96.6290395 -139.82600209 92.9569958 -135.5 89.5 C-131.33334037 86.15698239 -127.39578234 82.64886656 -123.5 79 C-118.76133536 74.56167326 -113.87880674 70.4085775 -108.8125 66.34375 C-105.60150195 63.66791829 -102.54970863 60.85641724 -99.5 58 C-94.76133536 53.56167326 -89.87880674 49.4085775 -84.8125 45.34375 C-81.60150195 42.66791829 -78.54970863 39.85641724 -75.5 37 C-70.76133536 32.56167326 -65.87880674 28.4085775 -60.8125 24.34375 C-57.60143444 21.66786203 -54.55048796 18.85566162 -51.5 16 C-36.14598575 1.68682056 -21.38303087 -10.57619863 0 0 Z " fill="#FF822C" transform="translate(912,580)"/>
<path d="M0 0 C6.27442122 4.16951064 11.03403823 10.15717735 15.95947266 15.77783203 C23.59823204 24.32739423 32.89534561 30.4599876 42.515625 36.51953125 C43.48113281 37.13699219 44.44664062 37.75445313 45.44140625 38.390625 C77.54655538 58.05332595 115.27439965 66.79401832 152.140625 71.76953125 C153.3481543 71.93267822 154.55568359 72.0958252 155.79980469 72.26391602 C172.39724632 74.39822979 188.86773421 74.76035049 205.578125 74.76953125 C206.68644684 74.77020599 207.79476868 74.77088074 208.93667603 74.77157593 C226.6654259 74.75448282 243.94786143 74.05877424 261.515625 71.51953125 C262.815 71.33729004 264.114375 71.15504883 265.453125 70.96728516 C280.32136804 68.86000406 295.08051557 66.44755682 309.48925781 62.12695312 C311.46914419 61.53346429 313.45571131 60.97007406 315.4453125 60.41015625 C349.01574883 50.71550045 380.88360904 34.43814753 404.265625 8.14453125 C410.62971172 1.00609839 417.00247861 -3.56959555 426.671875 -4.921875 C437.22351941 -5.30400231 445.42562438 -2.60526172 453.5859375 4.26171875 C460.12179059 11.38875454 462.89642173 19.73623186 462.79296875 29.25390625 C462.04705786 38.03674437 458.20243559 44.97718278 452.515625 51.51953125 C451.45601562 52.7415625 451.45601562 52.7415625 450.375 53.98828125 C448.12237412 56.53206286 445.83044583 59.03233014 443.515625 61.51953125 C442.97421875 62.11507812 442.4328125 62.710625 441.875 63.32421875 C436.0728768 69.44868212 429.22604284 74.444889 422.515625 79.51953125 C421.95456055 79.94669434 421.39349609 80.37385742 420.81542969 80.81396484 C392.12110026 102.50864265 358.05871168 116.21510527 323.515625 125.51953125 C322.79793945 125.71998047 322.08025391 125.92042969 321.34082031 126.12695312 C301.47031677 131.65179647 281.01079745 134.66342414 260.578125 137.26953125 C259.67545898 137.38506348 258.77279297 137.5005957 257.84277344 137.61962891 C242.30158942 139.49470036 226.83811718 139.70589 211.20385742 139.70483398 C207.6169016 139.70700775 204.03026058 139.72518576 200.44335938 139.74414062 C185.36619784 139.78142871 170.51045074 139.09039743 155.515625 137.51953125 C154.75925751 137.44147247 154.00289001 137.3634137 153.22360229 137.2829895 C148.79180524 136.81727567 144.37185301 136.28286576 139.953125 135.70703125 C138.65012451 135.53743896 137.34712402 135.36784668 136.00463867 135.19311523 C125.23566549 133.74956572 114.67232566 131.70359183 104.11523438 129.14746094 C101.58103744 128.53533148 99.04171093 127.95111498 96.5 127.37109375 C69.93114297 121.17572414 44.61257373 111.24848423 20.515625 98.51953125 C19.87351074 98.18518066 19.23139648 97.85083008 18.56982422 97.50634766 C-5.62970397 84.82009239 -38.27485421 63.35079501 -48.859375 37.03125 C-50.81770301 29.16121931 -50.58179346 20.75736593 -46.73828125 13.5390625 C-46.32449219 12.87261719 -45.91070312 12.20617187 -45.484375 11.51953125 C-45.06027344 10.82214844 -44.63617188 10.12476563 -44.19921875 9.40625 C-33.94945809 -5.7542595 -15.62219634 -8.59921345 0 0 Z " fill="#402A31" transform="translate(305.484375,484.48046875)"/>
<path d="M0 0 C1.24910156 0.02964844 2.49820313 0.05929687 3.78515625 0.08984375 C20.13140081 0.85929958 34.46076026 5.74809363 49 13 C50.1034375 13.54527344 51.206875 14.09054687 52.34375 14.65234375 C60.74008929 19.17090002 67.31782592 25.30276628 74 32 C74.89976562 32.88816406 75.79953125 33.77632813 76.7265625 34.69140625 C91.89870575 50.45070675 103.41444778 74.10234915 104.6875 96.0625 C104.3997888 105.11512736 100.39270264 114.22540829 93.8125 120.5625 C85.09309112 126.8350369 75.6522777 129.46503048 65 128 C61.68171232 127.08619462 58.93429474 125.78512228 56 124 C55.30132813 123.5875 54.60265625 123.175 53.8828125 122.75 C45.01280399 116.85897548 41.97090794 108.37276532 39.0625 98.5625 C35.56502131 86.8301627 30.84276321 77.47381947 20 71 C16.73473794 69.40987238 13.45485174 68.11463871 10 67 C8.93394531 66.64035156 7.86789062 66.28070313 6.76953125 65.91015625 C2.34848403 64.84269096 -1.6609249 64.69624777 -6.1875 64.75 C-7.44542358 64.76232666 -7.44542358 64.76232666 -8.72875977 64.77490234 C-21.73457978 65.0077079 -33.69844433 67.08247324 -43.8125 76 C-50.43203364 83.36040602 -53.84597706 92.96304188 -56.5625 102.3125 C-59.39029731 111.9441837 -62.9590419 118.53821443 -71.7265625 123.78125 C-72.85191406 124.38453125 -72.85191406 124.38453125 -74 125 C-74.62648438 125.3403125 -75.25296875 125.680625 -75.8984375 126.03125 C-82.53918369 129.05741282 -90.57145758 129.19855047 -97.5546875 127.30859375 C-99.84214404 126.36274234 -101.88609497 125.28602587 -104 124 C-104.69867187 123.5875 -105.39734375 123.175 -106.1171875 122.75 C-113.52706583 117.82872232 -117.59231431 110.43774536 -120 102 C-122.97737589 82.01722717 -111.38605239 58.54772428 -99.78222656 42.828125 C-82.10785902 19.65836588 -57.35481077 4.93985216 -28.375 0.75 C-18.94318323 -0.37278015 -9.47965624 -0.25631602 0 0 Z " fill="#402A31" transform="translate(696,256)"/>
<path d="M0 0 C1.24910156 0.02964844 2.49820313 0.05929687 3.78515625 0.08984375 C32.26583252 1.43049556 57.63009949 14.82582736 77.3359375 35.03125 C91.72164825 51.06224732 105.00849883 76.07058232 104.34765625 98.05078125 C103.37652513 106.28902835 99.98829997 114.17733386 94 120 C84.83616282 126.7012425 76.31765862 129.08823641 65 128 C61.67343004 127.10750562 58.93531281 125.78574164 56 124 C55.30132812 123.5875 54.60265625 123.175 53.8828125 122.75 C45.01280399 116.85897548 41.97090794 108.37276532 39.0625 98.5625 C35.56336341 86.82460127 30.84059774 77.48310257 20 71 C11.40935432 66.75803521 2.79521637 64.62812859 -6.75 64.75 C-7.93070068 64.76232666 -7.93070068 64.76232666 -9.13525391 64.77490234 C-21.98215733 65.01918 -33.83828535 67.20577056 -43.8125 76 C-50.43203364 83.36040602 -53.84597706 92.96304188 -56.5625 102.3125 C-59.39029731 111.9441837 -62.9590419 118.53821443 -71.7265625 123.78125 C-72.85191406 124.38453125 -72.85191406 124.38453125 -74 125 C-74.62648438 125.3403125 -75.25296875 125.680625 -75.8984375 126.03125 C-82.53918369 129.05741282 -90.57145758 129.19855047 -97.5546875 127.30859375 C-99.84214404 126.36274234 -101.88609497 125.28602587 -104 124 C-104.69867188 123.5875 -105.39734375 123.175 -106.1171875 122.75 C-112.81084898 118.30439841 -117.10142834 111.75159304 -119.375 104.0625 C-119.62829834 102.71601937 -119.83475456 101.36009709 -120 100 C-120.09410156 99.23816406 -120.18820313 98.47632813 -120.28515625 97.69140625 C-121.70584137 73.7583261 -106.15061805 49.58591024 -91.1875 32.25 C-79.07045369 19.39687144 -63.86411092 10.21439327 -47 5 C-46.15566406 4.72542969 -45.31132812 4.45085937 -44.44140625 4.16796875 C-29.90818728 -0.21575109 -15.03625805 -0.40655839 0 0 Z " fill="#402A31" transform="translate(344,256)"/>
<path d="M0 0 C16.82447758 12.35310741 25.47795403 32.06092228 29.6015625 51.91015625 C29.7766333 52.54453613 29.9517041 53.17891602 30.13208008 53.83251953 C34.92260641 75.03240466 28.39010145 99.61303191 17.83984375 117.9765625 C16.20472622 120.41208721 14.48294394 122.6605044 12.6015625 124.91015625 C11.91320312 125.75835938 11.22484375 126.6065625 10.515625 127.48046875 C0.84249028 138.85064465 -12.2881631 147.38572724 -27.3984375 148.91015625 C-37.19897093 149.56928805 -45.37746761 148.88486536 -54.3984375 144.91015625 C-55.31109375 144.50925781 -56.22375 144.10835937 -57.1640625 143.6953125 C-74.93468521 134.93693417 -85.56414809 118.98795405 -92.3984375 100.91015625 C-92.71554687 100.12125 -93.03265625 99.33234375 -93.359375 98.51953125 C-101.65336369 76.34748227 -98.83348762 49.88566762 -89.31591797 28.66455078 C-80.22467758 9.59245097 -66.29596454 -2.93501233 -46.3984375 -10.08984375 C-30.78649813 -15.19745355 -12.94431848 -8.58700564 0 0 Z " fill="#FF6723" transform="translate(897.3984375,395.08984375)"/>
<path d="M0 0 C16.82447758 12.35310741 25.47795403 32.06092228 29.6015625 51.91015625 C29.7766333 52.54453613 29.9517041 53.17891602 30.13208008 53.83251953 C34.92260641 75.03240466 28.39010145 99.61303191 17.83984375 117.9765625 C16.20472622 120.41208721 14.48294394 122.6605044 12.6015625 124.91015625 C11.91320312 125.75835938 11.22484375 126.6065625 10.515625 127.48046875 C0.84249028 138.85064465 -12.2881631 147.38572724 -27.3984375 148.91015625 C-37.19897093 149.56928805 -45.37746761 148.88486536 -54.3984375 144.91015625 C-55.31109375 144.50925781 -56.22375 144.10835937 -57.1640625 143.6953125 C-74.93468521 134.93693417 -85.56414809 118.98795405 -92.3984375 100.91015625 C-92.71554688 100.12125 -93.03265625 99.33234375 -93.359375 98.51953125 C-101.65336369 76.34748227 -98.83348762 49.88566762 -89.31591797 28.66455078 C-80.22467758 9.59245097 -66.29596454 -2.93501233 -46.3984375 -10.08984375 C-30.78649813 -15.19745355 -12.94431848 -8.58700564 0 0 Z " fill="#FF6723" transform="translate(193.3984375,395.08984375)"/>
</svg>
