<?xml version="1.0" encoding="UTF-8"?>
<svg version="1.1" xmlns="http://www.w3.org/2000/svg" width="720" height="720">
<path d="M0 0 C1.19326904 0.57935303 1.19326904 0.57935303 2.41064453 1.17041016 C26.54951058 12.98592804 50.75073074 29.48009415 63.3125 53.9375 C63.63855225 54.56962402 63.96460449 55.20174805 64.30053711 55.85302734 C69.08555183 65.67221142 70.44048752 75.1120787 70.33143616 85.95510864 C70.33102733 87.21589135 70.33061849 88.47667406 70.33019727 89.7756623 C70.32884034 93.24525369 70.30903042 96.71452436 70.28614938 100.18403125 C70.26483433 103.93725933 70.26126923 107.6905078 70.25588989 111.44378662 C70.24461323 117.93866704 70.22351328 124.43345369 70.19673347 130.92828751 C70.15536353 141.19795435 70.14637799 151.46753445 70.14268494 161.73727417 C70.141039 165.25570114 70.13921006 168.774128 70.13734341 172.29255486 C70.13688871 173.17164339 70.13643402 174.05073192 70.13596554 174.9564595 C70.13042416 184.94672839 70.11889728 194.93698665 70.10424805 204.92724609 C70.10291905 205.83977413 70.10159006 206.75230217 70.10022079 207.69248258 C70.07776895 222.49413919 70.02876024 237.29561919 69.97268397 252.0971811 C69.91596227 267.31098445 69.89753211 282.52452494 69.9120931 297.73842704 C69.91966206 307.1144086 69.89599593 316.48926504 69.83199125 325.865036 C69.7907949 332.28801179 69.78598943 338.7103668 69.80969561 345.13342847 C69.82222521 348.83751941 69.81853623 352.53971707 69.7709446 356.24356461 C69.71968193 360.26332478 69.74608105 364.2789132 69.77967834 368.29885864 C69.75239452 369.46355183 69.72511069 370.62824501 69.69700009 371.82823193 C69.79415924 376.71700292 70.01447285 379.78880912 73.16273963 383.65795875 C75.68163413 385.94683589 78.25807064 387.98708781 81 390 C82.38591477 391.17474316 83.76319551 392.35989043 85.125 393.5625 C85.77339844 394.13355469 86.42179688 394.70460938 87.08984375 395.29296875 C87.72019531 395.85628906 88.35054687 396.41960937 89 397 C89.59941406 397.53238281 90.19882812 398.06476563 90.81640625 398.61328125 C111.99301118 418.5520053 127.92324539 447.94554825 129.23828125 477.234375 C130.09214147 512.01956335 114.78681955 540.67361926 91.44555664 565.48022461 C70.36509725 587.37484147 44.29911462 603.06679324 17 616 C16.28150879 616.34595215 15.56301758 616.6919043 14.82275391 617.04833984 C-38.25168669 642.47342647 -98.52132516 654.43123015 -157 658 C-157.85996582 658.05639648 -158.71993164 658.11279297 -159.60595703 658.17089844 C-238.83371391 663.22830766 -321.7777839 652.9245593 -471.57421875 575.0703125 C-497.39521378 552.16664744 -516.53102051 523.83945682 -519.8125 488.75 C-521.10794226 462.12452722 -512.02330795 437.04968359 -496 416 C-495.34902344 415.12601562 -494.69804687 414.25203125 -494.02734375 413.3515625 C-477.28381094 391.86564179 -477.28381094 391.86564179 -467.41502666 386.62811089 C-463.49494477 382.36214975 -464.31610456 377.69980458 -464.3742218 372.11013794 C-464.36727726 370.8792818 -464.36033271 369.64842565 -464.35317773 368.38027084 C-464.33887982 364.96117076 -464.34699891 361.5434371 -464.364447 358.12443829 C-464.37780828 354.43773106 -464.36234382 350.75113375 -464.35028076 347.06443787 C-464.33323956 340.67310129 -464.33426752 334.28197193 -464.34728432 327.89062881 C-464.3659325 318.63458282 -464.35514157 309.37875146 -464.33680775 300.12271331 C-464.30763908 285.08570118 -464.29930778 270.04875541 -464.30541992 255.01171875 C-464.31127229 240.43846886 -464.31236905 225.8652413 -464.3034668 211.29199219 C-464.30292423 210.39589907 -464.30238165 209.49980594 -464.30182264 208.57655849 C-464.29564884 198.78168637 -464.28689919 188.98681987 -464.27447033 179.19195366 C-464.27337784 178.32945177 -464.27228536 177.46694989 -464.27115976 176.57831158 C-464.26673919 173.12881206 -464.26226484 169.67931266 -464.25743415 166.22981368 C-464.24334721 156.15168592 -464.23726119 146.07363315 -464.24597003 135.99549799 C-464.25117443 129.66416323 -464.24975764 123.33285327 -464.24326698 117.00151975 C-464.23983754 113.35424942 -464.23970582 109.70705649 -464.2484951 106.05979347 C-464.25802907 102.09306272 -464.25203408 98.12643584 -464.24482727 94.15969849 C-464.2501726 93.02424941 -464.25551794 91.88880034 -464.26102525 90.71894372 C-464.16329389 66.61223534 -456.42000905 47.49807023 -439.48144531 30.46923828 C-431.95088203 23.00072644 -423.88633495 16.76105614 -415 11 C-414.44248047 10.63406738 -413.88496094 10.26813477 -413.31054688 9.89111328 C-371.52169388 -17.27643897 -318.83099304 -28.68644678 -270 -35 C-268.52990288 -35.20410296 -267.05984555 -35.40849289 -265.58984375 -35.61328125 C-193.37544199 -45.13558082 -114.74804715 -39.53183478 0 0 Z " fill="#809BB8" transform="translate(556,51)"/>
<path d="M0 0 C1.63980835 -0.00101212 1.63980835 -0.00101212 3.31274414 -0.00204468 C51.34903386 0.04462383 99.51973566 5.03374838 145.5625 19.25 C146.40844727 19.50475098 147.25439453 19.75950195 148.12597656 20.02197266 C177.09469937 28.8028759 211.41807408 42.54067349 227.97265625 69.55078125 C231.87342723 76.97482925 232.82394296 84.8470726 230.9140625 93.02734375 C223.83883826 114.58561248 202.33366073 126.58213995 183.390625 136.44140625 C153.11130251 151.74141695 118.88016673 159.1138444 85.5625 164.25 C84.35770996 164.43691406 83.15291992 164.62382812 81.91162109 164.81640625 C58.22356355 168.38067533 34.4847015 169.54233108 10.5625 170.25 C9.35094238 170.28609375 8.13938477 170.3221875 6.89111328 170.359375 C-63.03766836 172.10079213 -159.82169276 164.35739032 -213.4375 114.25 C-221.70448272 106.19681856 -227.44593657 97.17357682 -227.9375 85.4375 C-228.03255177 74.10292078 -222.93778364 65.44774882 -215.1875 57.375 C-205.88885847 48.73422155 -195.54522687 42.26301636 -184.4375 36.25 C-183.49519531 35.73695312 -182.55289063 35.22390625 -181.58203125 34.6953125 C-137.76757096 11.83022039 -87.04590532 5.17464297 -38.4375 1.25 C-37.29611572 1.15283691 -36.15473145 1.05567383 -34.97875977 0.95556641 C-23.32877457 0.0568694 -11.67942845 0.00652198 0 0 Z " fill="#3465A4" transform="translate(356.4375,46.75)"/>
<path d="M0 0 C1.26696797 0.94041595 2.53256994 1.88267238 3.79760742 2.82568359 C4.5025383 3.35020111 5.20746918 3.87471863 5.9337616 4.41513062 C32.89854715 25.09796326 54.23339494 55.75753777 58.76855469 89.859375 C61.91524575 118.96294805 52.03344876 147.32834563 34.07421875 170.13500977 C10.54289164 199.0455626 -19.52527187 219.14103951 -53 235 C-53.71849121 235.34595215 -54.43698242 235.6919043 -55.17724609 236.04833984 C-108.25168669 261.47342647 -168.52132516 273.43123015 -227 277 C-227.85996582 277.05639648 -228.71993164 277.11279297 -229.60595703 277.17089844 C-308.83371391 282.22830766 -391.7777839 271.9245593 -541.57421875 194.0703125 C-567.39521378 171.16664744 -586.53102051 142.83945682 -589.8125 107.75 C-591.10794226 81.12452722 -582.02330795 56.04968359 -566 35 C-565.34902344 34.12601562 -564.69804688 33.25203125 -564.02734375 32.3515625 C-559.2125341 26.17302064 -553.82138879 20.62078531 -548.3125 15.0625 C-547.58740234 14.32805664 -546.86230469 13.59361328 -546.11523438 12.83691406 C-542.29870815 9.04316784 -538.61221655 5.78185659 -534 3 C-533.02603568 5.92189296 -532.87311724 7.78765981 -532.86869812 10.82894897 C-532.86468994 11.82398438 -532.86068176 12.81901978 -532.85655212 13.84420776 C-532.85708084 14.93508698 -532.85760956 16.02596619 -532.8581543 17.14990234 C-532.85467987 18.29988708 -532.85120544 19.44987183 -532.84762573 20.63470459 C-532.84026378 23.13758229 -532.83492074 25.64046655 -532.83133507 28.14335251 C-532.82417064 32.11258894 -532.80885252 36.0817404 -532.78999329 40.05093384 C-532.78365553 41.41222948 -532.77732991 42.77352518 -532.77101612 44.13482094 C-532.76785031 44.81669826 -532.7646845 45.49857558 -532.76142275 46.20111585 C-532.71944732 55.43891127 -532.68642644 64.67666645 -532.67407227 73.91455078 C-532.66565033 80.14811235 -532.64300285 86.38145428 -532.6047166 92.61490595 C-532.58508283 95.90794496 -532.57474286 99.20058765 -532.57755089 102.49369431 C-532.57992043 106.18151083 -532.5576083 109.86845436 -532.5300293 113.55615234 C-532.53663071 114.62678925 -532.54323212 115.69742615 -532.55003357 116.80050659 C-532.35221998 133.03528235 -525.41985101 147.79780606 -515 160 C-514.14921875 161.03253906 -514.14921875 161.03253906 -513.28125 162.0859375 C-500.39404956 177.37484348 -482.58886758 187.9366893 -465 197 C-464.32565918 197.3501416 -463.65131836 197.7002832 -462.95654297 198.06103516 C-405.81610469 227.3526891 -337.54803421 235.64415086 -274.18457031 235.39111328 C-269.86570752 235.37402257 -265.54739962 235.38420592 -261.22855568 235.40143013 C-234.41983242 235.4920989 -208.13275155 233.92386858 -181.6171875 229.69238281 C-179.51452351 229.35739958 -177.40986689 229.03751533 -175.3046875 228.71875 C-169.17169114 228.33863378 -169.17169114 228.33863378 -164 226 C-162.08963094 225.66959026 -160.17095384 225.38694825 -158.25 225.125 C-146.63310052 223.4353927 -146.63310052 223.4353927 -135.45703125 219.9765625 C-132.86432161 218.94607377 -130.42389383 218.41243835 -127.6875 217.875 C-120.94448748 216.3645652 -114.43267554 214.29626881 -107.875 212.125 C-106.87428467 211.79741699 -105.87356934 211.46983398 -104.8425293 211.13232422 C-98.93372204 209.14736837 -93.27600242 206.86802578 -87.63037109 204.22753906 C-85.15332992 203.07155586 -82.65984161 201.97341362 -80.1484375 200.89453125 C-49.56463424 187.62690636 -19.71433984 168.88664306 -5.41015625 137.640625 C-1.31483629 127.06766599 -0.85562251 116.48018955 -0.79467773 105.23803711 C-0.77982834 103.52431412 -0.77982834 103.52431412 -0.76467896 101.77597046 C-0.73327118 98.02644879 -0.70838898 94.27691448 -0.68359375 90.52734375 C-0.6630063 87.91703475 -0.64200938 85.30672895 -0.62062073 82.69642639 C-0.57090307 76.54499697 -0.52588751 70.39354267 -0.48259836 64.24206501 C-0.43304597 57.23349605 -0.37819519 50.2249716 -0.32291877 43.2164458 C-0.20942041 28.81100608 -0.10251264 14.40552204 0 0 Z " fill="#000000" transform="translate(626,432)"/>
<path d="M0 0 C0.76306458 -0.0066568 1.52612915 -0.0133136 2.31231689 -0.02017212 C3.91912447 -0.03024261 5.5259734 -0.03499089 7.1328125 -0.03466797 C9.55801431 -0.03902636 11.98137098 -0.07536174 14.40625 -0.11328125 C24.33225916 -0.18899199 33.88037385 -0.21411689 41.58300781 6.86938477 C44.77922406 10.95864089 44.5136911 15.1462513 44.421875 20.15234375 C44.42191528 21.08642563 44.42195557 22.02050751 44.42199707 22.9828949 C44.41665303 24.95049802 44.3991182 26.9181014 44.37011719 28.88549805 C44.32820874 31.89242927 44.32905666 34.89712233 44.3359375 37.90429688 C44.32544589 39.82032802 44.31250794 41.73634766 44.296875 43.65234375 C44.29657288 44.99625938 44.29657288 44.99625938 44.29626465 46.36732483 C44.20543289 51.16896202 43.9460304 54.44092354 40.828125 58.3359375 C38.640625 60.1484375 38.640625 60.1484375 36.828125 61.3359375 C38.45067728 62.81778875 40.07624388 64.29634006 41.703125 65.7734375 C42.60804688 66.59714844 43.51296875 67.42085938 44.4453125 68.26953125 C46.63950427 70.34501692 46.63950427 70.34501692 48.828125 71.3359375 C48.828125 71.9959375 48.828125 72.6559375 48.828125 73.3359375 C46.34282596 73.58294268 43.8824677 73.75839638 41.390625 73.8984375 C40.70291016 73.97384766 40.01519531 74.04925781 39.30664062 74.12695312 C36.86951867 74.22897218 35.14919662 74.12544069 32.828125 73.3359375 C30.90209961 71.32104492 30.90209961 71.32104492 28.890625 68.8515625 C25.43056802 65.05980622 22.98715079 63.76573806 17.81578064 63.42405701 C13.95962096 63.34638414 10.12028679 63.40309103 6.265625 63.5234375 C3.16002228 63.58505787 0.05541846 63.62039737 -3.05078125 63.62890625 C-3.78236954 63.63107651 -4.51395782 63.63324677 -5.26771545 63.63548279 C-12.31577017 63.53475929 -16.5890895 61.918723 -21.609375 56.8984375 C-24.66118324 51.89347199 -24.35643513 46.46642291 -24.41015625 40.74609375 C-24.418228 39.92394882 -24.42629974 39.10180389 -24.43461609 38.25474548 C-24.44840455 36.5208443 -24.45914996 34.78691657 -24.46704102 33.05297852 C-24.47858584 31.28499362 -24.49907707 29.51704425 -24.52856445 27.74926758 C-24.57129043 25.18547044 -24.58741318 22.6227029 -24.59765625 20.05859375 C-24.61516434 19.27404312 -24.63267242 18.48949249 -24.65071106 17.6811676 C-24.63010139 12.43854326 -23.61801759 9.50825285 -20.171875 5.3359375 C-14.20890754 0.82342158 -7.28613917 0.02262267 0 0 Z " fill="#F27903" transform="translate(427.171875,432.6640625)"/>
<path d="M0 0 C1.56791219 2.40432907 2.74167788 4.51045237 3.90625 7.09375 C4.2403186 7.79786011 4.57438721 8.50197021 4.9185791 9.22741699 C5.97225993 11.47387394 6.99176656 13.73280839 8 16 C8.32468262 16.73009277 8.64936523 17.46018555 8.98388672 18.21240234 C11.21871142 23.28230057 13.3672086 28.38653589 15.5 33.5 C16.13752786 35.01713434 16.77554699 36.53406232 17.4140625 38.05078125 C18.94834364 41.69818319 20.47608427 45.34825589 22 49 C24.98561729 45.44408338 26.77287322 41.43666145 28.65234375 37.234375 C29.16445152 36.10603241 29.16445152 36.10603241 29.68690491 34.95489502 C30.77505663 32.55532281 31.85658391 30.15283912 32.9375 27.75 C34.01599767 25.36198432 35.09591106 22.97462164 36.17738342 20.58795166 C36.84834838 19.10622546 37.51745201 17.62365437 38.18431091 16.14007568 C39.77011055 12.62858684 41.38976116 9.13512189 43.07250977 5.66894531 C43.53247093 4.71970184 43.53247093 4.71970184 44.00172424 3.75128174 C45.85535298 0.49944863 47.79954521 -1.1034342 51 -3 C57.27241116 -4.07823266 62.50174871 -3.09276635 68 0 C70.28458499 3.42687748 70.24451452 4.63940311 70.22705078 8.66479492 C70.22689972 9.82577194 70.22674866 10.98674896 70.22659302 12.1829071 C70.21627045 13.43610245 70.20594788 14.68929779 70.1953125 15.98046875 C70.1924826 17.26359451 70.18965271 18.54672028 70.18673706 19.86872864 C70.17910797 23.27676202 70.15946587 26.68462441 70.1373291 30.09259033 C70.11685497 33.57146898 70.107732 37.05037532 70.09765625 40.52929688 C70.07621916 47.35294183 70.04104299 54.1764451 70 61 C65.71 61 61.42 61 57 61 C56.67 44.17 56.34 27.34 56 10 C51.04680071 20.88662989 51.04680071 20.88662989 46.09936523 31.77587891 C44.42202892 35.46488502 42.71834457 39.14122743 41.00701904 42.8145752 C40.03543078 44.9231084 39.09456011 47.04327504 38.15673828 49.16699219 C37.57568884 50.43216691 36.99355823 51.69684586 36.41015625 52.9609375 C35.91781494 54.05970215 35.42547363 55.1584668 34.91821289 56.29052734 C32.06201055 60.32490861 28.62032306 61.53759005 23.7421875 62.3984375 C19.19435119 62.34135169 16.58794937 61.75693762 13 59 C11.5354399 56.63507162 10.34450467 54.4429844 9.1875 51.9375 C8.84984619 51.23431641 8.51219238 50.53113281 8.16430664 49.80664062 C4.2674748 41.61797294 0.62344189 33.31221516 -3 25 C-5.31 19.72 -7.62 14.44 -10 9 C-10.33 26.16 -10.66 43.32 -11 61 C-15.29 61 -19.58 61 -24 61 C-24.11309629 53.52416101 -24.20476939 46.04879174 -24.25906086 38.57227802 C-24.28512227 35.10035151 -24.32045387 31.62904208 -24.37719727 28.1574707 C-24.44206834 24.16351501 -24.46620862 20.17020442 -24.48828125 16.17578125 C-24.51408768 14.93290848 -24.5398941 13.69003571 -24.56648254 12.40950012 C-24.56960677 2.80634786 -24.56960677 2.80634786 -21.61401367 -0.27270508 C-14.85179338 -4.74106303 -6.70383511 -4.14600748 0 0 Z " fill="#204A87" transform="translate(176,435)"/>
<path d="M0 0 C6.011399 1.24169881 12.16172868 3.57317108 16.82421875 7.6015625 C20.00933285 9.955143 22.21495121 10.14393316 26.1328125 10.4921875 C32.28401009 11.24108461 37.00615718 12.44445774 42.3828125 15.4921875 C43.21941406 15.96398437 44.05601562 16.43578125 44.91796875 16.921875 C68.34197719 31.00998367 81.8675483 51.21444494 92.86621094 75.63037109 C94.35260802 78.92686749 95.86076054 82.21202897 97.3828125 85.4921875 C97.71579346 86.23944092 98.04877441 86.98669434 98.3918457 87.7565918 C100.85817667 92.76310395 104.04416483 94.34587991 108.9453125 96.4296875 C116.0780526 99.72296625 122.24061827 103.54972069 128.3828125 108.4921875 C129.08277344 109.05164063 129.78273438 109.61109375 130.50390625 110.1875 C133.52566328 112.68783118 136.32581885 115.10419796 138.3828125 118.4921875 C138.3828125 119.1521875 138.3828125 119.8121875 138.3828125 120.4921875 C131.1228125 122.1421875 123.8628125 123.7921875 116.3828125 125.4921875 C120.21623849 128.68670916 123.8224052 131.55523877 127.8828125 134.3671875 C131.87437125 137.23612035 135.14545086 140.07472027 138.1640625 143.94921875 C139.37197982 145.55396152 139.37197982 145.55396152 140.9765625 147.00390625 C142.3828125 148.4921875 142.3828125 148.4921875 143.3828125 151.4921875 C140.18365202 149.97796769 137.28110163 148.17825579 134.3203125 146.2421875 C130.54593365 143.80467253 126.75377155 141.60605888 122.7578125 139.5546875 C116.53327915 136.22362446 108.79859803 131.50751949 106.3828125 124.4921875 C106.5234375 122.34765625 106.5234375 122.34765625 107.3828125 120.4921875 C113.65671344 116.54815754 122.2368936 116.81248371 129.3828125 116.4921875 C119.82020016 109.07551573 110.03163691 103.49454368 98.5390625 99.64453125 C93.46245466 96.93148902 91.18355204 91.53945592 88.7578125 86.5546875 C88.25121094 85.53435425 88.25121094 85.53435425 87.734375 84.4934082 C85.70003154 80.34870982 83.7798468 76.16413123 81.921875 71.9375 C75.53647233 57.39042908 75.53647233 57.39042908 66.3828125 44.4921875 C65.67511719 43.63753906 64.96742188 42.78289062 64.23828125 41.90234375 C52.59969675 28.34777511 38.62923985 18.77588969 20.6484375 17.11328125 C15.92446777 16.21482289 12.63038599 13.94496822 8.78515625 11.1484375 C4.19678936 7.98507561 -0.12679269 7.1381163 -5.6171875 6.4921875 C-4.5839249 13.3375522 -1.72479759 17.32305445 2.4296875 22.78515625 C5.10647675 26.49518615 6.75379423 30.240065 8.3828125 34.4921875 C9.11816258 36.386819 9.85395556 38.28129042 10.59716797 40.17285156 C11.10694923 41.47502744 11.60905765 42.7802432 12.10205078 44.08886719 C13.8454332 48.58539532 15.92462535 53.03400035 19.3828125 56.4921875 C19.76754203 60.91657704 19.23374704 64.2048309 17.8828125 68.4296875 C14.73865706 79.43423155 15.31305614 89.88309147 19.99609375 100.33203125 C21.26166156 102.80041934 21.26166156 102.80041934 24.3828125 103.4921875 C24.38539063 102.65816406 24.38796875 101.82414062 24.390625 100.96484375 C24.67113169 92.80209915 26.09045883 87.75561523 31.3828125 81.4921875 C34.7639861 84.5954076 36.24921449 88.2953394 38.0703125 92.4296875 C43.12842102 103.54100033 49.4466312 114.02633153 58.3828125 122.4921875 C52.96047187 121.00104383 49.72080162 117.30947651 45.8828125 113.4296875 C44.90634766 112.48319336 44.90634766 112.48319336 43.91015625 111.51757812 C39.61214077 107.21522121 33.3828125 100.9706425 33.3828125 94.4921875 C32.7228125 94.4921875 32.0628125 94.4921875 31.3828125 94.4921875 C31.4240625 95.5234375 31.4653125 96.5546875 31.5078125 97.6171875 C31.35409024 102.38257766 30.82053977 106.05446023 27.3828125 109.4921875 C23.92759712 109.95288288 21.93575146 109.77540014 18.8203125 108.1796875 C11.3680057 99.96304154 10.1109595 89.91958839 10.14453125 79.27734375 C10.44957553 74.43164032 11.50202083 69.99204435 12.82421875 65.33203125 C13.92394078 59.74113672 11.79893891 56.07082674 9.1953125 51.1796875 C6.49526833 46.02104409 4.38751406 40.87287697 2.5078125 35.3671875 C0.13358906 28.52995196 -3.17485269 23.41797099 -7.76171875 17.84765625 C-10.88404291 13.8839479 -11.12770782 10.42721725 -10.6171875 5.4921875 C-7.74945759 1.28020919 -5.19343888 -0.33569757 0 0 Z " fill="#254F8A" transform="translate(421.6171875,300.5078125)"/>
<path d="M0 0 C4.62 0 9.24 0 14 0 C14.33 10.89 14.66 21.78 15 33 C19.71646299 34.8865852 22.31618994 35.29175778 27.26953125 35.4140625 C28.51581299 35.44967285 29.76209473 35.4852832 31.04614258 35.52197266 C32.61904053 35.55597168 34.19193848 35.5899707 35.8125 35.625 C40.824375 35.74875 45.83625 35.8725 51 36 C51 24.12 51 12.24 51 0 C55.62 0 60.24 0 65 0 C65.0989918 7.29569554 65.1715286 14.59099877 65.21972656 21.88720703 C65.23982241 24.36839611 65.26710384 26.84953795 65.30175781 29.33056641 C65.35036294 32.90018382 65.37298972 36.46917416 65.390625 40.0390625 C65.41127014 41.14553131 65.43191528 42.25200012 65.45318604 43.39199829 C65.45498168 49.5768592 65.20048695 53.32255075 61 58 C58.96484375 59.42578125 58.96484375 59.42578125 56.9375 60.3125 C56.26589844 60.61800781 55.59429687 60.92351563 54.90234375 61.23828125 C51.43892087 62.62507275 48.77567722 63.12286065 45.06958008 63.11352539 C44.06876907 63.11344986 43.06795807 63.11337433 42.03681946 63.11329651 C40.95861435 63.10813522 39.88040924 63.10297394 38.76953125 63.09765625 C37.66397385 63.0962413 36.55841644 63.09482635 35.4193573 63.09336853 C31.88371083 63.08776514 28.34812738 63.07521204 24.8125 63.0625 C22.41731862 63.05748544 20.02213625 63.05292246 17.62695312 63.04882812 C11.75128053 63.03779461 5.87564477 63.02105316 0 63 C0 60.03 0 57.06 0 54 C1.3725293 53.98018066 2.74505859 53.96036133 4.15917969 53.93994141 C9.25083786 53.86387655 14.3422106 53.77516021 19.43359375 53.68261719 C21.63731247 53.64433114 23.84109361 53.60947763 26.04492188 53.578125 C29.21246652 53.5324667 32.37958162 53.47447298 35.546875 53.4140625 C36.53242371 53.40251129 37.51797241 53.39096008 38.53338623 53.37905884 C39.4540387 53.35918915 40.37469116 53.33931946 41.32324219 53.31884766 C42.53569611 53.29886215 42.53569611 53.29886215 43.77264404 53.2784729 C46.30019297 52.96246868 47.89858569 52.44515637 50 51 C50.81870185 47.43793339 50.81870185 47.43793339 51 44 C49.54146606 44.0314209 49.54146606 44.0314209 48.0534668 44.06347656 C44.39509203 44.13668232 40.73677989 44.18208744 37.07788086 44.21972656 C35.50387635 44.23966084 33.92994411 44.26681871 32.35620117 44.30175781 C10.64015584 44.77129393 10.64015584 44.77129393 2.875 37.375 C-0.25388198 33.41174949 -0.13305406 30.46572374 -0.09765625 25.5859375 C-0.0962413 24.85629791 -0.09482635 24.12665833 -0.09336853 23.37490845 C-0.08776531 21.04156415 -0.07521235 18.70831536 -0.0625 16.375 C-0.05748541 14.79427222 -0.05292243 13.21354293 -0.04882812 11.6328125 C-0.03779484 7.75517146 -0.02052811 3.87760193 0 0 Z " fill="#234C88" transform="translate(258,452)"/>
<path d="M0 0 C1.05409058 0.00565979 2.10818115 0.01131958 3.19421387 0.01715088 C6.53620254 0.03940766 9.87708947 0.08958523 13.21875 0.140625 C15.4947761 0.16070377 17.77081913 0.17895212 20.046875 0.1953125 C25.60458633 0.23923758 31.16148185 0.30819177 36.71875 0.390625 C36.71875 3.360625 36.71875 6.330625 36.71875 9.390625 C35.40156982 9.40520752 34.08438965 9.41979004 32.72729492 9.43481445 C27.84615762 9.49273213 22.96548482 9.56996536 18.0847168 9.65307617 C15.97118664 9.68635628 13.85756694 9.71437853 11.74389648 9.73706055 C8.70778194 9.77054972 5.67249025 9.82286264 2.63671875 9.87890625 C1.68975632 9.88529617 0.74279388 9.8916861 -0.23286438 9.89826965 C-1.11355087 9.91806381 -1.99423737 9.93785797 -2.90161133 9.95825195 C-4.06410149 9.97490654 -4.06410149 9.97490654 -5.25007629 9.99189758 C-7.80058007 10.49257154 -8.70087298 11.362638 -10.28125 13.390625 C-10.75460483 15.53148944 -10.75460483 15.53148944 -10.65625 17.828125 C-10.66398437 18.58996094 -10.67171875 19.35179687 -10.6796875 20.13671875 C-10.16591472 23.04306084 -9.35144385 24.28227089 -7.28125 26.390625 C-4.45066417 26.97033719 -4.45066417 26.97033719 -1.21484375 26.859375 C-0.00634766 26.87355469 1.20214844 26.88773437 2.44726562 26.90234375 C4.97591172 26.89461483 7.50455756 26.88680415 10.03320312 26.87890625 C19.30363748 26.98687319 26.20614979 28.14041042 33.8046875 33.61328125 C36.42837706 37.42030835 36.46165776 40.30439719 36.34375 44.828125 C36.36308594 45.56611328 36.38242187 46.30410156 36.40234375 47.06445312 C36.36201089 51.60190023 35.6585526 54.69890358 32.35725403 58.10444641 C25.78782679 63.26125806 18.8620612 63.95516141 10.77734375 63.78125 C9.76906021 63.77559021 8.76077667 63.76993042 7.72193909 63.76409912 C4.53287264 63.7418859 1.34497114 63.6917178 -1.84375 63.640625 C-4.01886387 63.62054055 -6.19399552 63.6022932 -8.36914062 63.5859375 C-13.67361915 63.54207047 -18.97723775 63.47314808 -24.28125 63.390625 C-24.28125 60.420625 -24.28125 57.450625 -24.28125 54.390625 C-22.39635864 54.360896 -22.39635864 54.360896 -20.47338867 54.33056641 C-15.81595653 54.25455503 -11.15883865 54.16583077 -6.50170898 54.07324219 C-4.48517048 54.03493396 -2.46856322 54.00008435 -0.4519043 53.96875 C2.44507442 53.92313951 5.34157896 53.86513861 8.23828125 53.8046875 C9.14149612 53.79313629 10.044711 53.78158508 10.97529602 53.76968384 C11.81594101 53.74981415 12.656586 53.72994446 13.52270508 53.70947266 C14.63190056 53.68948715 14.63190056 53.68948715 15.76350403 53.6690979 C18.03979165 53.48848088 18.03979165 53.48848088 20.71875 51.390625 C21.30467634 48.27451946 21.30467634 48.27451946 21.40625 44.765625 C21.47199219 43.57710938 21.53773438 42.38859375 21.60546875 41.1640625 C21.64285156 40.24882812 21.68023437 39.33359375 21.71875 38.390625 C14.05072276 36.09205568 6.70112614 36.04006463 -1.26171875 36 C-9.42352454 35.81332592 -16.52111363 34.61197863 -22.87109375 29.171875 C-24.8150002 25.33790992 -24.90605092 22.13441681 -24.84375 17.890625 C-24.86759766 17.14425781 -24.89144531 16.39789063 -24.91601562 15.62890625 C-24.90555952 11.69044016 -24.62595864 9.86170475 -22.24609375 6.609375 C-14.88062427 1.09740311 -9.16813956 -0.18765412 0 0 Z " fill="#F37902" transform="translate(358.28125,432.609375)"/>
<path d="M0 0 C1.26650391 -0.00515625 2.53300781 -0.0103125 3.83789062 -0.015625 C5.14822266 -0.00015625 6.45855469 0.0153125 7.80859375 0.03125 C9.12279297 0.01578125 10.43699219 0.0003125 11.79101562 -0.015625 C13.05623047 -0.01046875 14.32144531 -0.0053125 15.625 0 C17.35085327 0.00676758 17.35085327 0.00676758 19.11157227 0.01367188 C23.05298306 0.66448509 24.64725012 1.48298003 27.24609375 4.53125 C27.72956176 7.51973463 27.90258261 9.92815263 27.83984375 12.91015625 C27.83988403 13.7186351 27.83992432 14.52711395 27.83996582 15.36009216 C27.83461408 17.06558018 27.81704575 18.77106784 27.78808594 20.47631836 C27.7461781 23.08849265 27.74702166 25.69809266 27.75390625 28.31054688 C27.74341517 29.96876793 27.7304775 31.6269757 27.71484375 33.28515625 C27.71464233 34.06645401 27.71444092 34.84775177 27.7142334 35.65272522 C27.59575838 41.07044515 27.59575838 41.07044515 25.71679688 43.54663086 C25.23146484 43.87155518 24.74613281 44.19647949 24.24609375 44.53125 C23.54033203 43.91636719 23.54033203 43.91636719 22.8203125 43.2890625 C22.19769531 42.75023437 21.57507813 42.21140625 20.93359375 41.65625 C20.31871094 41.12257813 19.70382812 40.58890625 19.0703125 40.0390625 C14.84185587 36.54402126 12.48082522 36.30675951 7.05859375 36.40625 C5.78628906 36.42429687 4.51398438 36.44234375 3.203125 36.4609375 C2.22730469 36.48414063 1.25148438 36.50734375 0.24609375 36.53125 C0.82359375 37.09714844 1.40109375 37.66304688 1.99609375 38.24609375 C3.10984375 39.34630859 3.10984375 39.34630859 4.24609375 40.46875 C4.98859375 41.19964844 5.73109375 41.93054688 6.49609375 42.68359375 C8.24609375 44.53125 8.24609375 44.53125 8.24609375 45.53125 C5.6818086 45.66684675 3.12474159 45.76558188 0.55859375 45.84375 C-0.16263672 45.88564453 -0.88386719 45.92753906 -1.62695312 45.97070312 C-2.6855957 45.99487305 -2.6855957 45.99487305 -3.765625 46.01953125 C-4.40975342 46.04571533 -5.05388184 46.07189941 -5.7175293 46.09887695 C-9.16105829 45.13901544 -10.60354495 43.3273146 -12.75390625 40.53125 C-13.26532824 37.59250434 -13.48047288 35.24187534 -13.453125 32.30859375 C-13.4602803 31.52609756 -13.46743561 30.74360138 -13.47480774 29.93739319 C-13.48256665 28.28924698 -13.47761077 26.64099757 -13.46069336 24.99291992 C-13.44142977 22.47182875 -13.48090082 19.9562263 -13.52539062 17.43554688 C-13.52568093 15.83072589 -13.52254222 14.22589985 -13.515625 12.62109375 C-13.53090744 11.86996811 -13.54618988 11.11884247 -13.56193542 10.34495544 C-13.5144043 8.21069336 -13.5144043 8.21069336 -12.75390625 4.53125 C-8.72289998 0.73526706 -5.43304329 0.0212837 0 0 Z " fill="#7A92AB" transform="translate(430.75390625,441.46875)"/>
<path d="M0 0 C4.29 0 8.58 0 13 0 C13.01981934 1.43311523 13.03963867 2.86623047 13.06005859 4.34277344 C13.13611059 9.65805685 13.22482895 14.97306636 13.31738281 20.28808594 C13.35567417 22.5888122 13.39052674 24.88959835 13.421875 27.19042969 C13.4675217 30.49696262 13.52551747 33.80308312 13.5859375 37.109375 C13.59748871 38.13867126 13.60903992 39.16796753 13.62094116 40.22845459 C13.64081085 41.18914856 13.66068054 42.14984253 13.68115234 43.13964844 C13.69447601 43.98348083 13.70779968 44.82731323 13.7215271 45.69671631 C14.02695422 48.22294171 14.65000901 49.85148212 16 52 C18.26038854 53.13019427 19.57118826 53.15268957 22.08251953 53.20532227 C22.92324005 53.22526749 23.76396057 53.24521271 24.63015747 53.26576233 C25.99272171 53.29083107 25.99272171 53.29083107 27.3828125 53.31640625 C28.31221649 53.33718735 29.24162048 53.35796844 30.19918823 53.37937927 C33.1743821 53.44487646 36.14966577 53.50376052 39.125 53.5625 C41.13933228 53.60568506 43.15365541 53.64929934 45.16796875 53.69335938 C50.11188663 53.80055803 55.05589503 53.90182501 60 54 C60 56.97 60 59.94 60 63 C54.02263584 63.04965857 48.04539337 63.08584173 42.06787109 63.10986328 C40.03692532 63.11988386 38.00599383 63.13350401 35.97509766 63.15087891 C33.04586242 63.17530117 30.11681894 63.18652279 27.1875 63.1953125 C25.83857666 63.21079636 25.83857666 63.21079636 24.46240234 63.22659302 C16.37848151 63.22801251 9.4848515 62.2783675 3 57 C0.45286524 53.43780665 -0.37240386 51.01932866 -0.34057617 46.65893555 C-0.34034958 45.6182341 -0.34012299 44.57753265 -0.33988953 43.5052948 C-0.32440567 42.3936647 -0.30892181 41.28203461 -0.29296875 40.13671875 C-0.28872391 38.98959915 -0.28447906 37.84247955 -0.28010559 36.66059875 C-0.26333484 33.00265879 -0.22568435 29.345273 -0.1875 25.6875 C-0.17245114 23.20508609 -0.15876309 20.72266353 -0.14648438 18.24023438 C-0.11343636 12.15994325 -0.06166395 6.08006554 0 0 Z " fill="#F47901" transform="translate(480,433)"/>
<path d="M0 0 C0 0.33 0 0.66 0 1 C-5.31791261 1.27506445 -9.87502711 0.90658788 -15.0625 -0.3125 C-25.60475401 -2.69120774 -36.26320116 -3.85379951 -47 -5 C-48.25538574 -5.13970215 -49.51077148 -5.2794043 -50.80419922 -5.42333984 C-90.12538922 -9.72502061 -130.52349043 -10.09994871 -169.8112793 -5.35131836 C-172.92671596 -5.00807409 -176.02822227 -4.7930744 -179.15625 -4.6015625 C-187.96897356 -3.95539814 -196.62125106 -2.35471271 -205.3125 -0.8125 C-206.18974731 -0.6592627 -207.06699463 -0.50602539 -207.9708252 -0.34814453 C-219.83362167 1.72999381 -231.53722855 4.0648902 -243.14575195 7.30932617 C-244.44258911 7.66667847 -244.44258911 7.66667847 -245.765625 8.03125 C-246.86052246 8.34932617 -246.86052246 8.34932617 -247.97753906 8.67382812 C-250.27461932 9.04428916 -251.80317951 8.70960887 -254 8 C-228.56197347 0.51460112 -203.30006525 -4.63366393 -177 -8 C-175.73260986 -8.17007568 -174.46521973 -8.34015137 -173.15942383 -8.51538086 C-161.32403118 -10.0535314 -149.48248244 -10.69980787 -137.5625 -11.1875 C-136.53365692 -11.23013977 -135.50481384 -11.27277954 -134.4447937 -11.31671143 C-89.45896937 -13.12557515 -43.96648033 -10.16404317 0 0 Z " fill="#4175B6" transform="translate(470,38)"/>
<path d="M0 0 C0.96550781 0.05220703 1.93101562 0.10441406 2.92578125 0.15820312 C5.2842825 0.28663636 7.64222045 0.42153189 10 0.5625 C10 0.8925 10 1.2225 10 1.5625 C9.05833984 1.61672119 8.11667969 1.67094238 7.14648438 1.72680664 C-24.03016031 3.58618952 -54.99947626 7.45775599 -85.15185547 15.87231445 C-86.01439941 16.11038818 -86.87694336 16.34846191 -87.765625 16.59375 C-88.86052246 16.91182617 -88.86052246 16.91182617 -89.97753906 17.23632812 C-92.27461932 17.60678916 -93.80317951 17.27210887 -96 16.5625 C-71.49726529 9.35232028 -47.186121 4.24440566 -21.85546875 0.94116211 C-20.16814283 0.71740676 -18.48225978 0.48117202 -16.80078125 0.21704102 C-11.14806685 -0.63788904 -5.67792099 -0.34067526 0 0 Z " fill="#4F83C0" transform="translate(312,29.4375)"/>
<path d="M0 0 C5.97491842 1.41939004 11.89463443 2.91420883 17.7421875 4.796875 C44.41851082 13.35330789 72.19253886 17.91354818 100 21 C99.67 21.66 99.34 22.32 99 23 C75.40220836 20.50012841 52.21878096 16.72481271 29.1875 11 C28.53353241 10.83859528 27.87956482 10.67719055 27.20578003 10.51089478 C17.63140899 8.13102245 8.3127041 5.23085371 -1 2 C-0.67 1.34 -0.34 0.68 0 0 Z " fill="#ACB5B7" transform="translate(202,625)"/>
<path d="M0 0 C9.24 0 18.48 0 28 0 C27.67 0.66 27.34 1.32 27 2 C19.36966266 3.29327751 11.719058 3.09882151 4 3 C4 2.34 4 1.68 4 1 C2.68 0.67 1.36 0.34 0 0 Z " fill="#CFD6DA" transform="translate(328,234)"/>
<path d="M0 0 C4 1 4 1 6 4 C6.66 2.68 7.32 1.36 8 0 C8.99 0 9.98 0 11 0 C11 2.97 11 5.94 11 9 C10.34 9 9.68 9 9 9 C8.67 8.01 8.34 7.02 8 6 C7.67 6.99 7.34 7.98 7 9 C6.01 8.67 5.02 8.34 4 8 C3.67 7.01 3.34 6.02 3 5 C2.67 6.32 2.34 7.64 2 9 C1.34 9 0.68 9 0 9 C0 6.03 0 3.06 0 0 Z " fill="#D9781B" transform="translate(553,487)"/>
<path d="M0 0 C0.33 0 0.66 0 1 0 C1 17.49 1 34.98 1 53 C0.67 53 0.34 53 0 53 C-0.01030746 52.43037033 -0.02061493 51.86074066 -0.03123474 51.27384949 C-0.13929277 45.35294092 -0.25389145 39.43218475 -0.37231445 33.51147461 C-0.41566552 31.30089502 -0.45734046 29.09028191 -0.49731445 26.87963867 C-0.55501266 23.70481251 -0.61870862 20.53015514 -0.68359375 17.35546875 C-0.70030624 16.36475876 -0.71701874 15.37404877 -0.73423767 14.35331726 C-0.75418289 13.43258926 -0.77412811 12.51186127 -0.79467773 11.56323242 C-0.81022202 10.7527092 -0.8257663 9.94218597 -0.84178162 9.10710144 C-0.92809721 6.80853317 -0.92809721 6.80853317 -2 4 C-1.0625 1.8125 -1.0625 1.8125 0 0 Z " fill="#92A3B0" transform="translate(232,443)"/>
<path d="M0 0 C8.44419541 2.00834918 16.72831339 4.37173829 25 7 C25 7.66 25 8.32 25 9 C15.92768148 7.73628827 7.59630517 5.03944933 -1 2 C-0.67 1.34 -0.34 0.68 0 0 Z " fill="#A0B2BD" transform="translate(202,625)"/>
<path d="M0 0 C2.875 -0.125 2.875 -0.125 6 0 C8 2 8 2 8.125 5.125 C8.08375 6.07375 8.0425 7.0225 8 8 C7.01 8 6.02 8 5 8 C3.61328125 6.25 3.61328125 6.25 2.3125 4 C1.87550781 3.2575 1.43851562 2.515 0.98828125 1.75 C0.66214844 1.1725 0.33601563 0.595 0 0 Z " fill="#095870" transform="translate(441,327)"/>
<path d="M0 0 C0.61875 0.350625 1.2375 0.70125 1.875 1.0625 C2.57625 1.371875 3.2775 1.68125 4 2 C4.66 1.67 5.32 1.34 6 1 C7.32 2.98 8.64 4.96 10 7 C9.34 7 8.68 7 8 7 C7.67 8.32 7.34 9.64 7 11 C5.82750647 9.54634731 4.66216184 8.08692581 3.5 6.625 C2.52546875 5.40683594 2.52546875 5.40683594 1.53125 4.1640625 C0 2 0 2 0 0 Z " fill="#A4BFDF" transform="translate(120,166)"/>
<path d="M0 0 C2.31 0 4.62 0 7 0 C7 0.66 7 1.32 7 2 C6.34 2 5.68 2 5 2 C5 4.31 5 6.62 5 9 C4.34 9 3.68 9 3 9 C3 6.36 3 3.72 3 1 C2.01 0.67 1.02 0.34 0 0 Z " fill="#DF7816" transform="translate(544,487)"/>
<path d="M0 0 C0.99 0 1.98 0 3 0 C3 2.97 3 5.94 3 9 C2.34 9 1.68 9 1 9 C-0.61949011 6.42786866 -1.04408751 5.32330841 -0.625 2.25 C-0.41875 1.5075 -0.2125 0.765 0 0 Z " fill="#E27811" transform="translate(561,487)"/>
</svg>
