<?xml version="1.0" encoding="UTF-8"?>
<svg version="1.1" xmlns="http://www.w3.org/2000/svg" width="200" height="200">
<path d="M0 0 C4.66181095 1.46462303 6.2477783 4.64208875 8.78930664 8.65454102 C9.31674469 9.44970627 9.84418274 10.24487152 10.38760376 11.06413269 C12.07518317 13.61701631 13.73345884 16.18746052 15.39086914 18.76000977 C17.04339698 21.2830139 18.70172615 23.80213964 20.36016846 26.32125854 C21.43095717 27.94951473 22.49915043 29.57948097 23.56463623 31.21121216 C27.52848579 37.2694917 31.65508567 43.16600749 36.01586914 48.94750977 C36.51997314 48.6677832 37.02407715 48.38805664 37.54345703 48.09985352 C51.1274634 40.58188936 64.84547858 33.36302982 78.66650391 26.29321289 C79.31582886 25.9603981 79.96515381 25.62758331 80.63415527 25.28468323 C82.40583293 24.37698086 84.1787061 23.471613 85.95166016 22.56640625 C88.99703119 21.00691267 88.99703119 21.00691267 91.71484375 19.24853516 C94.6185519 17.60674622 96.73450813 17.7185776 100.01586914 17.94750977 C99.5457869 25.32112613 97.65607177 31.28092151 94.89477539 38.10375977 C94.26659157 39.69371765 94.26659157 39.69371765 93.62571716 41.3157959 C92.28689063 44.69722707 90.93293211 48.07235609 89.57836914 51.44750977 C88.70301604 53.65153831 87.82865909 55.85596275 86.95532227 58.06079102 C85.20868401 62.46659922 83.44865819 66.86673681 81.68041992 71.26391602 C79.84474943 75.83963871 78.05797363 80.43103573 76.30053711 85.03735352 C75.85862534 86.1811145 75.41671356 87.32487549 74.96141052 88.5032959 C74.12026528 90.68256586 73.29041485 92.86624056 72.47377014 95.05480957 C68.90217324 104.23560855 68.90217324 104.23560855 64.01586914 106.94750977 C61.26088081 107.53007501 58.79558449 107.9105137 56.01586914 108.13500977 C55.3365332 108.20397461 54.65719727 108.27293945 53.95727539 108.34399414 C51.64513009 108.5709662 49.3315879 108.76054441 47.01586914 108.94750977 C46.08186279 109.03000977 45.14785645 109.11250977 44.18554688 109.19750977 C34.82427043 109.98502357 25.46646253 110.32397542 16.07836914 110.57250977 C15.25182831 110.59463531 14.42528748 110.61676086 13.57369995 110.63955688 C-6.60351786 111.15566702 -26.67165808 110.66921034 -46.79663086 109.01000977 C-48.15679321 108.89822388 -48.15679321 108.89822388 -49.54443359 108.78417969 C-53.67437033 108.40220443 -57.78420074 107.90537471 -61.87084961 107.19360352 C-62.56782959 107.07557373 -63.26480957 106.95754395 -63.98291016 106.8359375 C-69.34760271 104.4543203 -71.0746715 98.73703814 -73.05307007 93.62564087 C-73.41317169 92.66838104 -73.77327332 91.71112122 -74.14428711 90.72485352 C-74.53113678 89.71893158 -74.91798645 88.71300964 -75.31655884 87.67660522 C-76.5684795 84.41594532 -77.80782252 81.15067133 -79.04663086 77.88500977 C-80.32640616 74.53644197 -81.60871193 71.18885032 -82.89112854 67.84129333 C-83.73781938 65.63026559 -84.58339517 63.41881051 -85.42784119 61.20692444 C-87.79503319 55.01371233 -90.19995117 48.83879655 -92.67944336 42.68969727 C-92.94419968 42.03048782 -93.20895599 41.37127838 -93.48173523 40.6920929 C-94.65549007 37.77166817 -95.83825199 34.85553719 -97.03710938 31.9453125 C-97.63543579 30.45559937 -97.63543579 30.45559937 -98.24584961 28.93579102 C-98.58575928 28.1060376 -98.92566895 27.27628418 -99.27587891 26.42138672 C-100.10827203 23.51389293 -100.10574428 20.95669048 -99.98413086 17.94750977 C-93.54682704 17.04628723 -88.93366979 20.2168505 -83.48413086 23.19750977 C-82.47817871 23.73529053 -81.47222656 24.27307129 -80.43579102 24.82714844 C-77.27772833 26.52042749 -74.13011877 28.23191592 -70.98413086 29.94750977 C-69.0024343 31.02186552 -67.02066549 32.09608803 -65.03881836 33.17016602 C-60.48221545 35.64558721 -55.93432168 38.13657529 -51.38842773 40.6315918 C-46.26962647 43.43321028 -41.12623347 46.18897478 -35.98413086 48.94750977 C-30.6537838 42.1445371 -25.74331313 35.1667775 -21.06616211 27.90063477 C-20.55560272 27.11233276 -20.04504333 26.32403076 -19.51901245 25.51184082 C-17.39957044 22.23833566 -15.28199886 18.96432457 -13.19628906 15.66918945 C-11.65093729 13.23357296 -10.08002861 10.81625578 -8.50366211 8.40063477 C-8.03789261 7.65082336 -7.57212311 6.90101196 -7.09223938 6.128479 C-4.91938141 2.84259083 -3.83325932 1.21712177 0 0 Z " fill="#FE4A4A" transform="translate(99.984130859375,44.052490234375)"/>
<path d="M0 0 C4.70427556 1.41851654 6.26861834 4.59540645 8.82177734 8.6262207 C9.34921539 9.42138596 9.87665344 10.21655121 10.42007446 11.03581238 C12.10765387 13.588696 13.76592955 16.1591402 15.42333984 18.73168945 C17.07586769 21.25469358 18.73419685 23.77381932 20.39263916 26.29293823 C21.46342787 27.92119442 22.53162113 29.55116065 23.59710693 31.18289185 C27.5609565 37.24117139 31.68755637 43.13768718 36.04833984 48.91918945 C36.55244385 48.63946289 37.05654785 48.35973633 37.57592773 48.0715332 C51.15993411 40.55356905 64.87794928 33.33470951 78.69897461 26.26489258 C79.34829956 25.93207779 79.99762451 25.599263 80.66662598 25.25636292 C82.43830364 24.34866055 84.21117681 23.44329268 85.98413086 22.53808594 C89.02950189 20.97859236 89.02950189 20.97859236 91.74731445 19.22021484 C94.65102261 17.5784259 96.76697883 17.69025729 100.04833984 17.91918945 C99.5782576 25.29280582 97.68854248 31.2526012 94.92724609 38.07543945 C94.29906227 39.66539734 94.29906227 39.66539734 93.65818787 41.28747559 C92.31936133 44.66890676 90.96540281 48.04403578 89.61083984 51.41918945 C88.73548674 53.62321799 87.86112979 55.82764244 86.98779297 58.0324707 C85.2427206 62.43448435 83.48390797 66.83066895 81.71679688 71.22387695 C79.86565536 75.83781846 78.06689194 80.46848339 76.29785156 85.11450195 C75.85142807 86.2717981 75.40500458 87.42909424 74.9450531 88.62145996 C74.09032271 90.83958546 73.24756815 93.06237246 72.41835022 95.29016113 C72.03448654 96.27826782 71.65062286 97.26637451 71.25512695 98.28442383 C70.75897133 99.59461487 70.75897133 99.59461487 70.25279236 100.93127441 C69.04833984 102.91918945 69.04833984 102.91918945 67.07266235 103.77394104 C63.983119 103.99562077 62.16658077 102.71915579 59.48193359 101.2277832 C58.37027832 100.61974854 57.25862305 100.01171387 56.11328125 99.38525391 C55.52299133 99.05514313 54.93270142 98.72503235 54.32452393 98.38491821 C51.82351145 96.98630223 49.30851798 95.613783 46.79388428 94.23985291 C45.48900154 93.52670908 44.18485093 92.81222411 42.88140869 92.09645081 C36.37036645 88.52666933 29.77921262 85.1228093 23.17333984 81.73168945 C14.10015596 77.05615887 5.10392804 72.26401451 -3.83837891 67.34326172 C-14.12016395 61.69875214 -24.53314789 56.30598466 -34.95166016 50.91918945 C-34.33177578 47.7996129 -33.29783546 45.63063314 -31.53076172 42.99609375 C-31.02643616 42.23818039 -30.5221106 41.48026703 -30.00250244 40.6993866 C-29.18069489 39.48367729 -29.18069489 39.48367729 -28.34228516 38.2434082 C-27.7784613 37.40002396 -27.21463745 36.55663971 -26.63372803 35.68769836 C-24.82840536 32.99038725 -23.01502517 30.29859855 -21.20166016 27.60668945 C-19.99542684 25.8055947 -18.78969198 24.00416601 -17.58447266 22.20239258 C-11.3753558 12.9359278 -11.3753558 12.9359278 -9.37756348 10.03134155 C-8.44049042 8.64328053 -7.53618977 7.2324175 -6.66931152 5.79946899 C-4.72187211 2.70720386 -3.5465346 1.10444192 0 0 Z " fill="#BD4043" transform="translate(99.95166015625,44.080810546875)"/>
<path d="M0 0 C-0.46610932 7.42906548 -2.4028125 13.42681942 -5.19140625 20.296875 C-5.61493881 21.36633362 -6.03847137 22.43579224 -6.47483826 23.53765869 C-7.82705773 26.94599356 -9.1942361 30.34807863 -10.5625 33.75 C-11.89777289 37.09873343 -13.22991178 40.44869878 -14.56137085 43.7989502 C-15.43616131 45.99693898 -16.3137641 48.19381065 -17.19424438 50.38952637 C-19.30550269 55.66630754 -21.37050648 60.95248662 -23.33154297 66.28710938 C-23.6932811 67.26601135 -24.05501923 68.24491333 -24.42771912 69.253479 C-25.10290551 71.09237326 -25.76851395 72.93482191 -26.42298889 74.78118896 C-26.72031418 75.58977356 -27.01763947 76.39835815 -27.32397461 77.23144531 C-27.57698837 77.93891907 -27.83000214 78.64639282 -28.09068298 79.37530518 C-29 81 -29 81 -32 82 C-32.6798999 80.97753174 -33.3597998 79.95506348 -34.06030273 78.90161133 C-36.62548114 75.04467368 -39.19227785 71.18881519 -41.75952148 67.33325195 C-42.86249027 65.67631136 -43.9650418 64.01909293 -45.06713867 62.36157227 C-51.61903648 52.50839989 -58.21587007 42.69517786 -65 33 C-61.84353437 29.44860868 -58.3654868 27.39627538 -54.1640625 25.3125 C-53.4961821 24.97286728 -52.8283017 24.63323456 -52.1401825 24.28330994 C-49.97190244 23.18191135 -47.79859374 22.09086895 -45.625 21 C-42.6292374 19.48492564 -39.6363425 17.96426669 -36.64453125 16.44140625 C-35.90319443 16.06464249 -35.1618576 15.68787872 -34.39805603 15.29969788 C-27.04099894 11.54361344 -19.81736476 7.55748061 -12.67626953 3.40429688 C-8.27809084 0.92024642 -5.21673409 -0.66578674 0 0 Z " fill="#80353B" transform="translate(200,62)"/>
</svg>
